<svg width="284" height="284" viewBox="0 0 284 284" fill="none" xmlns="http://www.w3.org/2000/svg">
<path d="M231.363 226.541C181.709 255.066 101.206 255.066 51.5517 226.541C1.8971 198.016 1.90277 151.775 51.5517 123.256C101.201 94.7369 181.715 94.7369 231.363 123.256C281.012 151.775 281.018 198.022 231.363 226.541Z" fill="#FAFAFA"/>
<path d="M155.961 174.898C145.527 168.878 128.612 168.878 118.178 174.898C109.334 180.01 107.994 187.798 114.14 193.728C113.792 193.818 113.458 193.954 113.146 194.131L80.2016 213.159C78.8044 213.965 78.8044 215.278 80.2016 216.084L82.2692 217.277C83.0452 217.671 83.9077 217.865 84.7779 217.84C85.6481 217.815 86.4982 217.573 87.2505 217.135L117.923 197.045C118.048 196.963 118.166 196.869 118.275 196.766C128.715 202.736 145.539 202.719 155.956 196.715C166.373 190.712 166.424 180.925 155.961 174.898Z" fill="#E6E6E6"/>
<path d="M229.302 152.991L187.315 177.284C186.792 177.55 186.213 177.688 185.625 177.688C185.038 177.688 184.459 177.55 183.936 177.284L110.896 135.11C109.965 134.576 109.965 133.701 110.896 133.162L152.883 108.868C153.407 108.602 153.986 108.464 154.573 108.464C155.16 108.464 155.739 108.602 156.263 108.868L229.302 151.042C230.233 151.576 230.233 152.451 229.302 152.991Z" fill="#E6E6E6"/>
<path d="M42.3331 198.936L31.1037 192.45C29.7462 191.666 29.7462 190.394 31.1037 189.61L109.243 144.493C110.006 144.107 110.848 143.905 111.703 143.905C112.558 143.905 113.4 144.107 114.162 144.493L125.397 150.98C126.755 151.764 126.755 153.036 125.397 153.82L47.252 198.936C46.4898 199.323 45.6472 199.525 44.7925 199.525C43.9379 199.525 43.0952 199.323 42.3331 198.936Z" fill="#E6E6E6"/>
<path d="M229.415 211.83C240.875 211.83 250.164 206.754 250.164 200.493C250.164 194.231 240.875 189.155 229.415 189.155C217.956 189.155 208.666 194.231 208.666 200.493C208.666 206.754 217.956 211.83 229.415 211.83Z" fill="#E6E6E6"/>
<path d="M238.498 189.235C238.696 186.719 240.934 181.658 243.808 178.602C246.682 175.546 250.971 173.49 253.805 174.723C256.446 175.859 255.867 179.409 252.379 181.499C248.892 183.589 243.712 186.162 241.934 190.121L238.498 194.881V189.235Z" fill="#2C557D"/>
<path opacity="0.1" d="M238.498 189.235C238.696 186.719 240.934 181.658 243.808 178.602C246.682 175.546 250.971 173.49 253.805 174.723C256.446 175.859 255.867 179.409 252.379 181.499C248.892 183.589 243.712 186.162 241.934 190.121L238.498 194.881V189.235Z" fill="black"/>
<path d="M238.032 192.66C238.073 192.66 238.113 192.647 238.146 192.622C238.179 192.598 238.202 192.563 238.214 192.524C240.588 184.077 248.091 177.659 252.368 176.455C252.41 176.437 252.445 176.404 252.464 176.363C252.484 176.322 252.488 176.275 252.476 176.231C252.463 176.187 252.435 176.149 252.396 176.124C252.357 176.099 252.311 176.09 252.266 176.097C247.909 177.33 240.264 183.85 237.856 192.427C237.849 192.451 237.847 192.475 237.85 192.499C237.853 192.524 237.86 192.547 237.873 192.568C237.885 192.59 237.901 192.608 237.921 192.623C237.94 192.638 237.963 192.648 237.986 192.654L238.032 192.66Z" fill="white"/>
<path d="M238.872 198.232C239.389 196.852 241.303 194.659 244.251 192.955C247.512 191.075 251.499 190.411 252.533 188.82C253.777 186.917 252.249 184.901 249.04 185.037C245.83 185.174 239.912 189.053 238.498 195.5L238.872 198.232Z" fill="#2C557D"/>
<path d="M238.378 196.721C238.413 196.722 238.448 196.712 238.477 196.693C238.507 196.673 238.529 196.646 238.543 196.614C241.769 189.474 247.586 187.344 250.21 187.213C250.258 187.213 250.304 187.194 250.338 187.16C250.372 187.126 250.392 187.08 250.392 187.031C250.392 186.983 250.372 186.937 250.338 186.903C250.304 186.869 250.258 186.85 250.21 186.85C247.307 186.992 241.519 189.173 238.225 196.46C238.215 196.482 238.209 196.507 238.208 196.531C238.208 196.556 238.212 196.58 238.221 196.603C238.23 196.626 238.244 196.646 238.261 196.664C238.278 196.681 238.299 196.695 238.322 196.704C238.339 196.714 238.359 196.719 238.378 196.721Z" fill="white"/>
<path d="M32.0296 175.211C32.0296 175.211 31.4616 169.991 28.8374 165.935C26.2133 161.88 22.6689 159.358 19.3405 159.091C16.012 158.824 13.3253 161.891 16.8867 163.999C20.4481 166.106 26.7756 168.247 29.6894 176.114L32.0296 175.211Z" fill="#2C557D"/>
<path opacity="0.1" d="M32.0296 175.211C32.0296 175.211 31.4616 169.991 28.8374 165.935C26.2133 161.88 22.6689 159.358 19.3405 159.091C16.012 158.824 13.3253 161.891 16.8867 163.999C20.4481 166.106 26.7756 168.247 29.6894 176.114L32.0296 175.211Z" fill="black"/>
<path d="M31.0526 173.853H31.0867C31.1085 173.845 31.1284 173.832 31.1451 173.815C31.1618 173.799 31.175 173.779 31.184 173.757C31.193 173.736 31.1976 173.712 31.1975 173.689C31.1973 173.665 31.1925 173.642 31.1832 173.621C27.673 164.964 20.9592 161.352 17.9375 160.647C17.8932 160.643 17.8488 160.655 17.8126 160.681C17.7764 160.706 17.751 160.745 17.7412 160.788C17.7314 160.832 17.7378 160.877 17.7594 160.916C17.7809 160.955 17.816 160.985 17.858 161C20.84 161.681 27.3947 165.237 30.8538 173.751C30.8708 173.788 30.8996 173.818 30.9356 173.837C30.9716 173.855 31.0128 173.861 31.0526 173.853Z" fill="white"/>
<path d="M15.0805 173.808C15.4042 174.535 16.2165 174.91 16.9265 175.205C17.6936 175.413 18.3706 175.868 18.852 176.5C19.6529 177.881 18.3408 179.823 19.1985 181.164C19.3996 181.435 19.6549 181.662 19.9482 181.831C20.2415 181.999 20.5664 182.104 20.9025 182.141C21.4523 182.22 22.0059 182.272 22.561 182.294C22.8251 182.288 23.0887 182.267 23.3505 182.232C24.1141 182.06 24.9129 182.146 25.6225 182.476C26.7188 183.089 27.0539 184.475 27.7185 185.543C28.1317 186.173 28.6759 186.706 29.3141 187.106C29.9523 187.506 30.6693 187.763 31.4161 187.86C32.0521 187.989 32.7109 187.946 33.3246 187.735L33.4325 187.667C33.5017 187.594 33.5662 187.516 33.6257 187.434V187.4C33.8188 186.685 33.5007 185.941 33.4893 185.202V185.066C33.4893 184.208 33.5461 183.362 33.5632 182.499C33.601 180.919 33.6162 179.34 33.6086 177.761C33.6086 176.739 33.7222 175.614 33.2905 174.649C32.8077 173.587 31.6149 173.564 31.1662 172.519C30.9845 172.104 30.8879 171.661 30.7118 171.241C30.4412 170.626 30.0066 170.097 29.4557 169.712C28.9047 169.327 28.2585 169.102 27.5878 169.06C25.4976 168.952 23.6118 170.639 21.5443 170.485C21.0074 170.413 20.4746 170.313 19.9482 170.184C18.2442 169.866 16.3073 170.349 15.3588 171.775C15.1496 172.065 15.0148 172.402 14.9662 172.757C14.9177 173.111 14.9569 173.472 15.0805 173.808Z" fill="#2C557D"/>
<path d="M33.8187 184.123C33.8416 184.117 33.863 184.107 33.8819 184.094C33.9007 184.08 33.9165 184.062 33.9282 184.042C33.9399 184.022 33.9473 183.999 33.95 183.976C33.9527 183.953 33.9505 183.929 33.9437 183.907C31.0753 173.092 19.6869 171.536 17.04 171.723C17.0169 171.725 16.9943 171.731 16.9734 171.741C16.9526 171.751 16.934 171.765 16.9187 171.783C16.9034 171.8 16.8917 171.82 16.8843 171.842C16.8768 171.864 16.8738 171.887 16.8753 171.911C16.8721 171.934 16.8739 171.958 16.8807 171.981C16.8875 172.004 16.899 172.026 16.9145 172.044C16.9301 172.062 16.9493 172.077 16.9709 172.087C16.9925 172.097 17.0161 172.103 17.04 172.104C19.6471 171.916 30.7913 173.444 33.6086 184.032C33.627 184.069 33.6583 184.099 33.6969 184.116C33.7354 184.133 33.7786 184.135 33.8187 184.123Z" fill="white"/>
<path d="M21.1637 178.647C21.2004 178.641 21.2341 178.623 21.2603 178.596C22.3117 177.685 23.5512 177.017 24.8904 176.64C26.2296 176.263 27.6355 176.186 29.0078 176.415C29.0549 176.42 29.1023 176.407 29.1402 176.379C29.1782 176.35 29.2039 176.308 29.2123 176.262C29.2154 176.239 29.214 176.215 29.208 176.192C29.202 176.17 29.1915 176.149 29.1772 176.13C29.163 176.112 29.1451 176.096 29.1248 176.085C29.1045 176.073 29.0821 176.066 29.0589 176.063C27.6324 175.829 26.1719 175.913 24.7816 176.309C23.3914 176.704 22.1056 177.402 21.016 178.352C20.9995 178.368 20.9864 178.388 20.9775 178.409C20.9686 178.431 20.964 178.454 20.964 178.477C20.964 178.5 20.9686 178.523 20.9775 178.545C20.9864 178.566 20.9995 178.586 21.016 178.602C21.036 178.62 21.0595 178.633 21.085 178.641C21.1104 178.648 21.1373 178.651 21.1637 178.647Z" fill="white"/>
<path d="M227.768 145.124L187.201 168.599C186.695 168.854 186.135 168.987 185.568 168.987C185.001 168.987 184.442 168.854 183.935 168.599L113.333 127.845C112.43 127.328 112.43 126.482 113.333 125.965L153.928 102.484C154.434 102.229 154.992 102.097 155.558 102.097C156.124 102.097 156.683 102.229 157.188 102.484L227.768 143.238C228.643 143.761 228.643 144.601 227.768 145.124Z" fill="#37474F"/>
<path d="M206.065 155.887C205.361 156.245 204.582 156.431 203.793 156.431C203.003 156.431 202.225 156.245 201.521 155.887C200.271 155.166 200.271 153.996 201.521 153.274C202.224 152.914 203.003 152.726 203.793 152.726C204.583 152.726 205.362 152.914 206.065 153.274C207.32 153.996 207.32 155.166 206.065 155.887Z" fill="#263238"/>
<path d="M187.173 168.599L227.768 145.124C228.575 144.658 228.66 143.931 228.024 143.42C228.427 143.739 228.759 144.14 228.997 144.596C229.234 145.052 229.373 145.553 229.404 146.067V147.6C229.375 148.169 229.211 148.723 228.927 149.217C228.643 149.711 228.246 150.13 227.768 150.44L187.201 173.916C186.7 174.183 186.139 174.318 185.571 174.308V169.008C186.131 169.008 186.682 168.868 187.173 168.599Z" fill="#455A64"/>
<path d="M113.333 133.15C112.857 132.839 112.46 132.419 112.177 131.926C111.894 131.432 111.731 130.879 111.703 130.31V128.777C111.733 128.262 111.871 127.76 112.109 127.303C112.347 126.845 112.679 126.444 113.083 126.124C112.447 126.647 112.515 127.368 113.333 127.828L183.907 168.582C184.41 168.85 184.973 168.985 185.543 168.974V174.273C184.973 174.284 184.41 174.149 183.907 173.881L113.333 133.15Z" fill="#263238"/>
<path d="M180.397 163.68L218.663 141.528C218.783 141.49 218.888 141.414 218.963 141.312C219.037 141.21 219.077 141.087 219.077 140.96C219.077 140.834 219.037 140.711 218.963 140.609C218.888 140.506 218.783 140.431 218.663 140.392L162.102 107.675C161.799 107.521 161.464 107.441 161.125 107.441C160.785 107.441 160.45 107.521 160.148 107.675L121.864 129.827C121.744 129.866 121.639 129.942 121.564 130.044C121.49 130.146 121.45 130.269 121.45 130.395C121.45 130.522 121.49 130.645 121.564 130.747C121.639 130.849 121.744 130.925 121.864 130.963L178.437 163.68C178.741 163.834 179.076 163.915 179.417 163.915C179.757 163.915 180.093 163.834 180.397 163.68Z" fill="#FAFAFA"/>
<path d="M127.8 130.833L146.078 141.432C146.459 141.625 146.881 141.726 147.308 141.726C147.735 141.726 148.157 141.625 148.538 141.432L180.686 122.875C180.835 122.825 180.964 122.729 181.055 122.602C181.146 122.475 181.195 122.322 181.195 122.165C181.195 122.009 181.146 121.856 181.055 121.729C180.964 121.601 180.835 121.506 180.686 121.455L162.386 110.879C162.004 110.686 161.583 110.585 161.156 110.585C160.729 110.585 160.307 110.686 159.926 110.879L127.8 129.413C127.652 129.463 127.523 129.559 127.431 129.686C127.34 129.814 127.291 129.966 127.291 130.123C127.291 130.28 127.34 130.432 127.431 130.56C127.523 130.687 127.652 130.783 127.8 130.833Z" fill="#EBEBEB"/>
<path d="M141.222 125.784L145.914 126.698C146.207 126.759 146.511 126.731 146.788 126.619L150.764 124.915C151.395 124.642 152.292 124.915 152.281 125.363L152.218 128.203C152.218 128.385 152.366 128.555 152.622 128.663L156.666 130.316C157.308 130.578 157.154 131.151 156.399 131.288L151.656 132.145C151.532 132.157 151.412 132.196 151.304 132.258C151.196 132.321 151.103 132.407 151.031 132.509L149.56 135.241C149.322 135.672 148.328 135.763 147.856 135.394L145.016 133.06C144.789 132.896 144.512 132.813 144.232 132.827L139.274 132.861C138.484 132.861 138.03 132.35 138.501 131.986L141.466 129.714C141.508 129.69 141.545 129.658 141.575 129.619C141.605 129.581 141.627 129.537 141.639 129.49C141.652 129.443 141.655 129.394 141.649 129.346C141.643 129.297 141.627 129.251 141.602 129.209L140.012 126.499C139.762 126.045 140.472 125.636 141.222 125.784Z" fill="#FAFAFA"/>
<path d="M151.656 119.797L161.721 113.986C161.918 113.87 162.14 113.801 162.369 113.785C162.598 113.769 162.827 113.807 163.039 113.895C163.357 114.083 163.283 114.424 162.88 114.656L152.82 120.467C152.622 120.582 152.4 120.65 152.172 120.665C151.944 120.681 151.715 120.644 151.503 120.558C151.185 120.371 151.258 120.03 151.656 119.797Z" fill="#FAFAFA"/>
<path d="M154.201 121.262L164.26 115.452C164.457 115.335 164.679 115.266 164.908 115.251C165.137 115.235 165.366 115.272 165.578 115.361C165.896 115.548 165.828 115.889 165.419 116.122L155.359 121.932C155.161 122.047 154.939 122.115 154.711 122.131C154.483 122.147 154.254 122.11 154.042 122.023C153.718 121.836 153.792 121.495 154.201 121.262Z" fill="#FAFAFA"/>
<path d="M156.734 122.728L166.793 116.917C166.99 116.799 167.212 116.73 167.441 116.714C167.67 116.698 167.9 116.737 168.111 116.826C168.435 117.013 168.361 117.354 167.952 117.587L157.904 123.398C157.706 123.513 157.484 123.58 157.256 123.596C157.027 123.612 156.798 123.575 156.586 123.489C156.257 123.301 156.325 122.96 156.734 122.728Z" fill="#FAFAFA"/>
<path d="M159.267 124.187L169.332 118.382C169.528 118.265 169.749 118.195 169.977 118.179C170.205 118.163 170.434 118.202 170.644 118.291C170.968 118.473 170.894 118.814 170.491 119.052L160.426 124.857C160.229 124.975 160.007 125.045 159.778 125.06C159.549 125.076 159.319 125.038 159.108 124.948C158.79 124.767 158.864 124.426 159.267 124.187Z" fill="#FAFAFA"/>
<path d="M161.806 125.653L171.865 119.848C172.063 119.73 172.285 119.66 172.513 119.645C172.742 119.629 172.972 119.667 173.183 119.757C173.501 119.938 173.433 120.279 173.024 120.518L162.965 126.323C162.768 126.44 162.546 126.51 162.317 126.526C162.088 126.542 161.858 126.503 161.647 126.414C161.312 126.232 161.397 125.891 161.806 125.653Z" fill="#FAFAFA"/>
<path d="M164.339 127.118L174.376 121.313C174.573 121.196 174.795 121.126 175.024 121.11C175.253 121.095 175.482 121.133 175.694 121.223C176.012 121.404 175.944 121.745 175.535 121.984L165.498 127.8C165.301 127.918 165.079 127.987 164.85 128.003C164.621 128.019 164.392 127.98 164.18 127.891C163.862 127.698 163.93 127.357 164.339 127.118Z" fill="#FAFAFA"/>
<path d="M150.355 143.874L151.185 144.357C151.414 144.472 151.667 144.532 151.923 144.532C152.179 144.532 152.432 144.472 152.661 144.357L171.973 133.219C172.382 132.98 172.382 132.599 171.973 132.367L171.138 131.884C170.909 131.769 170.656 131.709 170.4 131.709C170.144 131.709 169.891 131.769 169.662 131.884L150.35 143.022C150.26 143.052 150.183 143.11 150.128 143.187C150.073 143.264 150.044 143.356 150.045 143.45C150.045 143.545 150.076 143.636 150.131 143.713C150.187 143.789 150.266 143.845 150.355 143.874Z" fill="#E0E0E0"/>
<path d="M184.963 123.892L185.793 124.375C186.202 124.608 186.202 124.988 185.793 125.227L178.04 129.703C177.81 129.818 177.558 129.877 177.301 129.877C177.045 129.877 176.792 129.818 176.563 129.703L175.733 129.22C175.325 128.987 175.325 128.606 175.733 128.368L183.464 123.892C183.696 123.773 183.953 123.711 184.214 123.711C184.474 123.711 184.731 123.773 184.963 123.892Z" fill="#E0E0E0"/>
<path d="M155.484 146.822L173.808 157.392C174.189 157.586 174.61 157.686 175.038 157.686C175.465 157.686 175.886 157.586 176.267 157.392L208.416 138.836C208.565 138.785 208.693 138.69 208.785 138.563C208.876 138.435 208.925 138.282 208.925 138.126C208.925 137.969 208.876 137.816 208.785 137.689C208.693 137.562 208.565 137.466 208.416 137.416L190.115 126.84C189.734 126.647 189.313 126.546 188.886 126.546C188.458 126.546 188.037 126.647 187.656 126.84L155.484 145.408C155.338 145.459 155.211 145.555 155.121 145.682C155.032 145.808 154.984 145.96 154.984 146.115C154.984 146.27 155.032 146.421 155.121 146.548C155.211 146.675 155.338 146.77 155.484 146.822Z" fill="#EBEBEB"/>
<path d="M168.923 141.767L173.621 142.687C173.914 142.748 174.218 142.72 174.495 142.607L178.471 140.903C179.107 140.631 180.005 140.903 179.994 141.346L179.931 144.186C179.931 144.368 180.073 144.539 180.329 144.641L184.378 146.294C185.02 146.561 184.861 147.134 184.112 147.271L179.374 148.117C179.251 148.13 179.131 148.17 179.023 148.232C178.916 148.295 178.822 148.379 178.75 148.481L177.278 151.213C177.046 151.644 176.052 151.735 175.574 151.366L172.734 149.032C172.505 148.867 172.227 148.785 171.945 148.799L166.986 148.833C166.202 148.833 165.742 148.322 166.214 147.958L169.179 145.686C169.263 145.636 169.324 145.556 169.351 145.462C169.377 145.368 169.367 145.267 169.321 145.18L167.725 142.471C167.469 142.034 168.179 141.625 168.923 141.767Z" fill="#FAFAFA"/>
<path d="M179.369 135.786L189.428 129.975C189.625 129.859 189.847 129.79 190.076 129.774C190.305 129.759 190.534 129.796 190.746 129.885C191.069 130.072 190.996 130.413 190.587 130.646L180.527 136.456C180.329 136.571 180.107 136.639 179.879 136.655C179.651 136.67 179.422 136.634 179.21 136.547C178.92 136.36 178.96 136.019 179.369 135.786Z" fill="#FAFAFA"/>
<path d="M181.902 137.251L191.984 131.441C192.182 131.324 192.403 131.256 192.632 131.24C192.861 131.224 193.09 131.262 193.302 131.35C193.62 131.537 193.546 131.878 193.143 132.111L183.078 137.922C182.881 138.04 182.66 138.11 182.431 138.128C182.202 138.146 181.973 138.11 181.76 138.024C181.425 137.825 181.499 137.484 181.902 137.251Z" fill="#FAFAFA"/>
<path d="M184.441 138.711L194.5 132.912C194.697 132.794 194.919 132.724 195.148 132.709C195.377 132.693 195.607 132.731 195.818 132.821C196.136 133.002 196.068 133.343 195.659 133.582L185.6 139.387C185.402 139.501 185.18 139.569 184.951 139.585C184.723 139.601 184.494 139.564 184.282 139.478C183.958 139.29 184.032 138.949 184.441 138.711Z" fill="#FAFAFA"/>
<path d="M186.974 140.176L197.034 134.372C197.231 134.254 197.453 134.184 197.682 134.168C197.911 134.153 198.14 134.191 198.351 134.281C198.675 134.462 198.601 134.803 198.192 135.042L188.133 140.864C187.936 140.981 187.714 141.051 187.485 141.067C187.256 141.083 187.027 141.044 186.815 140.955C186.497 140.756 186.565 140.415 186.974 140.176Z" fill="#FAFAFA"/>
<path d="M189.508 141.642L199.573 135.837C199.769 135.719 199.99 135.65 200.218 135.634C200.446 135.618 200.674 135.656 200.885 135.746C201.208 135.928 201.135 136.268 200.731 136.507L190.666 142.312C190.469 142.43 190.247 142.499 190.018 142.515C189.789 142.531 189.56 142.492 189.349 142.403C189.03 142.221 189.104 141.88 189.508 141.642Z" fill="#FAFAFA"/>
<path d="M192.047 143.136L202.106 137.331C202.303 137.213 202.525 137.144 202.754 137.128C202.983 137.112 203.212 137.151 203.424 137.24C203.742 137.422 203.673 137.763 203.265 138.001L193.205 143.806C193.008 143.924 192.786 143.993 192.557 144.009C192.328 144.025 192.099 143.987 191.887 143.897C191.564 143.704 191.638 143.346 192.047 143.136Z" fill="#FAFAFA"/>
<path d="M178.057 159.864L178.892 160.346C179.121 160.461 179.374 160.521 179.63 160.521C179.886 160.521 180.139 160.461 180.368 160.346L199.68 149.208C199.77 149.178 199.848 149.121 199.903 149.045C199.958 148.968 199.988 148.876 199.988 148.782C199.988 148.687 199.958 148.596 199.903 148.519C199.848 148.443 199.77 148.385 199.68 148.356L198.845 147.873C198.616 147.758 198.363 147.698 198.107 147.698C197.851 147.698 197.598 147.758 197.369 147.873L178.057 159.012C177.967 159.041 177.889 159.098 177.834 159.175C177.779 159.251 177.749 159.343 177.749 159.438C177.749 159.532 177.779 159.624 177.834 159.7C177.889 159.777 177.967 159.834 178.057 159.864Z" fill="#E0E0E0"/>
<path d="M212.665 139.881L213.5 140.364C213.909 140.597 213.909 140.977 213.5 141.216L205.747 145.692C205.518 145.807 205.265 145.867 205.008 145.867C204.752 145.867 204.499 145.807 204.27 145.692L203.435 145.209C203.345 145.179 203.267 145.122 203.212 145.046C203.157 144.969 203.127 144.877 203.127 144.783C203.127 144.689 203.157 144.597 203.212 144.52C203.267 144.444 203.345 144.387 203.435 144.357L211.194 139.881C211.422 139.766 211.674 139.707 211.929 139.707C212.185 139.707 212.437 139.766 212.665 139.881Z" fill="#E0E0E0"/>
<path d="M137.047 115.98C136.891 116.056 136.72 116.096 136.547 116.096C136.374 116.096 136.203 116.056 136.047 115.98C135.989 115.959 135.938 115.921 135.902 115.87C135.866 115.819 135.846 115.758 135.846 115.696C135.846 115.633 135.866 115.573 135.902 115.522C135.938 115.471 135.989 115.432 136.047 115.412C136.203 115.336 136.374 115.296 136.547 115.296C136.72 115.296 136.891 115.336 137.047 115.412C137.325 115.565 137.325 115.821 137.047 115.98Z" fill="#263238"/>
<path d="M135.451 120.518C135.141 120.675 134.799 120.756 134.451 120.756C134.104 120.756 133.761 120.675 133.452 120.518C133.339 120.472 133.242 120.393 133.174 120.292C133.106 120.191 133.07 120.072 133.07 119.95C133.07 119.828 133.106 119.709 133.174 119.608C133.242 119.507 133.339 119.428 133.452 119.382C133.761 119.225 134.104 119.144 134.451 119.144C134.799 119.144 135.141 119.225 135.451 119.382C135.564 119.428 135.66 119.507 135.728 119.608C135.796 119.709 135.833 119.828 135.833 119.95C135.833 120.072 135.796 120.191 135.728 120.292C135.66 120.393 135.564 120.472 135.451 120.518Z" fill="#263238"/>
<path d="M136.888 118.507C136.519 118.291 136.542 117.939 136.933 117.712L143.511 113.912C143.725 113.803 143.961 113.746 144.201 113.746C144.441 113.746 144.677 113.803 144.891 113.912C145.255 114.122 145.238 114.48 144.846 114.707L138.268 118.502C138.055 118.61 137.819 118.668 137.579 118.669C137.339 118.67 137.103 118.614 136.888 118.507Z" fill="#263238"/>
<path d="M120.933 62.9401V64.2749L116.321 66.9388L109.402 70.9148L48.3311 106.216C47.9692 106.443 47.6704 106.758 47.462 107.131C47.2376 107.497 47.1123 107.916 47.0985 108.346V189.513C47.0985 193.927 43.9972 195.716 40.1803 193.489C36.3633 191.263 33.2563 185.918 33.2563 181.504V100.332C33.28 99.9046 33.4039 99.4893 33.618 99.1192C33.8322 98.7492 34.1305 98.4348 34.4889 98.2016L102.473 58.9471L109.056 55.1528C109.276 55.5231 109.397 55.9435 109.408 56.374V57.6123L36.795 99.6443C36.4542 99.8558 36.1713 100.149 35.9714 100.496C35.7231 100.878 35.5837 101.319 35.5681 101.774V182.834C35.5681 185.776 37.6356 189.349 40.1859 190.82C42.7363 192.291 44.7981 191.098 44.7981 188.156V106.989C44.8179 106.563 44.9377 106.149 45.148 105.779C45.3582 105.409 45.6529 105.093 46.0079 104.859L120.575 61.8041C120.789 62.146 120.913 62.5371 120.933 62.9401Z" fill="#E0E0E0"/>
<path d="M114.009 59.0324V62.9403L43.736 103.53C43.3749 103.759 43.0731 104.071 42.855 104.439C42.6369 104.807 42.5086 105.221 42.4807 105.648V186.815C42.4807 188.286 41.4527 188.883 40.1803 188.144C39.5104 187.71 38.9524 187.123 38.5517 186.432C38.151 185.742 37.9189 184.966 37.8743 184.168V102.996C37.8889 102.567 38.012 102.149 38.2321 101.78C38.4438 101.41 38.742 101.096 39.1011 100.866L113.663 57.8169C113.878 58.1865 113.998 58.6045 114.009 59.0324Z" fill="#E0E0E0"/>
<path d="M49.7625 108.442C49.5417 108.808 49.4185 109.225 49.4046 109.652V190.121C49.4058 190.706 49.3679 191.29 49.291 191.87C49.2683 192.022 49.2456 192.169 49.2229 192.313C49.2229 192.449 49.1718 192.58 49.1434 192.716C49.115 192.853 49.0866 192.955 49.0525 193.069C49.0184 193.182 48.9957 193.29 48.9616 193.398C48.5853 194.78 47.7008 195.969 46.4851 196.727C44.8322 197.675 42.617 197.562 40.1803 196.159C35.0683 193.216 30.9503 185.741 30.9503 179.471V98.9965C30.9642 98.5692 31.0874 98.1527 31.3082 97.7866L33.6199 99.1157C33.3955 99.4826 33.2702 99.9014 33.2564 100.331V181.498C33.2564 185.912 36.3577 191.279 40.1803 193.483C44.003 195.687 47.0986 193.904 47.0986 189.507V108.323C47.1124 107.893 47.2376 107.474 47.4621 107.108L49.7625 108.442Z" fill="#EBEBEB"/>
<path d="M45.1503 105.779C44.9303 106.145 44.8071 106.561 44.7925 106.989V188.156C44.7925 191.098 42.725 192.291 40.1803 190.82C37.6357 189.349 35.5625 185.776 35.5625 182.834V101.752C35.5781 101.297 35.7175 100.855 35.9658 100.474L38.2378 101.78C38.0177 102.148 37.8946 102.567 37.8799 102.996V184.163C37.9246 184.96 38.1567 185.736 38.5574 186.427C38.9581 187.117 39.516 187.704 40.186 188.139C41.4583 188.877 42.4864 188.281 42.4864 186.81V105.648C42.5003 105.218 42.6255 104.799 42.8499 104.433L45.1503 105.779Z" fill="#EBEBEB"/>
<path d="M109.056 55.1527L102.484 58.947L34.4889 98.2015C34.1258 98.4269 33.8266 98.7418 33.6199 99.1159L31.3081 97.7868C31.5147 97.4111 31.8138 97.0943 32.1771 96.8666L100.167 57.6122L101.479 56.8511L102.808 56.1013L103.944 55.4424L104.62 55.0505L105.875 54.3291C106.241 54.1345 106.648 54.0289 107.063 54.021C107.477 54.0131 107.888 54.1031 108.261 54.2837C108.597 54.4994 108.871 54.7989 109.056 55.1527Z" fill="#FAFAFA"/>
<path d="M125.193 64.4736L118.621 68.2678L107.085 74.9248L50.6372 107.522C50.2735 107.751 49.9728 108.068 49.7625 108.442L47.4905 107.108C47.6939 106.746 47.9824 106.44 48.3311 106.216L109.397 70.9374L116.315 66.9614L120.927 64.2975L122.001 63.6784L122.12 63.6159C122.475 63.4461 122.863 63.3579 123.256 63.3579C123.649 63.3579 124.037 63.4461 124.392 63.6159L124.511 63.6898C124.792 63.8988 125.025 64.1662 125.193 64.4736Z" fill="#FAFAFA"/>
<path d="M113.662 57.8166L39.1011 100.865C38.742 101.096 38.4438 101.409 38.2321 101.78L35.9601 100.473C36.1599 100.126 36.4429 99.8329 36.7837 99.6214L109.397 57.5894L110.465 56.9702C110.831 56.7756 111.237 56.67 111.652 56.6621C112.067 56.6542 112.477 56.7442 112.85 56.9248C113.194 57.1462 113.474 57.4536 113.662 57.8166Z" fill="#FAFAFA"/>
<path d="M120.592 61.8042L46.0079 104.859C45.643 105.086 45.342 105.403 45.1332 105.779L42.8271 104.444C43.0449 104.065 43.3582 103.75 43.7359 103.53L114.032 62.9402L117.44 60.9863C117.806 60.7925 118.213 60.6879 118.628 60.681C119.042 60.6741 119.452 60.7651 119.825 60.9466C120.15 61.1619 120.414 61.4573 120.592 61.8042Z" fill="#FAFAFA"/>
<path d="M125.528 65.695V146.164C125.528 149.464 124.392 151.775 122.557 152.798L46.3772 196.784C47.0516 196.378 47.6366 195.84 48.0965 195.201C48.5564 194.563 48.8816 193.837 49.0525 193.069C49.0866 192.955 49.115 192.836 49.1434 192.717C49.1718 192.598 49.1945 192.45 49.2229 192.314C49.2513 192.177 49.2683 192.024 49.291 191.871C49.3679 191.291 49.4058 190.706 49.4046 190.121V109.653C49.4185 109.225 49.5417 108.809 49.7625 108.443C49.9728 108.068 50.2735 107.752 50.6372 107.523L107.085 74.9307L118.621 68.2737L125.193 64.4795C125.407 64.8493 125.522 65.2678 125.528 65.695Z" fill="#F5F5F5"/>
<path d="M57.5612 108.857L68.9212 102.286C69.6028 101.894 70.1481 102.206 70.1481 102.996V118.803C70.126 119.23 70.0033 119.645 69.7901 120.015C69.5768 120.385 69.2791 120.7 68.9212 120.933L57.5612 127.505C56.8796 127.897 56.3286 127.579 56.3286 126.795V110.987C56.3518 110.56 56.4755 110.145 56.6897 109.775C56.9039 109.404 57.2025 109.09 57.5612 108.857Z" fill="#455A64"/>
<path d="M56.3286 133.542L118.627 97.5767V100.241L56.3286 136.206V133.542Z" fill="#2C557D"/>
<path opacity="0.4" d="M56.3286 133.542L118.627 97.5767V100.241L56.3286 136.206V133.542Z" fill="white"/>
<path d="M57.067 141.108L69.4381 133.969C69.8413 133.73 70.1708 133.923 70.1708 134.395V159.33C70.1575 159.585 70.0843 159.834 69.957 160.056C69.8297 160.278 69.6519 160.467 69.4381 160.608L57.067 167.748C56.6581 167.986 56.3286 167.793 56.3286 167.322V142.386C56.342 142.13 56.4159 141.881 56.5443 141.659C56.6726 141.437 56.8518 141.248 57.067 141.108Z" fill="#F0F0F0"/>
<path d="M57.067 170.4L69.4381 163.255C69.8413 163.022 70.1708 163.215 70.1708 163.681V183.197L56.3286 191.206V171.695C56.3394 171.436 56.412 171.183 56.5405 170.958C56.669 170.733 56.8495 170.541 57.067 170.4Z" fill="#F0F0F0"/>
<path d="M73.2208 131.776L85.5862 124.636C85.9951 124.403 86.3246 124.591 86.3246 125.062V158.006C86.3107 158.262 86.2366 158.511 86.1083 158.733C85.98 158.955 85.8011 159.144 85.5862 159.284L73.2208 166.424C72.8119 166.657 72.4824 166.469 72.4824 165.998V133.054C72.4972 132.798 72.5717 132.549 72.6999 132.327C72.8281 132.105 73.0065 131.916 73.2208 131.776Z" fill="#F0F0F0"/>
<path d="M89.3691 122.461L101.735 115.304C102.143 115.065 102.473 115.259 102.473 115.73V140.665C102.459 140.921 102.386 141.171 102.257 141.393C102.129 141.615 101.95 141.804 101.735 141.943L89.3691 149.1C88.9602 149.339 88.6307 149.145 88.6307 148.674V123.739C88.6442 123.483 88.7181 123.233 88.8464 123.011C88.9748 122.789 89.1539 122.6 89.3691 122.461Z" fill="#F0F0F0"/>
<path d="M105.523 113.134L117.888 105.994C118.297 105.756 118.627 105.949 118.627 106.42V139.364C118.612 139.62 118.538 139.869 118.409 140.091C118.281 140.313 118.103 140.502 117.888 140.642L105.523 147.782C105.114 148.015 104.785 147.828 104.785 147.356V114.412C104.798 114.156 104.872 113.907 105 113.685C105.129 113.462 105.308 113.274 105.523 113.134Z" fill="#F0F0F0"/>
<path d="M73.2208 169.082L85.5862 161.942C85.9951 161.704 86.3246 161.897 86.3246 162.368V173.887L72.4824 181.885V170.36C72.4958 170.104 72.5698 169.854 72.6981 169.632C72.8264 169.41 73.0056 169.222 73.2208 169.082Z" fill="#F0F0F0"/>
<path d="M88.608 153.042V172.559L102.45 164.567V145.05C102.45 144.579 102.121 144.391 101.712 144.624L89.3464 151.764C89.1315 151.904 88.9526 152.093 88.8243 152.315C88.696 152.537 88.6219 152.786 88.608 153.042Z" fill="#F0F0F0"/>
<path d="M105.517 150.435L117.888 143.295C118.297 143.056 118.627 143.249 118.627 143.721V155.24L104.785 163.232V151.713C104.798 151.457 104.871 151.208 104.998 150.986C105.126 150.764 105.304 150.575 105.517 150.435Z" fill="#F0F0F0"/>
<path d="M75.5439 170.4L83.2971 165.924C83.7061 165.686 84.0355 165.879 84.0355 166.35V172.672C84.0221 172.928 83.9482 173.178 83.8199 173.4C83.6915 173.622 83.5124 173.81 83.2971 173.95L75.5439 178.414C75.135 178.647 74.8055 178.46 74.8055 177.988V171.701C74.8154 171.441 74.8876 171.187 75.0161 170.96C75.1446 170.734 75.3257 170.542 75.5439 170.4Z" fill="#E0E0E0"/>
<path d="M107.829 151.775L115.582 147.299C115.986 147.061 116.321 147.254 116.321 147.725V154.013C116.305 154.269 116.231 154.517 116.103 154.739C115.974 154.961 115.796 155.15 115.582 155.291L107.829 159.767C107.42 160 107.091 159.812 107.091 159.341V153.053C107.104 152.797 107.178 152.547 107.306 152.325C107.435 152.103 107.614 151.915 107.829 151.775Z" fill="#E0E0E0"/>
<path d="M59.373 142.443L67.1262 137.962C67.5352 137.729 67.8646 137.922 67.8646 138.388V144.681C67.8499 144.937 67.7754 145.186 67.6472 145.408C67.519 145.63 67.3405 145.819 67.1262 145.959L59.373 150.435C58.9698 150.668 58.6346 150.48 58.6346 150.009V143.704C58.6511 143.451 58.7265 143.205 58.8546 142.986C58.9828 142.767 59.1603 142.581 59.373 142.443Z" fill="#E0E0E0"/>
<path d="M59.1288 151.906L67.3762 147.146C67.6488 146.993 67.8646 147.118 67.8646 147.43V147.629C67.856 147.799 67.8072 147.965 67.7223 148.113C67.6375 148.261 67.5189 148.387 67.3762 148.481L59.1288 153.241C58.8562 153.4 58.6346 153.241 58.6346 152.957V152.758C58.6444 152.587 58.6942 152.421 58.7801 152.273C58.8659 152.125 58.9854 151.999 59.1288 151.906Z" fill="#E0E0E0"/>
<path d="M59.1288 154.57L67.3762 149.81C67.6488 149.657 67.8646 149.782 67.8646 150.094V150.293C67.856 150.463 67.8072 150.629 67.7223 150.777C67.6375 150.925 67.5189 151.051 67.3762 151.145L59.1288 155.905C58.8562 156.064 58.6346 155.905 58.6346 155.621V155.422C58.6444 155.251 58.6942 155.085 58.7801 154.937C58.8659 154.789 58.9854 154.663 59.1288 154.57Z" fill="#E0E0E0"/>
<path d="M59.1288 157.233L67.3762 152.474C67.6488 152.32 67.8646 152.445 67.8646 152.758V152.956C67.856 153.127 67.8072 153.293 67.7223 153.441C67.6375 153.589 67.5189 153.715 67.3762 153.808L59.1288 158.568C58.8562 158.727 58.6346 158.597 58.6346 158.284V158.085C58.6444 157.915 58.6942 157.749 58.7801 157.6C58.8659 157.452 58.9854 157.327 59.1288 157.233Z" fill="#E0E0E0"/>
<path d="M59.1288 159.898L67.3762 155.138C67.6488 154.984 67.8646 155.109 67.8646 155.422V155.632C67.856 155.802 67.8072 155.968 67.7223 156.116C67.6375 156.264 67.5189 156.39 67.3762 156.484L59.1288 161.244C58.8562 161.403 58.6346 161.272 58.6346 160.96V160.744C58.6453 160.574 58.6955 160.409 58.7813 160.262C58.8671 160.115 58.9861 159.99 59.1288 159.898Z" fill="#E0E0E0"/>
<path d="M59.1288 162.562L67.3762 157.802C67.6488 157.648 67.8646 157.773 67.8646 158.086V158.285C67.856 158.455 67.8072 158.621 67.7223 158.769C67.6375 158.917 67.5189 159.043 67.3762 159.137L59.1288 163.896C58.8562 164.055 58.6346 163.925 58.6346 163.612V163.414C58.6444 163.243 58.6942 163.077 58.7801 162.929C58.8659 162.781 58.9854 162.655 59.1288 162.562Z" fill="#E0E0E0"/>
<path d="M75.5439 133.116L83.2971 128.64C83.7061 128.402 84.0355 128.595 84.0355 129.066V135.354C84.0217 135.61 83.9476 135.86 83.8193 136.082C83.691 136.304 83.5121 136.492 83.2971 136.632L75.5439 141.108C75.135 141.341 74.8055 141.154 74.8055 140.682V134.394C74.819 134.138 74.8929 133.889 75.0212 133.667C75.1496 133.444 75.3287 133.256 75.5439 133.116Z" fill="#E0E0E0"/>
<path d="M75.2771 142.568L83.5244 137.808C83.7971 137.649 84.0186 137.774 84.0186 138.092V138.285C84.0093 138.456 83.9596 138.623 83.8738 138.771C83.7879 138.919 83.6682 139.044 83.5244 139.137L75.2771 143.897C75.0101 144.056 74.7886 143.897 74.7886 143.613V143.42C74.7973 143.25 74.846 143.084 74.9309 142.936C75.0158 142.788 75.1344 142.662 75.2771 142.568Z" fill="#E0E0E0"/>
<path d="M75.2771 145.249L83.5244 140.489C83.7971 140.33 84.0186 140.455 84.0186 140.773V140.966C84.0093 141.137 83.9596 141.303 83.8738 141.451C83.7879 141.599 83.6682 141.725 83.5244 141.818L75.2771 146.578C75.0101 146.737 74.7886 146.606 74.7886 146.294V146.101C74.7973 145.93 74.846 145.764 74.9309 145.616C75.0158 145.468 75.1344 145.342 75.2771 145.249Z" fill="#E0E0E0"/>
<path d="M75.2771 147.913L83.5244 143.136C83.7971 142.977 84.0186 143.102 84.0186 143.42V143.613C84.0093 143.784 83.9596 143.95 83.8738 144.098C83.7879 144.246 83.6682 144.372 83.5244 144.465L75.2771 149.225C75.0101 149.384 74.7886 149.253 74.7886 148.941V148.748C74.7999 148.58 74.8498 148.418 74.9346 148.273C75.0194 148.128 75.1366 148.005 75.2771 147.913Z" fill="#E0E0E0"/>
<path d="M75.2771 150.577L83.5244 145.817C83.7971 145.658 84.0186 145.783 84.0186 146.101V146.294C84.0093 146.465 83.9596 146.631 83.8738 146.779C83.7879 146.928 83.6682 147.053 83.5244 147.146L75.2771 151.906C75.0101 152.065 74.7886 151.934 74.7886 151.622V151.429C74.7973 151.258 74.846 151.092 74.9309 150.944C75.0158 150.796 75.1344 150.67 75.2771 150.577Z" fill="#E0E0E0"/>
<path d="M75.2771 153.241L83.5244 148.481C83.7971 148.322 84.0186 148.447 84.0186 148.765V148.958C84.0093 149.129 83.9596 149.295 83.8738 149.443C83.7879 149.592 83.6682 149.717 83.5244 149.81L75.2771 154.57C75.0101 154.729 74.7886 154.598 74.7886 154.286V154.093C74.7973 153.922 74.846 153.756 74.9309 153.608C75.0158 153.46 75.1344 153.334 75.2771 153.241Z" fill="#E0E0E0"/>
<path d="M75.2771 155.904L83.5244 151.145C83.7971 150.986 84.0186 151.116 84.0186 151.429V151.622C84.0102 151.793 83.9609 151.959 83.875 152.108C83.789 152.256 83.6688 152.381 83.5244 152.474L75.2771 157.234C75.0101 157.393 74.7886 157.268 74.7886 156.95V156.768C74.7968 156.596 74.8453 156.428 74.9302 156.278C75.015 156.128 75.1338 156 75.2771 155.904Z" fill="#E0E0E0"/>
<path d="M75.2771 158.568L83.5244 153.809C83.7971 153.65 84.0186 153.78 84.0186 154.093V154.286C84.0102 154.457 83.9609 154.624 83.875 154.772C83.789 154.92 83.6688 155.045 83.5244 155.138L75.2771 159.898C75.0101 160.057 74.7886 159.932 74.7886 159.614V159.42C74.7986 159.25 74.8479 159.085 74.9326 158.937C75.0174 158.789 75.1353 158.663 75.2771 158.568Z" fill="#E0E0E0"/>
<path d="M75.2771 161.233L83.5244 156.473C83.7971 156.314 84.0186 156.444 84.0186 156.757V156.95C84.0102 157.121 83.9609 157.288 83.875 157.436C83.789 157.584 83.6688 157.71 83.5244 157.802L75.2771 162.562C75.0101 162.721 74.7886 162.596 74.7886 162.278V162.085C74.7986 161.914 74.8479 161.749 74.9326 161.601C75.0174 161.453 75.1353 161.327 75.2771 161.233Z" fill="#E0E0E0"/>
<path d="M59.373 171.752L67.1262 167.27C67.5352 167.037 67.8646 167.23 67.8646 167.696V173.99C67.8508 174.246 67.7767 174.495 67.6484 174.717C67.5201 174.939 67.3412 175.128 67.1262 175.268L59.373 179.744C58.9698 179.976 58.6346 179.789 58.6346 179.318V173.03C58.6485 172.774 58.7226 172.524 58.8509 172.302C58.9792 172.08 59.1581 171.892 59.373 171.752Z" fill="#E0E0E0"/>
<path d="M59.1288 181.192L67.3762 176.432C67.6488 176.279 67.8646 176.404 67.8646 176.716V176.915C67.856 177.085 67.8072 177.251 67.7223 177.399C67.6375 177.547 67.5189 177.673 67.3762 177.767L59.1288 182.527C58.8562 182.686 58.6346 182.555 58.6346 182.243V182.044C58.6444 181.873 58.6942 181.707 58.7801 181.559C58.8659 181.411 58.9854 181.285 59.1288 181.192Z" fill="#E0E0E0"/>
<path d="M59.1288 183.878L67.3762 179.119C67.6488 178.965 67.8646 179.09 67.8646 179.403V179.601C67.856 179.772 67.8072 179.938 67.7223 180.086C67.6375 180.234 67.5189 180.36 67.3762 180.453L59.1288 185.213C58.8562 185.372 58.6346 185.242 58.6346 184.929V184.73C58.6444 184.56 58.6942 184.394 58.7801 184.246C58.8659 184.098 58.9854 183.972 59.1288 183.878Z" fill="#E0E0E0"/>
<path d="M59.1288 186.548L67.3762 181.76C67.6488 181.606 67.8646 181.731 67.8646 182.044V182.243C67.856 182.413 67.8072 182.579 67.7223 182.727C67.6375 182.875 67.5189 183.001 67.3762 183.095L59.1288 187.854C58.8562 188.013 58.6346 187.883 58.6346 187.57V187.377C58.6465 187.21 58.6974 187.048 58.7832 186.904C58.8691 186.76 58.9874 186.638 59.1288 186.548Z" fill="#E0E0E0"/>
<path d="M91.6752 123.79L99.4284 119.314C99.8373 119.081 100.167 119.269 100.167 119.74V126.028C100.153 126.284 100.079 126.534 99.9511 126.756C99.8227 126.978 99.6436 127.166 99.4284 127.306L91.6752 131.776C91.2719 132.009 90.9368 131.816 90.9368 131.35V125.068C90.9524 124.812 91.0272 124.564 91.1554 124.342C91.2835 124.12 91.4615 123.931 91.6752 123.79Z" fill="#E0E0E0"/>
<path d="M91.448 133.258L99.6954 128.499C99.9623 128.345 100.184 128.499 100.184 128.783V128.981C100.174 129.152 100.125 129.317 100.04 129.465C99.955 129.613 99.8371 129.739 99.6954 129.833L91.448 134.616C91.1754 134.769 90.9539 134.616 90.9539 134.332V134.133C90.9601 133.958 91.0082 133.788 91.0942 133.636C91.1802 133.483 91.3016 133.354 91.448 133.258Z" fill="#E0E0E0"/>
<path d="M91.448 135.923L99.6954 131.163C99.9623 131.009 100.184 131.163 100.184 131.447V131.645C100.174 131.816 100.125 131.981 100.04 132.129C99.955 132.277 99.8371 132.403 99.6954 132.497L91.448 137.257C91.1754 137.411 90.9539 137.257 90.9539 136.973V136.775C90.9636 136.604 91.0134 136.438 91.0993 136.29C91.1851 136.142 91.3046 136.016 91.448 135.923Z" fill="#E0E0E0"/>
<path d="M91.448 138.592L99.6954 133.832C99.9623 133.679 100.184 133.804 100.184 134.116V134.315C100.174 134.485 100.125 134.65 100.04 134.798C99.955 134.946 99.8371 135.072 99.6954 135.167L91.448 139.921C91.1754 140.074 90.9539 139.921 90.9539 139.637V139.438C90.9645 139.268 91.0147 139.103 91.1005 138.956C91.1863 138.809 91.3053 138.685 91.448 138.592Z" fill="#E0E0E0"/>
<path d="M91.448 141.25L99.6954 136.49C99.9623 136.337 100.184 136.462 100.184 136.774V136.973C100.174 137.143 100.125 137.309 100.04 137.456C99.955 137.604 99.8371 137.73 99.6954 137.825L91.448 142.568C91.1754 142.721 90.9539 142.596 90.9539 142.284V142.085C90.9662 141.917 91.0172 141.754 91.103 141.61C91.1887 141.465 91.3068 141.342 91.448 141.25Z" fill="#E0E0E0"/>
<path d="M91.448 143.914L99.6783 139.16C99.9453 139.007 100.167 139.132 100.167 139.444V139.643C100.157 139.813 100.107 139.979 100.023 140.126C99.938 140.274 99.8201 140.4 99.6783 140.495L91.448 145.249C91.1754 145.402 90.9539 145.278 90.9539 144.965V144.766C90.9636 144.595 91.0134 144.429 91.0993 144.281C91.1851 144.133 91.3046 144.008 91.448 143.914Z" fill="#E0E0E0"/>
<path d="M107.829 114.469L115.582 109.993C115.986 109.754 116.321 109.948 116.321 110.419V116.707C116.305 116.963 116.231 117.211 116.103 117.433C115.974 117.655 115.796 117.844 115.582 117.985L107.829 122.461C107.42 122.693 107.091 122.506 107.091 122.035V115.747C107.104 115.491 107.178 115.241 107.306 115.019C107.435 114.797 107.614 114.608 107.829 114.469Z" fill="#E0E0E0"/>
<path d="M107.579 123.932L115.827 119.172C116.099 119.019 116.321 119.143 116.321 119.456V119.655C116.311 119.825 116.261 119.992 116.175 120.14C116.089 120.288 115.97 120.413 115.827 120.507L107.579 125.267C107.312 125.426 107.091 125.295 107.091 124.983V124.784C107.101 124.614 107.15 124.448 107.235 124.3C107.32 124.152 107.437 124.026 107.579 123.932Z" fill="#E0E0E0"/>
<path d="M107.579 126.601L115.827 121.836C116.099 121.683 116.321 121.808 116.321 122.12V122.319C116.311 122.49 116.261 122.656 116.175 122.804C116.089 122.952 115.97 123.077 115.827 123.171L107.579 127.931C107.312 128.09 107.091 127.959 107.091 127.647V127.453C107.099 127.283 107.148 127.117 107.233 126.969C107.318 126.821 107.436 126.695 107.579 126.601Z" fill="#E0E0E0"/>
<path d="M107.579 129.266L115.827 124.5C116.099 124.347 116.321 124.472 116.321 124.784V124.96C116.311 125.131 116.261 125.297 116.175 125.445C116.089 125.593 115.97 125.719 115.827 125.812L107.579 130.572C107.312 130.731 107.091 130.6 107.091 130.288V130.095C107.103 129.928 107.153 129.767 107.238 129.623C107.323 129.479 107.439 129.357 107.579 129.266Z" fill="#E0E0E0"/>
<path d="M107.579 131.929L115.827 127.164C116.099 127.01 116.321 127.164 116.321 127.448V127.646C116.311 127.817 116.261 127.983 116.175 128.131C116.089 128.279 115.97 128.405 115.827 128.498L107.579 133.258C107.312 133.417 107.091 133.258 107.091 132.974V132.781C107.099 132.611 107.148 132.445 107.233 132.297C107.318 132.149 107.436 132.023 107.579 131.929Z" fill="#E0E0E0"/>
<path d="M107.579 134.616L115.827 129.851C116.099 129.697 116.321 129.851 116.321 130.135V130.333C116.311 130.504 116.261 130.67 116.175 130.818C116.089 130.966 115.97 131.092 115.827 131.185L107.579 135.923C107.312 136.082 107.091 135.923 107.091 135.639V135.445C107.103 135.279 107.153 135.118 107.238 134.974C107.323 134.83 107.439 134.707 107.579 134.616Z" fill="#E0E0E0"/>
<path d="M107.579 137.257L115.827 132.497C116.099 132.338 116.321 132.463 116.321 132.781V132.974C116.311 133.145 116.262 133.312 116.176 133.46C116.09 133.608 115.97 133.733 115.827 133.826L107.579 138.592C107.312 138.751 107.091 138.592 107.091 138.308V138.115C107.099 137.943 107.147 137.776 107.232 137.627C107.317 137.478 107.436 137.351 107.579 137.257Z" fill="#E0E0E0"/>
<path d="M107.579 139.921L115.827 135.184C116.099 135.025 116.321 135.15 116.321 135.468V135.661C116.311 135.832 116.262 135.999 116.176 136.147C116.09 136.295 115.97 136.42 115.827 136.513L107.579 141.273C107.312 141.432 107.091 141.273 107.091 140.989V140.796C107.096 140.622 107.144 140.451 107.229 140.299C107.314 140.147 107.434 140.017 107.579 139.921Z" fill="#E0E0E0"/>
<path d="M107.579 142.568L115.827 137.808C116.099 137.649 116.321 137.774 116.321 138.092V138.285C116.311 138.456 116.262 138.623 116.176 138.771C116.09 138.919 115.97 139.044 115.827 139.137L107.579 143.897C107.312 144.056 107.091 143.931 107.091 143.613V143.42C107.1 143.25 107.149 143.084 107.234 142.936C107.318 142.788 107.437 142.662 107.579 142.568Z" fill="#E0E0E0"/>
<path d="M91.6752 153.099L99.4284 148.623C99.8373 148.39 100.167 148.577 100.167 149.049V155.337C100.153 155.593 100.079 155.842 99.9511 156.064C99.8227 156.286 99.6436 156.475 99.4284 156.615L91.6752 161.096C91.2719 161.329 90.9368 161.136 90.9368 160.67V154.377C90.9524 154.121 91.0272 153.872 91.1554 153.651C91.2835 153.429 91.4615 153.24 91.6752 153.099Z" fill="#E0E0E0"/>
<path d="M91.448 162.567L99.6954 157.808C99.9623 157.654 100.184 157.779 100.184 158.092V158.29C100.174 158.461 100.125 158.626 100.04 158.774C99.955 158.922 99.8371 159.048 99.6954 159.142L91.448 163.902C91.1754 164.056 90.9539 163.931 90.9539 163.618V163.419C90.9636 163.249 91.0134 163.083 91.0993 162.934C91.1851 162.786 91.3046 162.661 91.448 162.567Z" fill="#E0E0E0"/>
<path d="M91.448 165.231L99.6954 160.471C99.9623 160.318 100.184 160.471 100.184 160.755V160.954C100.174 161.124 100.125 161.29 100.04 161.437C99.955 161.585 99.8371 161.711 99.6954 161.806L91.448 166.566C91.1754 166.719 90.9539 166.594 90.9539 166.282V166.083C90.9636 165.912 91.0134 165.746 91.0993 165.598C91.1851 165.45 91.3046 165.324 91.448 165.231Z" fill="#E0E0E0"/>
<path d="M91.448 167.895L99.6954 163.135C99.9623 162.982 100.184 163.135 100.184 163.419V163.618C100.174 163.788 100.125 163.954 100.04 164.102C99.955 164.249 99.8371 164.376 99.6954 164.47L91.448 169.23C91.1754 169.383 90.9539 169.258 90.9539 168.946V168.747C90.9636 168.576 91.0134 168.41 91.0993 168.262C91.1851 168.114 91.3046 167.988 91.448 167.895Z" fill="#E0E0E0"/>
<path d="M75.1464 115.906C75.0328 115.868 74.976 115.76 74.976 115.582C74.9828 115.409 75.0173 115.239 75.0782 115.077L75.6916 113.123C75.7307 112.946 75.8194 112.785 75.9472 112.657C75.989 112.634 76.0359 112.622 76.0836 112.622C76.1312 112.622 76.1781 112.634 76.2199 112.657C76.5357 112.789 76.8797 112.84 77.2202 112.804C77.5606 112.768 77.8866 112.647 78.1681 112.452C78.6759 112.156 79.0743 111.704 79.3041 111.163C79.5697 110.499 79.6954 109.788 79.6733 109.073V97.6163C79.6627 97.2856 79.7228 96.9564 79.8494 96.6507C79.9856 96.3687 80.2085 96.1378 80.4856 95.9918L81.7465 95.2648C82.0305 95.1001 82.235 95.0773 82.3543 95.2023C82.5044 95.428 82.5689 95.7 82.536 95.9691V107.465C82.5564 109.079 82.2148 110.676 81.5364 112.14C80.9181 113.488 79.8958 114.609 78.6111 115.349C77.2442 116.141 76.0892 116.326 75.1464 115.906Z" fill="#455A64"/>
<path d="M85.376 109.005C84.3574 107.96 83.8481 105.959 83.8481 103.001C83.7901 100.333 84.3114 97.684 85.376 95.2367C86.2836 93.1435 87.8331 91.3931 89.8008 90.2383C91.7263 89.1023 93.2087 89.1023 94.2141 90.136C95.2195 91.1698 95.742 93.1748 95.742 96.1341C95.8 98.8023 95.2787 101.451 94.2141 103.899C93.3088 105.988 91.7635 107.737 89.8008 108.891C87.8696 110.005 86.3946 110.043 85.376 109.005ZM92.1466 102.848C92.7245 101.207 92.9941 99.4743 92.9418 97.7359C92.9418 95.6873 92.6767 94.2938 92.1466 93.5554C91.6183 92.817 90.8402 92.7488 89.8008 93.3452C88.6988 94.0206 87.8641 95.056 87.4379 96.2761C86.8612 97.9167 86.5935 99.65 86.6483 101.388C86.6483 103.433 86.9096 104.83 87.4379 105.563C87.9661 106.296 88.7556 106.369 89.8008 105.762C90.8979 105.093 91.7275 104.063 92.1466 102.848Z" fill="#455A64"/>
<path d="M97.3211 103.882C97.1712 103.662 97.1065 103.396 97.1393 103.132V87.5516C97.1299 87.2186 97.1919 86.8874 97.3211 86.5804C97.4388 86.3168 97.6379 86.0978 97.8891 85.9556L102.887 83.0644C104.145 82.3412 105.091 82.2427 105.727 82.7691C106.364 83.2954 106.676 84.3368 106.665 85.8931C106.665 86.7164 106.537 87.5348 106.284 88.3184C106.063 89.0453 105.707 89.7237 105.233 90.3178C106.403 90.2383 106.988 91.2228 106.988 93.2714C106.988 94.2766 106.837 95.2761 106.54 96.2364C106.241 97.2055 105.778 98.1161 105.171 98.9287C104.562 99.7468 103.788 100.428 102.899 100.928L97.9004 103.819C97.6335 103.973 97.4404 103.995 97.3211 103.882ZM102.433 90.5677C102.889 90.3009 103.256 89.9058 103.49 89.4317C103.755 88.8897 103.886 88.2914 103.87 87.688C103.87 86.9723 103.751 86.552 103.518 86.3532C103.285 86.1544 102.922 86.2396 102.433 86.5179L99.968 87.9492V92.0161L102.433 90.5677ZM102.706 97.8722C103.213 97.5862 103.612 97.1411 103.842 96.6056C104.092 96.0288 104.218 95.4055 104.211 94.7766C104.211 94.0268 104.069 93.544 103.785 93.3339C103.501 93.1237 103.098 93.1635 102.586 93.4588L99.968 94.964V99.4569L102.706 97.8722Z" fill="#455A64"/>
<path d="M109.516 97.0711C108.868 97.2611 108.176 97.2332 107.545 96.9916C107.471 96.9591 107.407 96.9061 107.362 96.8386C107.317 96.7712 107.291 96.6922 107.29 96.611C107.297 96.4693 107.326 96.3295 107.375 96.1964L108.079 94.0834C108.108 93.9319 108.186 93.7941 108.301 93.6915C108.34 93.6706 108.384 93.6597 108.428 93.6597C108.473 93.6597 108.517 93.6706 108.556 93.6915C109.029 93.8179 109.524 93.8374 110.005 93.7483C110.588 93.6436 111.147 93.4359 111.657 93.1349C112.249 92.8161 112.754 92.3579 113.129 91.8001C113.457 91.254 113.623 90.6253 113.606 89.9882C113.634 89.6316 113.553 89.2747 113.373 88.9658C113.207 88.7488 112.962 88.606 112.691 88.5682C112.23 88.5066 111.765 88.4763 111.3 88.4773C110.675 88.4919 110.052 88.4192 109.448 88.2614C108.926 88.1024 108.482 87.7539 108.204 87.2845C107.832 86.5878 107.663 85.8006 107.716 85.0125C107.695 83.4336 108.103 81.8788 108.897 80.5139C109.636 79.2182 110.707 78.1421 111.998 77.3956C113.702 76.413 114.992 76.1574 115.889 76.6174C115.961 76.6539 116.022 76.708 116.066 76.7746C116.111 76.8412 116.138 76.9181 116.145 76.998C116.137 77.1397 116.109 77.2795 116.059 77.4126L115.361 79.5256C115.333 79.6757 115.255 79.8118 115.139 79.9118C115.1 79.9343 115.056 79.9461 115.012 79.9461C114.967 79.9461 114.923 79.9343 114.884 79.9118C114.191 79.6127 113.35 79.7471 112.362 80.3151C111.792 80.6087 111.317 81.057 110.99 81.6086C110.663 82.1602 110.499 82.7927 110.516 83.4334C110.49 83.7769 110.565 84.1203 110.732 84.4218C110.862 84.6229 111.066 84.7654 111.3 84.8194C111.689 84.8899 112.085 84.9222 112.481 84.9159H112.958C113.623 84.9185 114.283 85.0199 114.918 85.217C115.403 85.3937 115.799 85.755 116.02 86.2223C116.315 86.9416 116.445 87.718 116.4 88.4943C116.401 89.9965 116.01 91.4729 115.264 92.777C114.503 94.1289 113.383 95.2436 112.027 95.9976C111.251 96.4846 110.404 96.8468 109.516 97.0711Z" fill="#455A64"/>
<path d="M180.493 42.4126L178.187 41.0778C178.02 41 177.835 40.9684 177.651 40.9864C177.467 41.0043 177.291 41.0712 177.142 41.1801L147.794 58.1633C147.365 58.4441 147.008 58.8217 146.751 59.2656C146.495 59.7095 146.346 60.2074 146.317 60.7193V121.211C146.297 121.394 146.327 121.579 146.403 121.747C146.479 121.915 146.598 122.059 146.748 122.166L149.02 123.495H149.055C149.218 123.561 149.395 123.584 149.57 123.563C149.744 123.542 149.911 123.478 150.054 123.375L157.807 118.9V123.563C157.807 124.386 157.938 124.864 158.154 124.994L160.426 126.318C160.687 126.46 161.068 126.096 161.494 125.182L166.992 113.538L179.357 106.358C179.786 106.077 180.143 105.7 180.4 105.256C180.656 104.812 180.805 104.314 180.834 103.802V43.3612C180.862 43.1871 180.846 43.0088 180.786 42.8428C180.727 42.6769 180.626 42.5288 180.493 42.4126Z" fill="#2C557D"/>
<path opacity="0.4" d="M180.437 42.3787C180.273 42.3203 180.098 42.3017 179.927 42.3245C179.755 42.3472 179.591 42.4106 179.448 42.5093L150.094 59.4982C149.668 59.7635 149.316 60.1329 149.072 60.5717L146.766 59.2369C147.008 58.7969 147.36 58.4271 147.788 58.1634L177.136 41.1745C177.334 41.0535 177.559 40.985 177.79 40.9757C177.926 40.9731 178.062 41.0064 178.182 41.0723L180.437 42.3787Z" fill="white"/>
<path opacity="0.2" d="M158.194 125.017C157.983 124.886 157.853 124.409 157.853 123.586V118.928L160.176 117.576V124.903C160.176 125.687 160.295 126.164 160.483 126.323L158.194 125.017Z" fill="black"/>
<path opacity="0.1" d="M149.066 123.5L146.76 122.171C146.613 122.064 146.496 121.92 146.421 121.753C146.347 121.587 146.316 121.404 146.334 121.223V60.7193C146.354 60.1942 146.511 59.6834 146.788 59.2368L149.094 60.5716C148.819 61.0185 148.664 61.5294 148.646 62.0541V122.546C148.624 122.728 148.652 122.913 148.726 123.08C148.8 123.248 148.917 123.393 149.066 123.5Z" fill="black"/>
<path d="M154.462 62.2984L175.075 50.3704C175.756 49.9785 176.307 50.2966 176.307 51.0804V64.1842C176.284 64.612 176.16 65.0283 175.946 65.3993C175.732 65.7704 175.433 66.0858 175.075 66.3199L154.462 78.2479C153.786 78.6398 153.235 78.3217 153.235 77.5379V64.4284C153.258 64.0021 153.382 63.5873 153.595 63.2173C153.808 62.8474 154.105 62.5326 154.462 62.2984Z" fill="white"/>
<path d="M176.307 69.6313C176.277 70.0451 176.15 70.4459 175.936 70.8013C175.722 71.1566 175.426 71.4563 175.075 71.6761L154.462 83.5757C153.786 83.9676 153.235 83.6893 153.235 82.9509C153.266 82.5387 153.393 82.1395 153.606 81.7853C153.819 81.4312 154.112 81.132 154.462 80.9118L175.075 69.0122C175.756 68.6202 176.307 68.8986 176.307 69.6313Z" fill="white"/>
<path d="M176.307 74.9762C176.277 75.39 176.15 75.7909 175.936 76.1462C175.722 76.5015 175.426 76.8012 175.075 77.021L154.462 88.949C153.786 89.3409 153.235 89.0626 153.235 88.3242C153.266 87.912 153.393 87.5128 153.606 87.1586C153.819 86.8045 154.112 86.5053 154.462 86.2851L175.075 74.3571C175.756 73.9481 176.307 74.2265 176.307 74.9762Z" fill="white"/>
<path d="M176.307 80.2871C176.277 80.7008 176.15 81.1017 175.936 81.457C175.722 81.8123 175.426 82.1121 175.075 82.3319L154.462 94.2598C153.786 94.6518 153.235 94.3735 153.235 93.6351C153.266 93.2229 153.393 92.8236 153.606 92.4695C153.819 92.1153 154.112 91.8161 154.462 91.5959L175.075 79.6679C175.756 79.276 176.307 79.5543 176.307 80.2871Z" fill="white"/>
<path d="M176.307 85.6148C176.277 86.0286 176.15 86.4295 175.936 86.7848C175.722 87.1401 175.426 87.4398 175.075 87.6596L154.462 99.5592C153.786 99.9511 153.235 99.6728 153.235 98.9344C153.266 98.5222 153.393 98.123 153.606 97.7688C153.819 97.4147 154.112 97.1155 154.462 96.8953L175.075 84.9673C175.756 84.6321 176.307 84.8821 176.307 85.6148Z" fill="white"/>
<path d="M153.235 104.268C153.235 105.001 153.803 105.279 154.462 104.887L156.62 103.643C156.97 103.423 157.263 103.124 157.476 102.77C157.689 102.415 157.816 102.016 157.847 101.604C157.847 100.866 157.279 100.587 156.62 100.979L154.462 102.223C154.111 102.444 153.818 102.744 153.605 103.099C153.391 103.454 153.265 103.855 153.235 104.268Z" fill="white"/>
<path d="M160.971 99.8093C160.971 100.542 161.539 100.82 162.204 100.428L175.075 92.9876C175.427 92.7678 175.722 92.4681 175.936 92.1128C176.15 91.7575 176.277 91.3566 176.307 90.9428C176.307 90.2101 175.739 89.9318 175.075 90.3237L162.204 97.7645C161.852 97.9843 161.557 98.284 161.343 98.6393C161.128 98.9946 161.001 99.3955 160.971 99.8093Z" fill="white"/>
<path d="M153.235 109.624C153.235 110.357 153.803 110.635 154.462 110.243L156.62 108.999C156.97 108.779 157.263 108.48 157.476 108.126C157.689 107.771 157.816 107.372 157.847 106.96C157.847 106.222 157.279 105.943 156.62 106.335L154.462 107.579C154.111 107.8 153.818 108.1 153.605 108.455C153.391 108.81 153.265 109.211 153.235 109.624Z" fill="white"/>
<path d="M160.971 105.137C160.971 105.87 161.539 106.148 162.204 105.756L175.075 98.3152C175.427 98.0955 175.722 97.7957 175.936 97.4404C176.15 97.0851 176.277 96.6842 176.307 96.2705C176.307 95.5377 175.739 95.2594 175.075 95.6513L162.204 103.092C161.852 103.312 161.557 103.612 161.343 103.967C161.128 104.322 161.001 104.723 160.971 105.137Z" fill="white"/>
<path d="M153.235 114.924C153.235 115.656 153.803 115.935 154.462 115.543L156.62 114.299C156.97 114.079 157.263 113.78 157.476 113.425C157.689 113.071 157.816 112.672 157.847 112.26C157.847 111.521 157.279 111.243 156.62 111.635L154.462 112.879C154.111 113.1 153.818 113.4 153.605 113.755C153.391 114.11 153.265 114.511 153.235 114.924Z" fill="white"/>
<path d="M160.971 110.465C160.971 111.198 161.539 111.476 162.204 111.084L175.075 103.643C175.426 103.424 175.72 103.125 175.935 102.771C176.149 102.417 176.276 102.017 176.307 101.604C176.307 100.866 175.739 100.587 175.075 100.979L162.204 108.42C161.852 108.64 161.557 108.94 161.343 109.295C161.128 109.65 161.001 110.051 160.971 110.465Z" fill="white"/>
<path d="M208.195 58.3623L205.923 57.0275C205.755 56.9497 205.57 56.9181 205.386 56.9361C205.202 56.954 205.027 57.0209 204.878 57.1298L175.512 74.1073C175.083 74.3881 174.726 74.7657 174.469 75.2096C174.213 75.6535 174.064 76.1514 174.035 76.6633V137.155C174.016 137.338 174.045 137.523 174.121 137.691C174.197 137.859 174.316 138.003 174.467 138.11L176.767 139.439H176.796C176.96 139.505 177.138 139.529 177.314 139.508C177.489 139.487 177.657 139.422 177.801 139.319L185.554 134.844V139.507C185.554 140.33 185.685 140.808 185.895 140.938L188.167 142.262H188.195C188.457 142.404 188.837 142.04 189.258 141.126L194.761 129.482L207.127 122.302C207.556 122.021 207.913 121.644 208.169 121.2C208.426 120.756 208.575 120.258 208.604 119.746V59.3109C208.624 59.1309 208.597 58.9486 208.525 58.7822C208.454 58.6158 208.34 58.4711 208.195 58.3623Z" fill="#2C557D"/>
<path opacity="0.4" d="M208.132 58.3283C207.969 58.27 207.794 58.2514 207.622 58.2741C207.45 58.2968 207.286 58.3602 207.144 58.459L177.784 75.4478C177.358 75.7131 177.006 76.0826 176.762 76.5214L174.455 75.1866C174.7 74.7478 175.051 74.3783 175.478 74.113L204.832 57.1242C205.029 57.0019 205.254 56.9334 205.485 56.9254C205.62 56.9235 205.753 56.9568 205.872 57.0219L208.132 58.3283Z" fill="white"/>
<path opacity="0.2" d="M185.889 140.967C185.679 140.836 185.548 140.359 185.548 139.535V134.878L187.855 133.543V140.864C187.855 141.648 187.974 142.125 188.167 142.284L185.889 140.967Z" fill="black"/>
<path opacity="0.1" d="M176.762 139.45L174.461 138.121C174.313 138.014 174.196 137.87 174.121 137.704C174.046 137.537 174.017 137.354 174.035 137.172V76.6802C174.054 76.1555 174.208 75.6446 174.484 75.1978L176.79 76.5326C176.514 76.9794 176.36 77.4903 176.341 78.015V138.507C176.322 138.687 176.351 138.869 176.424 139.035C176.498 139.201 176.615 139.344 176.762 139.45Z" fill="black"/>
<path d="M182.163 78.2481L202.776 66.3201C203.452 65.9282 204.003 66.2463 204.003 67.0301V80.168C203.98 80.5952 203.857 81.011 203.644 81.3819C203.431 81.7529 203.133 82.0686 202.776 82.3037L182.163 94.2317C181.482 94.6236 180.931 94.3055 180.931 93.5217V80.3781C180.954 79.9511 181.078 79.5356 181.292 79.1655C181.506 78.7953 181.805 78.481 182.163 78.2481Z" fill="white"/>
<path d="M204.003 85.581C203.973 85.9942 203.846 86.3945 203.633 86.7497C203.42 87.1049 203.126 87.4051 202.776 87.6258L182.163 99.5254C181.482 99.9173 180.931 99.639 180.931 98.9006C180.962 98.4878 181.089 98.0881 181.303 97.7338C181.517 97.3795 181.812 97.0807 182.163 96.8615L202.776 84.9619C203.452 84.57 204.003 84.8483 204.003 85.581Z" fill="white"/>
<path d="M204.003 90.909C203.973 91.3222 203.846 91.7226 203.633 92.0778C203.42 92.433 203.126 92.7331 202.776 92.9538L182.163 104.853C181.482 105.245 180.931 104.967 180.931 104.229C180.962 103.816 181.089 103.416 181.303 103.062C181.517 102.708 181.812 102.409 182.163 102.19L202.776 90.3126C203.452 89.898 204.003 90.1763 204.003 90.909Z" fill="white"/>
<path d="M204.003 96.2368C203.97 96.647 203.843 97.0439 203.63 97.396C203.417 97.748 203.124 98.0455 202.776 98.2645L182.163 110.193C181.482 110.584 180.931 110.306 180.931 109.568C180.962 109.155 181.089 108.755 181.303 108.401C181.517 108.047 181.812 107.748 182.163 107.529L202.776 95.6176C203.452 95.2257 204.003 95.504 204.003 96.2368Z" fill="white"/>
<path d="M204.003 101.565C203.973 101.978 203.846 102.378 203.633 102.733C203.42 103.089 203.126 103.389 202.776 103.609L182.163 115.537C181.482 115.929 180.931 115.651 180.931 114.913C180.962 114.5 181.089 114.1 181.303 113.746C181.517 113.392 181.812 113.093 182.163 112.873L202.776 100.945C203.452 100.537 204.003 100.832 204.003 101.565Z" fill="white"/>
<path d="M180.931 120.218C180.931 120.95 181.499 121.229 182.163 120.837L184.316 119.593C184.667 119.374 184.962 119.075 185.176 118.721C185.39 118.366 185.518 117.967 185.549 117.554C185.549 116.815 184.98 116.537 184.316 116.929L182.163 118.173C181.811 118.393 181.516 118.692 181.302 119.048C181.088 119.403 180.961 119.804 180.931 120.218Z" fill="white"/>
<path d="M188.672 115.759C188.672 116.492 189.24 116.77 189.905 116.378L202.776 108.937C203.126 108.717 203.42 108.416 203.633 108.061C203.846 107.706 203.973 107.306 204.003 106.893C204.003 106.16 203.435 105.881 202.776 106.273L189.899 113.714C189.549 113.935 189.255 114.235 189.042 114.59C188.829 114.945 188.702 115.346 188.672 115.759Z" fill="white"/>
<path d="M180.931 125.528C180.931 126.261 181.499 126.539 182.163 126.147L184.316 124.903C184.667 124.684 184.962 124.385 185.176 124.031C185.39 123.677 185.518 123.277 185.549 122.864C185.549 122.126 184.98 121.848 184.316 122.24L182.163 123.483C181.811 123.703 181.516 124.003 181.302 124.358C181.088 124.714 180.961 125.114 180.931 125.528Z" fill="white"/>
<path d="M188.672 121.087C188.672 121.819 189.24 122.098 189.905 121.706L202.776 114.265C203.126 114.044 203.42 113.744 203.633 113.389C203.846 113.034 203.973 112.633 204.003 112.22C204.003 111.487 203.435 111.209 202.776 111.601L189.899 119.042C189.549 119.263 189.255 119.563 189.042 119.918C188.829 120.273 188.702 120.673 188.672 121.087Z" fill="white"/>
<path d="M180.931 130.873C180.931 131.606 181.499 131.885 182.163 131.493L184.316 130.249C184.667 130.029 184.962 129.731 185.176 129.376C185.39 129.022 185.518 128.622 185.549 128.21C185.549 127.471 184.98 127.193 184.316 127.585L182.163 128.829C181.811 129.048 181.516 129.348 181.302 129.703C181.088 130.059 180.961 130.46 180.931 130.873Z" fill="white"/>
<path d="M188.672 126.415C188.672 127.147 189.24 127.426 189.905 127.034L202.776 119.593C203.126 119.373 203.419 119.074 203.632 118.719C203.845 118.365 203.972 117.966 204.003 117.554C204.003 116.815 203.435 116.537 202.776 116.929L189.899 124.393C189.552 124.611 189.26 124.908 189.047 125.259C188.834 125.61 188.706 126.005 188.672 126.415Z" fill="white"/>
<path d="M238.208 34.9146L235.152 33.1652H235.124C233.777 32.4098 231.931 32.5234 229.887 33.6991C225.769 36.0791 222.434 41.8613 222.434 46.6154C222.434 48.984 223.264 50.6539 224.61 51.4321L227.37 53.0111L228.029 51.8751C228.781 51.7102 229.504 51.4305 230.171 51.0459C234.283 48.6716 237.623 42.8894 237.623 38.1352C237.621 37.494 237.542 36.8553 237.39 36.2324L238.208 34.9146Z" fill="#2C557D"/>
<path d="M222.452 46.5761C222.452 48.9503 223.281 50.6202 224.627 51.3984L227.387 52.9774L228.046 51.8755C228.798 51.7059 229.52 51.4244 230.188 51.0405C232.541 49.5593 234.452 47.4717 235.72 44.997L224.928 38.749C223.412 41.0871 222.556 43.7915 222.452 46.5761Z" fill="#263238"/>
<path d="M238.214 34.9149L235.18 33.1654H235.152C233.806 32.4043 231.96 32.5179 229.915 33.6994C227.869 34.9591 226.157 36.6955 224.928 38.7602L235.72 45.0082C236.894 42.9225 237.549 40.5846 237.628 38.1922C237.626 37.551 237.548 36.9123 237.396 36.2894L238.214 34.9149Z" fill="#455A64"/>
<path d="M232.783 35.3408C228.671 37.715 225.331 43.4972 225.331 48.2798C225.331 53.0624 228.671 54.9595 232.783 52.5796C236.896 50.1996 240.264 44.3947 240.264 39.6405C240.264 34.8864 236.901 32.9438 232.783 35.3408Z" fill="#37474F"/>
<path d="M233.329 39.2771C233.549 39.2001 233.786 39.1825 234.016 39.2259C234.203 39.2693 234.376 39.3614 234.516 39.4929C234.651 39.6248 234.754 39.7861 234.817 39.9643C234.889 40.1458 234.931 40.3375 234.942 40.5323C234.946 40.6271 234.924 40.7213 234.879 40.805C234.845 40.8796 234.79 40.9428 234.72 40.9867L234.152 41.3105C234.061 41.3673 233.993 41.3787 233.948 41.3503C233.892 41.3146 233.849 41.2632 233.823 41.2026C233.784 41.1293 233.73 41.0644 233.666 41.0118C233.602 40.9591 233.528 40.9197 233.448 40.8959C233.321 40.8776 233.191 40.8852 233.067 40.9184C232.943 40.9516 232.827 41.0096 232.727 41.089C232.582 41.1701 232.448 41.2694 232.329 41.3843C232.204 41.4994 232.093 41.6291 232 41.7706C231.906 41.9073 231.831 42.0564 231.778 42.2136C231.726 42.3635 231.7 42.5208 231.698 42.6794C231.687 42.8236 231.718 42.968 231.789 43.094C231.823 43.1379 231.865 43.1736 231.915 43.1982C231.964 43.2229 232.018 43.2358 232.073 43.236C232.243 43.2436 232.414 43.2264 232.579 43.1849L233.329 43.0088C233.593 42.9388 233.867 42.9082 234.141 42.9179C234.348 42.9216 234.547 42.9935 234.709 43.1224C234.862 43.2611 234.969 43.4435 235.016 43.645C235.08 43.9224 235.11 44.2066 235.106 44.4913C235.102 44.8113 235.06 45.1297 234.982 45.4399C234.899 45.7697 234.781 46.0896 234.629 46.3941C234.473 46.7075 234.282 47.0027 234.061 47.2745C233.842 47.5483 233.593 47.7961 233.317 48.0129V48.8479C233.315 48.9409 233.292 49.0323 233.249 49.1148C233.22 49.1909 233.169 49.2564 233.101 49.3023L232.448 49.6771C232.427 49.6963 232.4 49.7069 232.372 49.7069C232.343 49.7069 232.316 49.6963 232.295 49.6771C232.272 49.6507 232.255 49.6201 232.244 49.5869C232.233 49.5537 232.229 49.5187 232.232 49.484V48.6434C232.015 48.7195 231.786 48.7542 231.556 48.7456C231.354 48.7367 231.158 48.6739 230.988 48.5639C230.823 48.4446 230.692 48.284 230.608 48.0981C230.504 47.8557 230.45 47.595 230.449 47.3313C230.444 47.2363 230.465 47.1418 230.511 47.0587C230.544 46.983 230.597 46.918 230.665 46.8712L231.233 46.5474C231.324 46.4963 231.392 46.4793 231.443 46.502C231.499 46.5379 231.541 46.592 231.562 46.6554C231.602 46.7398 231.648 46.8214 231.698 46.8996C231.752 46.9736 231.828 47.0292 231.914 47.0587C232.026 47.0848 232.143 47.0848 232.255 47.0587C232.437 47.0166 232.61 46.9435 232.766 46.8428C232.93 46.7479 233.086 46.6396 233.232 46.5191C233.377 46.3971 233.508 46.26 233.624 46.1101C233.735 45.9616 233.827 45.7993 233.897 45.6273C233.966 45.4579 234.001 45.2764 233.999 45.0934C234.007 45.0255 234.001 44.9568 233.981 44.8913C233.962 44.8259 233.929 44.7651 233.885 44.7128C233.838 44.675 233.783 44.647 233.725 44.6304C233.666 44.6138 233.605 44.609 233.544 44.6163C233.353 44.6268 233.162 44.6572 232.976 44.7071C232.749 44.7639 232.494 44.8151 232.198 44.8719C231.968 44.9262 231.73 44.9435 231.494 44.923C231.31 44.9105 231.136 44.8365 231 44.7128C230.857 44.5654 230.755 44.3833 230.704 44.1846C230.634 43.8889 230.601 43.5854 230.608 43.2814C230.608 42.9574 230.65 42.6347 230.733 42.3215C230.812 42.0028 230.922 41.6927 231.062 41.3957C231.201 41.0994 231.373 40.8194 231.574 40.5607C231.766 40.3086 231.982 40.0764 232.221 39.8678V39.0328C232.223 38.9405 232.245 38.8496 232.284 38.7659C232.316 38.6902 232.369 38.6252 232.437 38.5784L233.09 38.2035C233.11 38.1848 233.136 38.1743 233.164 38.1743C233.191 38.1743 233.218 38.1848 233.238 38.2035C233.262 38.2289 233.281 38.2593 233.293 38.2926C233.305 38.3259 233.309 38.3614 233.306 38.3967L233.329 39.2771Z" fill="#FAFAFA"/>
<path d="M238.208 90.4935L235.152 88.7441H235.124C233.777 87.9829 231.931 88.0965 229.887 89.278C225.769 91.6522 222.434 97.4345 222.434 102.189C222.434 104.563 223.264 106.227 224.61 107.011L227.37 108.584L228.029 107.482C228.781 107.315 229.502 107.035 230.171 106.653C234.283 104.273 237.623 98.4909 237.623 93.7368C237.62 93.0956 237.542 92.4569 237.39 91.834L238.208 90.4935Z" fill="#2C557D"/>
<path d="M222.452 102.178C222.452 104.552 223.281 106.216 224.627 107L227.387 108.573L228.046 107.471C228.798 107.302 229.52 107.02 230.188 106.636C232.543 105.153 234.454 103.061 235.72 100.581L224.928 94.3335C223.411 96.6772 222.555 99.3875 222.452 102.178Z" fill="#263238"/>
<path d="M238.214 90.4935L235.18 88.7441H235.152C233.806 87.9829 231.96 88.0965 229.915 89.278C227.871 90.5423 226.164 92.2827 224.939 94.3502L235.731 100.598C236.916 98.4938 237.573 96.1336 237.646 93.7197C237.643 93.0785 237.565 92.4398 237.413 91.8169L238.214 90.4935Z" fill="#455A64"/>
<path d="M232.783 90.9199C228.671 93.2941 225.331 99.0764 225.331 103.831C225.331 108.585 228.671 110.51 232.783 108.136C236.896 105.762 240.264 99.9681 240.264 95.2253C240.264 90.4825 236.901 88.5456 232.783 90.9199Z" fill="#37474F"/>
<path d="M236.578 101.223L228.995 105.603C228.904 105.654 228.836 105.603 228.836 105.449V98.7241C228.834 98.6589 228.848 98.5941 228.875 98.5349C228.903 98.4758 228.944 98.4239 228.995 98.3833L236.578 94.004C236.663 93.9529 236.737 94.004 236.737 94.1574V100.888C236.738 100.952 236.724 101.016 236.696 101.074C236.669 101.132 236.628 101.183 236.578 101.223Z" fill="#FAFAFA"/>
<path d="M234.277 95.7763C234.192 95.8274 234.118 95.7763 234.118 95.6229V94.6005L231.454 96.1398V97.1622C231.455 97.2279 231.441 97.293 231.412 97.3522C231.384 97.4114 231.342 97.463 231.29 97.503C231.204 97.5541 231.131 97.503 231.131 97.3497V96.0773C231.13 96.013 231.144 95.9494 231.171 95.8913C231.199 95.8332 231.239 95.7822 231.29 95.7422L234.277 94.0382C234.368 93.9871 234.436 94.0382 234.436 94.1916V95.4241C234.441 95.4914 234.429 95.5587 234.401 95.6202C234.373 95.6816 234.331 95.7352 234.277 95.7763Z" fill="#FAFAFA"/>
<path d="M234.277 94.5096L231.29 96.2136C231.204 96.2647 231.131 96.2135 231.131 96.0602V95.4922C231.13 95.4271 231.144 95.3628 231.172 95.3038C231.199 95.2449 231.239 95.1928 231.29 95.1514L234.277 93.4474C234.368 93.3963 234.436 93.4474 234.436 93.6007V94.1687C234.438 94.234 234.425 94.2988 234.397 94.3579C234.369 94.4171 234.328 94.469 234.277 94.5096Z" fill="#FAFAFA"/>
<path d="M233.868 98.7072L231.699 99.9568C231.636 99.9965 231.585 99.9568 231.585 99.8432V99.4342C231.584 99.3876 231.594 99.3413 231.613 99.299C231.633 99.2566 231.662 99.2194 231.699 99.19L233.868 97.9404C233.936 97.9006 233.988 97.9404 233.988 98.0483V98.4573C233.989 98.5054 233.978 98.553 233.958 98.5965C233.937 98.6399 233.906 98.6778 233.868 98.7072Z" fill="#37474F"/>
<path d="M238.208 62.7072L235.152 60.9521H235.124C233.777 60.1909 231.931 60.3045 229.887 61.486C225.769 63.8659 222.434 69.6425 222.434 74.3966C222.434 76.7709 223.264 78.4408 224.61 79.2189L227.37 80.7923L228.029 79.6904C228.781 79.5255 229.504 79.2458 230.171 78.8611C234.283 76.4812 237.623 70.7046 237.623 65.9505C237.621 65.3074 237.542 64.6668 237.39 64.042L238.208 62.7072Z" fill="#2C557D"/>
<path d="M222.452 74.4078C222.452 76.7821 223.281 78.452 224.627 79.2301L227.387 80.8035L228.046 79.7016C228.798 79.5367 229.521 79.257 230.188 78.8723C232.546 77.3802 234.458 75.2783 235.72 72.789L224.928 66.541C223.407 68.8913 222.551 71.6099 222.452 74.4078Z" fill="#263238"/>
<path d="M238.214 62.7072L235.18 60.9521H235.152C233.806 60.1966 231.96 60.3046 229.915 61.486C227.871 62.7504 226.164 64.4907 224.939 66.5582L235.731 72.8062C236.909 70.7116 237.564 68.3636 237.64 65.9618C237.638 65.3187 237.559 64.6781 237.407 64.0534L238.214 62.7072Z" fill="#455A64"/>
<path d="M232.783 63.1273C228.671 65.5072 225.331 71.2838 225.331 76.0379C225.331 80.7921 228.671 82.7233 232.783 80.3434C236.896 77.9634 240.264 72.1869 240.264 67.4327C240.264 62.6786 236.901 60.7758 232.783 63.1273Z" fill="#37474F"/>
<path d="M230.04 70.6934C230.04 69.6142 230.608 68.4214 231.312 68.001C232.017 67.5807 232.585 68.143 232.585 69.2279C232.585 70.3128 232.017 71.4999 231.312 71.9202C230.608 72.3406 230.04 71.7782 230.04 70.6934Z" fill="white"/>
<path d="M233.584 76.1458L228.904 78.8495L229.154 75.7368C229.262 74.4134 229.96 73.0559 230.79 72.5788L231.693 72.0562C232.522 71.5791 233.221 72.1244 233.329 73.3285L233.584 76.1458Z" fill="white"/>
<path d="M233.13 67.4497C233.13 66.3705 233.698 65.1777 234.402 64.7574C235.107 64.3371 235.675 64.8994 235.675 65.9843C235.675 67.0692 235.107 68.2563 234.402 68.6766C233.698 69.0969 233.13 68.5346 233.13 67.4497Z" fill="white"/>
<path d="M236.663 72.9027L233.795 74.5612L233.664 73.0731C233.567 72.028 233.096 71.3691 232.471 71.3691C232.691 70.5547 233.187 69.842 233.874 69.3527L234.777 68.8358C235.606 68.353 236.305 68.8983 236.413 70.1024L236.663 72.9027Z" fill="white"/>
<path d="M160.46 178.818C160.46 175.296 158.131 171.775 153.474 169.088C144.164 163.709 129.05 163.709 119.757 169.088C115.1 171.775 112.771 175.296 112.771 178.818V185.31C112.771 188.832 115.1 192.353 119.757 195.046C129.067 200.419 144.181 200.419 153.474 195.046C158.131 192.353 160.46 188.832 160.46 185.31V178.818ZM120.91 171.082C125.068 168.679 130.646 167.361 136.615 167.361C142.585 167.361 148.163 168.679 152.321 171.082C156.081 173.251 158.154 176 158.154 178.818C158.154 181.635 156.081 184.384 152.321 186.554C148.163 188.957 142.568 190.28 136.615 190.28C130.663 190.28 125.068 188.957 120.91 186.554C117.15 184.384 115.077 181.635 115.077 178.818C115.077 176 117.15 173.24 120.91 171.082Z" fill="#2C557D"/>
<path opacity="0.3" d="M119.751 188.576C129.067 193.949 144.175 193.949 153.474 188.576C162.772 183.203 162.783 174.484 153.474 169.111C144.164 163.737 129.05 163.732 119.751 169.111C110.453 174.49 110.442 183.18 119.751 188.576ZM115.077 178.841C115.077 176.001 117.144 173.274 120.904 171.104C125.062 168.702 130.646 167.384 136.615 167.384C142.585 167.384 148.163 168.702 152.321 171.104C156.081 173.274 158.148 176.023 158.148 178.841C158.148 181.658 156.081 184.407 152.321 186.577C148.163 188.957 142.568 190.28 136.615 190.28C130.663 190.28 125.062 188.957 120.904 186.554C117.144 184.384 115.077 181.635 115.077 178.818V178.841Z" fill="white"/>
<path d="M115.077 178.818C115.091 179.965 115.412 181.087 116.008 182.067C116.951 180.431 118.615 178.892 120.91 177.574C125.062 175.171 130.646 173.848 136.615 173.848C142.585 173.848 148.163 175.171 152.321 177.574C154.316 178.625 156.006 180.172 157.228 182.067C157.82 181.085 158.14 179.964 158.154 178.818C158.154 175.978 156.081 173.251 152.321 171.082C148.163 168.685 142.585 167.361 136.615 167.361C130.646 167.361 125.062 168.685 120.91 171.082C117.144 173.24 115.077 176.001 115.077 178.818Z" fill="#2C557D"/>
<path opacity="0.1" d="M115.077 178.818C115.091 179.965 115.412 181.087 116.008 182.067C116.951 180.431 118.615 178.892 120.91 177.574C125.062 175.171 130.646 173.848 136.615 173.848C142.585 173.848 148.163 175.171 152.321 177.574C154.316 178.625 156.006 180.172 157.228 182.067C157.82 181.085 158.14 179.964 158.154 178.818C158.154 175.978 156.081 173.251 152.321 171.082C148.163 168.685 142.585 167.361 136.615 167.361C130.646 167.361 125.062 168.685 120.91 171.082C117.144 173.24 115.077 176.001 115.077 178.818Z" fill="black"/>
<path opacity="0.4" d="M120.904 174.018C125.062 171.621 130.646 170.298 136.615 170.298C142.585 170.298 148.163 171.621 152.321 174.018C155.422 175.813 157.37 177.994 157.961 180.266C157.393 182.538 155.422 184.742 152.321 186.514C148.163 188.957 142.568 190.28 136.615 190.28C130.663 190.28 125.062 188.957 120.904 186.554C117.803 184.765 115.855 182.578 115.27 180.306C115.872 177.994 117.803 175.813 120.904 174.018Z" fill="white"/>
<path opacity="0.1" d="M130.998 192.2V198.686C127.054 198.198 123.239 196.962 119.757 195.045C115.1 192.353 112.771 188.832 112.771 185.31V178.818C112.773 178.1 112.868 177.386 113.055 176.693C111.919 180.885 114.157 185.321 119.751 188.553C123.235 190.472 127.051 191.71 130.998 192.2Z" fill="black"/>
<path d="M120.461 192.683C120.432 192.103 120.267 191.539 119.979 191.036C119.691 190.532 119.288 190.104 118.803 189.786C118.635 189.663 118.438 189.587 118.232 189.565C118.025 189.543 117.817 189.576 117.627 189.661L109.624 194.256C109.452 194.373 109.316 194.535 109.23 194.724C109.143 194.914 109.111 195.123 109.136 195.329C109.16 195.907 109.32 196.47 109.602 196.974C109.885 197.478 110.281 197.909 110.76 198.232C110.928 198.355 111.127 198.432 111.335 198.453C111.542 198.473 111.752 198.438 111.941 198.351L119.967 193.773C120.139 193.652 120.276 193.487 120.363 193.295C120.45 193.103 120.484 192.892 120.461 192.683Z" fill="#37474F"/>
<path d="M119.967 193.768C120.138 193.647 120.274 193.483 120.361 193.292C120.448 193.101 120.483 192.891 120.461 192.683C120.454 192.252 120.36 191.826 120.183 191.433L109.828 197.352C110.077 197.704 110.394 198.004 110.76 198.232C110.928 198.356 111.127 198.432 111.334 198.453C111.542 198.474 111.752 198.439 111.941 198.351L119.967 193.773V193.768Z" fill="#263238"/>
<path d="M112.112 198.232C112.075 197.477 111.86 196.741 111.485 196.085C111.11 195.428 110.585 194.87 109.953 194.455C109.738 194.298 109.485 194.2 109.22 194.171C108.955 194.142 108.687 194.183 108.443 194.29L81.8204 208.49L85.7964 215.51L111.493 199.606C111.707 199.451 111.877 199.243 111.985 199.002C112.094 198.76 112.137 198.495 112.112 198.232Z" fill="#2C557D"/>
<path opacity="0.1" d="M85.7681 215.505L111.464 199.601C111.687 199.446 111.864 199.234 111.977 198.987C112.09 198.74 112.135 198.468 112.106 198.198C112.074 197.389 111.825 196.605 111.385 195.926L83.7233 211.864L85.7681 215.505Z" fill="black"/>
<path d="M83.763 215.272C82.9333 214.728 82.2437 213.996 81.7502 213.136C81.2567 212.275 80.9733 211.31 80.923 210.319C80.923 208.502 82.2067 207.769 83.763 208.683C84.5925 209.226 85.2822 209.957 85.7757 210.817C86.2692 211.676 86.5527 212.641 86.603 213.631C86.6143 215.477 85.3363 216.209 83.763 215.272Z" fill="#2C557D"/>
<g opacity="0.2">
<path opacity="0.2" d="M83.763 215.272C82.9333 214.728 82.2437 213.996 81.7502 213.136C81.2567 212.275 80.9733 211.31 80.923 210.319C80.923 208.502 82.2067 207.769 83.763 208.683C84.5925 209.226 85.2822 209.957 85.7757 210.817C86.2692 211.676 86.5527 212.641 86.603 213.631C86.6143 215.477 85.3363 216.209 83.763 215.272Z" fill="black"/>
</g>
<path d="M240.679 152.542C240.968 141.75 240.111 139.154 237.231 137.172L236.095 143.42C236.095 143.42 237.407 150.804 237.265 153.252C237.146 155.41 236.936 158.114 236.424 159.858C236.331 160.165 236.129 160.427 235.856 160.596C235.261 161.02 234.729 161.527 234.277 162.101C233.846 162.556 233.476 162.669 233.533 162.811C233.616 162.97 233.756 163.091 233.924 163.151C234.093 163.211 234.278 163.206 234.442 163.135C234.81 162.989 235.159 162.798 235.481 162.567C235.227 163.229 234.868 163.847 234.419 164.396C233.391 165.651 233.346 166.424 235.419 166.447C236.72 166.447 237.759 165.657 238.736 162.794C239.114 161.745 239.419 160.671 239.651 159.579C240.137 157.257 240.48 154.907 240.679 152.542Z" fill="#FFA8A7"/>
<path d="M234.811 136.354C235.695 136.196 236.606 136.33 237.407 136.734C238.208 137.139 238.856 137.793 239.253 138.598C240.457 140.75 240.752 144.46 240.889 148.146C240.889 148.146 238.497 150.151 235.623 149.168L234.811 136.354Z" fill="#2C557D"/>
<path d="M238.85 195.767C239.066 195.852 239.122 196.267 239.156 197.09C239.156 197.715 239.31 198.794 238.588 199.027C237.867 199.26 236.782 199.129 236.316 198.544C235.748 197.806 235.334 197.164 234.499 196.272C233.772 195.494 232.988 194.767 232.698 193.677C232.431 192.688 232.653 192.262 233.323 191.973C234.249 191.581 235.703 192.87 236.43 193.069C237.043 193.239 238.628 195.687 238.85 195.767Z" fill="#263238"/>
<path d="M238.85 195.005V196.016C238.469 196.26 238.03 196.396 237.578 196.408C237.127 196.42 236.681 196.308 236.288 196.085C236.243 195.988 236.021 194.636 236.021 194.636L238.85 195.005Z" fill="#FFA8A7"/>
<path d="M230.636 201.64C230.816 202.182 230.965 202.734 231.085 203.293C231.21 203.906 231.392 204.928 231.176 205.388C230.96 205.849 230.125 206.15 228.825 206.138C227.745 206.27 226.707 206.632 225.78 207.2C224.571 207.714 223.255 207.922 221.946 207.808C220.81 207.677 219.595 207.007 219.407 206.53C219.22 206.053 219.47 205.553 222.19 204.394C222.19 204.394 225.973 203.162 227.302 201.708L230.636 201.64Z" fill="#263238"/>
<path d="M230.636 200.504V201.685C230.636 202.117 230.137 202.759 228.819 202.708C227.899 202.674 227.251 202.429 227.291 201.668V200.572L230.636 200.504Z" fill="#FFA8A7"/>
<path d="M239.509 181.556C239.283 179.76 238.882 177.99 238.31 176.273C238.31 176.273 238.674 171.729 238.844 167.401C239.031 162.738 238.844 156.87 238.924 155.706C238.924 155.706 223.872 152.661 223.588 158.057C223.304 163.453 224.156 177.176 224.36 179.545C224.564 181.913 224.928 184.004 225.434 187.843C225.939 191.683 227.274 200.584 227.274 200.584C227.794 200.849 228.372 200.981 228.955 200.969C229.539 200.957 230.11 200.801 230.619 200.515C230.619 200.515 231.682 189.723 231.568 187.003C231.483 184.976 231.135 182.97 230.534 181.033C230.534 181.033 230.818 176.586 231.068 172.717C231.318 168.849 231.591 166.992 231.636 165.333L231.96 165.174C231.96 165.174 232.289 171.848 232.471 174.217C232.653 176.586 233.039 178.858 233.709 183.254C234.306 187.071 236.072 195.148 236.072 195.148C237.776 196.079 238.821 195.028 238.821 195.028C238.821 195.028 239.969 184.867 239.509 181.556Z" fill="#37474F"/>
<path d="M231.664 165.288C231.664 165.288 235.317 163.487 237.146 161.88C237.146 161.88 235.442 164.271 233.221 165.328C233.221 165.328 232.426 173.62 232.431 173.456L231.971 165.288H231.664Z" fill="#263238"/>
<path d="M228.416 134.644L229.307 139.546L233.732 139.223L232.806 133.667L228.416 134.644Z" fill="#FFA8A7"/>
<path d="M238.412 138.864C237.969 137.53 236.282 136.081 234.59 136.394C232.083 136.823 229.613 137.442 227.2 138.245C225.649 138.813 224.241 140.137 224.11 145.232C224.11 145.232 223.593 157.114 223.582 159.432C226.815 160.7 230.336 161.048 233.755 160.437C238.412 159.42 238.975 157.489 238.975 157.489C238.975 157.489 239.031 148.969 238.895 145.254C238.753 142.102 238.713 139.779 238.412 138.864Z" fill="#F5F5F5"/>
<path d="M224.996 128.68C224.996 128.68 223.86 130.469 224.014 130.64C224.167 130.81 225.008 130.946 225.008 130.946L224.996 128.68Z" fill="#FFA8A7"/>
<path d="M228.115 123.727C225.774 124.295 225.121 125.329 224.979 129.066C224.837 132.98 225.263 134.178 225.791 134.712C226.144 135.059 228.063 135.082 229.035 134.792C230.245 134.428 232.965 133.395 234.209 131.384C235.669 129.038 235.998 125.897 234.345 124.647C232.028 122.909 229.069 123.506 228.115 123.727Z" fill="#FFA8A7"/>
<path d="M225.008 124.704C225.546 125.488 226.305 126.093 227.189 126.442C227.637 126.954 227.387 128.947 228.177 129.282C228.177 129.282 228.518 127.828 229.739 127.982C230.96 128.135 231.165 129.686 230.415 130.663C229.665 131.64 228.938 131.282 228.938 131.282C228.938 131.282 229.023 133.344 229.966 134.491C230.946 134.682 231.956 134.635 232.914 134.355C234.084 134.076 235.714 132.565 236.379 130.992C237.788 127.669 237.822 124.704 235.697 123.864C235.436 122.347 234.226 121.694 232.857 121.416C229.909 120.808 228.012 122.648 225.746 122.483C224.445 122.375 224.201 123.324 225.008 124.704Z" fill="#263238"/>
<path d="M235.748 124.352L237.134 123.489C237.081 123.391 237.009 123.305 236.921 123.236C236.833 123.167 236.732 123.116 236.624 123.088C236.516 123.059 236.404 123.053 236.294 123.07C236.183 123.086 236.077 123.125 235.983 123.184C235.888 123.243 235.806 123.321 235.743 123.413C235.679 123.504 235.635 123.608 235.613 123.718C235.591 123.827 235.592 123.94 235.615 124.049C235.638 124.158 235.684 124.261 235.748 124.352Z" fill="#263238"/>
<path d="M208.456 147.072C209.183 147.396 217.76 153.735 219.1 152.996C220.441 152.258 227.297 144.238 227.297 144.238C227.876 143.342 228.184 142.297 228.184 141.23C228.184 140.163 227.876 139.119 227.297 138.223C225.956 138.512 224.766 139.277 223.945 140.375C222.809 142.113 217.822 148.327 217.822 148.327C216.595 147.714 215.369 147.089 214.153 146.459C213.148 145.936 212.137 145.419 211.154 144.857C210.877 144.732 210.617 144.572 210.382 144.38C209.893 143.903 209.978 142.738 209.99 142.108C209.986 141.814 209.999 141.52 210.029 141.227C210.075 140.864 210.143 139.983 209.49 140.262C209.368 140.323 209.263 140.413 209.183 140.523C209.08 140.656 209.001 140.806 208.95 140.966C208.825 141.347 208.865 141.767 208.757 142.148C208.744 142.206 208.714 142.259 208.672 142.301C208.644 142.325 208.612 142.343 208.576 142.354C208.541 142.365 208.504 142.368 208.467 142.363C207.524 142.335 206.627 141.012 206.195 140.307C206.038 139.973 205.79 139.689 205.48 139.489C205.206 139.407 204.913 139.418 204.647 139.521C204.38 139.624 204.156 139.812 204.009 140.057C203.6 140.67 203.432 141.413 203.537 142.142C203.621 143.132 204.059 144.06 204.77 144.755C205.856 145.734 207.103 146.518 208.456 147.072Z" fill="#FFA8A7"/>
<path d="M228.063 137.967C227.12 138.075 225.791 137.899 223.94 139.893C222.445 141.599 221.051 143.391 219.765 145.26C220.009 146.241 220.531 147.131 221.267 147.824C222.003 148.517 222.923 148.984 223.917 149.168C223.917 149.168 227.16 145.84 228.063 144.011C228.966 142.182 229.182 139.206 228.063 137.967Z" fill="#2C557D"/>
</svg>
