<svg width="312" height="312" viewBox="0 0 312 312" fill="none" xmlns="http://www.w3.org/2000/svg">
<path d="M60.996 257.619C113.462 285.031 198.538 285.031 251.004 257.619C303.47 230.206 303.476 185.765 251.004 158.353C198.532 130.94 113.462 130.94 60.996 158.353C8.53009 185.765 8.52385 230.206 60.996 257.619Z" fill="#F5F5F5"/>
<path d="M197.003 250.686C212.825 250.686 225.651 244.573 225.651 237.032C225.651 229.492 212.825 223.379 197.003 223.379C181.181 223.379 168.355 229.492 168.355 237.032C168.355 244.573 181.181 250.686 197.003 250.686Z" fill="#EBEBEB"/>
<path d="M247.753 219.548C259.96 219.548 269.855 214.832 269.855 209.015C269.855 203.198 259.96 198.482 247.753 198.482C235.546 198.482 225.651 203.198 225.651 209.015C225.651 214.832 235.546 219.548 247.753 219.548Z" fill="#EBEBEB"/>
<path d="M90.2242 206.064C88.9762 199.474 84.4085 190.083 78.8362 184.848C73.476 179.818 65.52 178.065 62.3501 180.386C59.1802 182.707 61.2581 187.724 67.4107 193.84C74.3559 200.735 87.6907 219.867 90.2242 230.705V206.064Z" fill="#2C557D"/>
<g opacity="0.2">
<path opacity="0.2" d="M90.2242 206.064C88.9762 199.474 84.4085 190.083 78.8362 184.848C73.476 179.818 65.52 178.065 62.3501 180.386C59.1802 182.707 61.2581 187.724 67.4107 193.84C74.3559 200.735 87.6907 219.867 90.2242 230.705V206.064Z" fill="black"/>
</g>
<path d="M90.2242 221.919C90.146 221.918 90.071 221.888 90.0134 221.835C89.9559 221.782 89.9198 221.71 89.9122 221.632C88.3397 205.034 76.7333 186.376 65.5762 182.489C65.4983 182.461 65.4345 182.403 65.3984 182.328C65.3623 182.254 65.3566 182.168 65.3827 182.09C65.411 182.012 65.4686 181.948 65.5431 181.912C65.6177 181.876 65.7035 181.87 65.7821 181.896C77.3511 185.921 88.9263 204.466 90.5487 221.576C90.5557 221.659 90.5303 221.741 90.4779 221.805C90.4255 221.869 90.3501 221.91 90.2679 221.919H90.2242Z" fill="white"/>
<path d="M90.2242 238.674C90.2242 238.674 88.0651 240.396 80.8642 239.722C73.6632 239.048 69.9504 233.9 69.9504 231.691C69.9504 229.482 76.5711 229.102 78.0063 223.623C76.5464 225.188 74.6043 226.218 72.4901 226.55C68.7461 227.255 65.7384 226.057 64.8835 219.236C66.7288 219.506 68.6114 219.35 70.3872 218.781C73.3512 217.826 74.0563 216.198 73.2826 215.848C72.5088 215.499 68.3779 215.848 65.7322 214.843C63.0864 213.839 65.1082 200.061 66.8429 199.081C68.5776 198.102 76.7832 200.41 78.3807 201.646C79.8034 202.744 81.8002 204.647 80.8767 208.672C81.9706 207.649 82.8233 206.396 83.3727 205.003C84.1464 203.131 84.708 203.568 85.8687 204.285C86.5656 204.678 87.1706 205.216 87.643 205.861C88.1154 206.507 88.4445 207.246 88.608 208.029C88.8888 209.777 88.4333 215.804 85.9747 217.764C85.9747 217.764 88.3335 218.063 90.2616 214.082C90.2616 214.082 94.0056 215.592 94.8543 218.038C95.7029 220.484 96.6264 232.459 90.2242 238.674Z" fill="#2C557D"/>
<path d="M90.8607 240.034C90.7844 240.033 90.7109 240.005 90.6537 239.955C90.5964 239.904 90.5591 239.835 90.5487 239.759C88.9013 226.275 78.649 208.559 68.5963 201.908C68.5268 201.861 68.4786 201.789 68.4622 201.707C68.4458 201.625 68.4626 201.54 68.509 201.471C68.5553 201.401 68.6274 201.353 68.7093 201.337C68.7912 201.32 68.8763 201.337 68.9458 201.383C79.1232 208.154 89.5378 226.05 91.1664 239.685C91.1771 239.766 91.1548 239.849 91.1045 239.915C91.0542 239.98 90.98 240.023 90.8981 240.034H90.8607Z" fill="white"/>
<path d="M91.4909 241.919C91.1186 241.661 90.8118 241.319 90.5951 240.922C90.3784 240.524 90.2577 240.081 90.2429 239.629V90.5487C90.2683 90.0796 90.4043 89.6231 90.6396 89.2165C90.8749 88.8098 91.2029 88.4645 91.5969 88.2087L185.197 34.1578C185.588 33.9124 186.039 33.7783 186.5 33.7699C186.962 33.7616 187.417 33.8792 187.817 34.1103C188.217 34.3413 188.546 34.677 188.77 35.0812C188.993 35.4853 189.102 35.9428 189.084 36.4042L94.1117 241.869C93.7095 242.083 93.2626 242.199 92.8072 242.207C92.3518 242.216 91.9008 242.117 91.4909 241.919Z" fill="#E0E0E0"/>
<path d="M92.7576 93.3814L130.778 68.5025L128.244 67.0361L91.5782 88.2085C91.1842 88.4643 90.8562 88.8096 90.6209 89.2162C90.3855 89.6229 90.2496 90.0793 90.2242 90.5485V91.915L92.7576 93.3814Z" fill="#37474F"/>
<path opacity="0.2" d="M92.7576 93.3814L130.778 68.5025L128.244 67.0361L91.5782 88.2085C91.1842 88.4643 90.8562 88.8096 90.6209 89.2162C90.3855 89.6229 90.2496 90.0793 90.2242 90.5485V91.915L92.7576 93.3814Z" fill="#37474F"/>
<path d="M105.456 97.7683L90.6173 89.2319C90.3755 89.6344 90.2402 90.0918 90.2241 90.5611V239.616C90.208 240.077 90.3178 240.533 90.5415 240.937C90.7653 241.34 91.0947 241.675 91.4943 241.905C91.8939 242.135 92.3486 242.252 92.8098 242.244C93.2709 242.235 93.721 242.101 94.1117 241.856L105.456 235.335V97.7683Z" fill="#263238"/>
<path opacity="0.4" d="M105.456 97.7683L90.6173 89.2319C90.3755 89.6344 90.2402 90.0918 90.2241 90.5611V239.616C90.208 240.077 90.3178 240.533 90.5415 240.937C90.7653 241.34 91.0947 241.675 91.4943 241.905C91.8939 242.135 92.3486 242.252 92.8098 242.244C93.2709 242.235 93.721 242.101 94.1117 241.856L105.456 235.335V97.7683Z" fill="#263238"/>
<path d="M94.1117 241.869L187.712 187.818C188.106 187.562 188.434 187.217 188.669 186.81C188.904 186.403 189.04 185.947 189.066 185.478V36.4043C189.066 35.5432 188.442 35.1937 187.712 35.6243L94.1117 89.6752C93.7176 89.931 93.3896 90.2763 93.1543 90.6829C92.919 91.0896 92.783 91.546 92.7576 92.0152V241.089C92.7576 241.95 93.3629 242.299 94.1117 241.869Z" fill="#455A64"/>
<path opacity="0.1" d="M94.1117 241.869L187.712 187.818C188.106 187.562 188.434 187.217 188.669 186.81C188.904 186.403 189.04 185.947 189.066 185.478V36.4043C189.066 35.5432 188.442 35.1937 187.712 35.6243L94.1117 89.6752C93.7176 89.931 93.3896 90.2763 93.1543 90.6829C92.919 91.0896 92.783 91.546 92.7576 92.0152V241.089C92.7576 241.95 93.3629 242.299 94.1117 241.869Z" fill="#455A64"/>
<path d="M100.533 126.448L122.997 113.468C124.488 112.607 125.699 113.219 125.699 114.835C125.632 115.742 125.353 116.621 124.883 117.401C124.414 118.18 123.767 118.838 122.997 119.321L100.533 132.301C99.035 133.162 97.8307 132.55 97.8307 130.934C97.8959 130.026 98.1746 129.147 98.6442 128.367C99.1137 127.587 99.7608 126.93 100.533 126.448Z" fill="#2C557D"/>
<path d="M100.533 135.658L115.403 127.071C116.894 126.21 118.104 126.822 118.104 128.438C118.038 129.345 117.758 130.224 117.289 131.004C116.82 131.783 116.173 132.441 115.403 132.925L100.533 141.511C99.035 142.372 97.8307 141.76 97.8307 140.144C97.8959 139.236 98.1746 138.357 98.6442 137.577C99.1137 136.798 99.7608 136.14 100.533 135.658Z" fill="#2C557D"/>
<path d="M98.9102 151.42L101.818 149.741C102.442 149.398 102.898 149.679 102.898 150.365V153.722C102.877 154.097 102.769 154.462 102.582 154.787C102.394 155.113 102.132 155.389 101.818 155.594L98.9102 157.248C98.2862 157.597 97.8307 157.317 97.8307 156.624V153.267C97.8553 152.896 97.9656 152.537 98.1529 152.216C98.3402 151.896 98.5995 151.623 98.9102 151.42Z" fill="#2C557D"/>
<path opacity="0.2" d="M98.9102 151.42L101.818 149.741C102.442 149.398 102.898 149.679 102.898 150.365V153.722C102.877 154.097 102.769 154.462 102.582 154.787C102.394 155.113 102.132 155.389 101.818 155.594L98.9102 157.248C98.2862 157.597 97.8307 157.317 97.8307 156.624V153.267C97.8553 152.896 97.9656 152.537 98.1529 152.216C98.3402 151.896 98.5995 151.623 98.9102 151.42Z" fill="black"/>
<path d="M98.9102 163.132L101.818 161.454C102.442 161.104 102.898 161.385 102.898 162.078V165.435C102.876 165.809 102.767 166.174 102.58 166.499C102.392 166.824 102.131 167.1 101.818 167.307L98.9102 168.985C98.2862 169.328 97.8307 169.048 97.8307 168.361V165.004C97.85 164.629 97.9579 164.264 98.1455 163.938C98.3331 163.613 98.5952 163.337 98.9102 163.132Z" fill="#2C557D"/>
<g opacity="0.2">
<path opacity="0.2" d="M98.9102 163.132L101.818 161.454C102.442 161.104 102.898 161.385 102.898 162.078V165.435C102.876 165.809 102.767 166.174 102.58 166.499C102.392 166.824 102.131 167.1 101.818 167.307L98.9102 168.985C98.2862 169.328 97.8307 169.048 97.8307 168.361V165.004C97.85 164.629 97.9579 164.264 98.1455 163.938C98.3331 163.613 98.5952 163.337 98.9102 163.132Z" fill="black"/>
</g>
<path d="M106.785 160.05L124.357 149.897C125.106 149.467 125.711 149.772 125.711 150.584C125.677 151.037 125.537 151.476 125.302 151.865C125.066 152.255 124.743 152.583 124.357 152.824L106.785 162.976C106.036 163.407 105.431 163.101 105.431 162.29C105.465 161.836 105.605 161.397 105.84 161.008C106.076 160.619 106.399 160.29 106.785 160.05Z" fill="#2C557D"/>
<path opacity="0.2" d="M106.785 160.05L124.357 149.897C125.106 149.467 125.711 149.772 125.711 150.584C125.677 151.037 125.537 151.476 125.302 151.865C125.066 152.255 124.743 152.583 124.357 152.824L106.785 162.976C106.036 163.407 105.431 163.101 105.431 162.29C105.465 161.836 105.605 161.397 105.84 161.008C106.076 160.619 106.399 160.29 106.785 160.05Z" fill="black"/>
<path d="M98.9102 174.839L101.818 173.16C102.442 172.811 102.898 173.091 102.898 173.784V177.141C102.876 177.516 102.768 177.88 102.58 178.205C102.393 178.531 102.132 178.807 101.818 179.013L98.9102 180.692C98.2862 181.035 97.8307 180.754 97.8307 180.068V176.711C97.85 176.336 97.9579 175.97 98.1455 175.645C98.3331 175.32 98.5952 175.043 98.9102 174.839Z" fill="#E0E0E0"/>
<path d="M106.785 171.756L124.357 161.616C125.106 161.185 125.711 161.491 125.711 162.302C125.678 162.756 125.538 163.196 125.303 163.585C125.068 163.974 124.743 164.302 124.357 164.542L106.785 174.695C106.036 175.126 105.431 174.82 105.431 174.009C105.463 173.553 105.602 173.111 105.838 172.72C106.073 172.328 106.398 171.998 106.785 171.756Z" fill="#F0F0F0"/>
<path d="M98.9102 186.576L101.818 184.897C102.442 184.548 102.898 184.829 102.898 185.521V188.879C102.876 189.253 102.768 189.618 102.58 189.943C102.393 190.268 102.132 190.544 101.818 190.751L98.9102 192.429C98.2862 192.772 97.8307 192.491 97.8307 191.805V188.448C97.85 188.073 97.9579 187.708 98.1455 187.382C98.3331 187.057 98.5952 186.781 98.9102 186.576Z" fill="#E0E0E0"/>
<path d="M106.785 183.494L124.357 173.347C125.106 172.911 125.711 173.223 125.711 174.028C125.678 174.482 125.538 174.923 125.303 175.313C125.068 175.703 124.744 176.033 124.357 176.274L106.785 186.42C106.036 186.851 105.431 186.545 105.431 185.734C105.465 185.28 105.605 184.841 105.84 184.452C106.076 184.063 106.399 183.734 106.785 183.494Z" fill="#F0F0F0"/>
<path d="M98.9102 198.283L101.818 196.604C102.442 196.255 102.898 196.535 102.898 197.228V200.585C102.876 200.96 102.768 201.324 102.58 201.649C102.393 201.974 102.132 202.251 101.818 202.457L98.9102 204.136C98.2862 204.479 97.8307 204.198 97.8307 203.512V200.155C97.85 199.779 97.9579 199.414 98.1455 199.089C98.3331 198.763 98.5952 198.487 98.9102 198.283Z" fill="#E0E0E0"/>
<path d="M106.785 195.2L124.357 185.053C125.106 184.617 125.711 184.929 125.711 185.734C125.678 186.188 125.538 186.629 125.303 187.019C125.068 187.409 124.744 187.739 124.357 187.98L106.785 198.126C106.036 198.557 105.431 198.251 105.431 197.44C105.465 196.986 105.605 196.547 105.84 196.158C106.076 195.769 106.399 195.441 106.785 195.2Z" fill="#F0F0F0"/>
<path d="M99.1786 209.801L111.659 202.582C112.407 202.151 113.013 202.457 113.013 203.268C112.979 203.722 112.838 204.161 112.603 204.55C112.368 204.939 112.044 205.267 111.659 205.508L99.1786 212.728C98.436 213.159 97.8307 212.853 97.8307 212.048C97.8635 211.594 98.0025 211.154 98.2367 210.764C98.4708 210.374 98.7935 210.044 99.1786 209.801Z" fill="#2C557D"/>
<path d="M99.1786 215.654L124.357 201.121C125.106 200.691 125.711 200.997 125.711 201.802C125.678 202.256 125.538 202.697 125.303 203.087C125.068 203.477 124.744 203.807 124.357 204.048L99.1786 218.581C98.436 219.012 97.8307 218.706 97.8307 217.901C97.8635 217.447 98.0025 217.007 98.2367 216.617C98.4708 216.227 98.7935 215.897 99.1786 215.654Z" fill="#2C557D"/>
<path opacity="0.8" d="M99.1786 215.654L124.357 201.121C125.106 200.691 125.711 200.997 125.711 201.802C125.678 202.256 125.538 202.697 125.303 203.087C125.068 203.477 124.744 203.807 124.357 204.048L99.1786 218.581C98.436 219.012 97.8307 218.706 97.8307 217.901C97.8635 217.447 98.0025 217.007 98.2367 216.617C98.4708 216.227 98.7935 215.897 99.1786 215.654Z" fill="white"/>
<path d="M99.1786 215.654L116.757 205.508C117.499 205.077 118.104 205.383 118.104 206.194C118.071 206.647 117.931 207.086 117.697 207.475C117.463 207.864 117.141 208.193 116.757 208.435L99.1786 218.581C98.436 219.011 97.8307 218.706 97.8307 217.901C97.8635 217.447 98.0025 217.007 98.2367 216.617C98.4708 216.226 98.7935 215.897 99.1786 215.654Z" fill="#2C557D"/>
<path d="M99.1786 221.52L111.659 214.301C112.407 213.87 113.013 214.176 113.013 214.987C112.979 215.44 112.838 215.88 112.603 216.269C112.368 216.658 112.044 216.986 111.659 217.227L99.1786 224.447C98.436 224.877 97.8307 224.572 97.8307 223.767C97.8635 223.313 98.0025 222.873 98.2367 222.483C98.4708 222.092 98.7935 221.763 99.1786 221.52Z" fill="#2C557D"/>
<path d="M106.785 148.337L124.357 138.191C125.106 137.761 125.711 138.066 125.711 138.878C125.677 139.331 125.537 139.77 125.302 140.159C125.066 140.549 124.743 140.877 124.357 141.118L106.785 151.264C106.036 151.694 105.431 151.389 105.431 150.584C105.464 150.129 105.604 149.689 105.839 149.298C106.074 148.908 106.399 148.579 106.785 148.337Z" fill="#2C557D"/>
<path opacity="0.2" d="M106.785 148.337L124.357 138.191C125.106 137.761 125.711 138.066 125.711 138.878C125.677 139.331 125.537 139.77 125.302 140.159C125.066 140.549 124.743 140.877 124.357 141.118L106.785 151.264C106.036 151.694 105.431 151.389 105.431 150.584C105.464 150.129 105.604 149.689 105.839 149.298C106.074 148.908 106.399 148.579 106.785 148.337Z" fill="black"/>
<path d="M99.1786 221.52L111.659 214.301C112.407 213.87 113.013 214.176 113.013 214.987C112.979 215.44 112.838 215.88 112.603 216.269C112.368 216.658 112.044 216.986 111.659 217.227L99.1786 224.447C98.436 224.877 97.8307 224.572 97.8307 223.767C97.8635 223.313 98.0025 222.873 98.2367 222.483C98.4708 222.092 98.7935 221.763 99.1786 221.52Z" fill="#2C557D"/>
<path d="M99.1786 227.355L124.357 212.822C125.106 212.391 125.711 212.697 125.711 213.502C125.678 213.956 125.538 214.397 125.303 214.787C125.068 215.178 124.744 215.507 124.357 215.748L99.1786 230.256C98.436 230.693 97.8307 230.381 97.8307 229.576C97.8673 229.127 98.0081 228.692 98.2421 228.306C98.4761 227.92 98.7967 227.595 99.1786 227.355Z" fill="#2C557D"/>
<path opacity="0.8" d="M99.1786 227.355L124.357 212.822C125.106 212.391 125.711 212.697 125.711 213.502C125.678 213.956 125.538 214.397 125.303 214.787C125.068 215.178 124.744 215.507 124.357 215.748L99.1786 230.256C98.436 230.693 97.8307 230.381 97.8307 229.576C97.8673 229.127 98.0081 228.692 98.2421 228.306C98.4761 227.92 98.7967 227.595 99.1786 227.355Z" fill="white"/>
<path d="M99.1786 227.355L121.824 214.251C122.572 213.82 123.178 214.126 123.178 214.937C123.144 215.391 123.003 215.83 122.768 216.219C122.533 216.608 122.209 216.936 121.824 217.177L99.1786 230.281C98.436 230.718 97.8307 230.406 97.8307 229.601C97.8635 229.147 98.0025 228.707 98.2367 228.317C98.4708 227.927 98.7935 227.597 99.1786 227.355Z" fill="#2C557D"/>
<path d="M187.724 35.6243L130.778 68.5028V220.696L187.724 187.824C188.118 187.568 188.446 187.223 188.682 186.816C188.917 186.41 189.053 185.953 189.078 185.484V36.4043C189.072 35.5681 188.448 35.1937 187.724 35.6243Z" fill="#EBEBEB"/>
<path opacity="0.6" d="M187.724 35.6243L130.778 68.5028V220.696L187.724 187.824C188.118 187.568 188.446 187.223 188.682 186.816C188.917 186.41 189.053 185.953 189.078 185.484V36.4043C189.072 35.5681 188.448 35.1937 187.724 35.6243Z" fill="#FAFAFA"/>
<path d="M130.778 74.356V86.0623L125.711 91.9154H130.778V103.622L184.005 72.8896V43.624L130.778 74.356Z" fill="#2C557D"/>
<g opacity="0.6">
<path opacity="0.6" d="M137.742 74.7613L159.307 62.2813C160.349 61.6573 161.179 62.169 161.179 63.3733C161.145 64.0277 160.958 64.6649 160.632 65.2338C160.307 65.8027 159.853 66.2875 159.307 66.6493L137.742 79.0981C136.693 79.7221 135.87 79.2104 135.87 78.0061C135.907 77.3568 136.096 76.7253 136.421 76.1619C136.746 75.5986 137.199 75.119 137.742 74.7613Z" fill="white"/>
</g>
<path d="M136.525 84.2399L178.264 60.1411C178.639 59.9289 178.938 60.0787 178.938 60.4843C178.922 60.7113 178.853 60.9313 178.736 61.1264C178.618 61.3216 178.457 61.4864 178.264 61.6075L136.525 85.6751C136.151 85.8873 135.851 85.7375 135.851 85.3319C135.872 85.1104 135.943 84.8966 136.06 84.7072C136.177 84.5178 136.336 84.3579 136.525 84.2399Z" fill="#2C557D"/>
<path d="M136.525 84.2399L178.264 60.1411C178.639 59.9289 178.938 60.0787 178.938 60.4843C178.922 60.7113 178.853 60.9313 178.736 61.1264C178.618 61.3216 178.457 61.4864 178.264 61.6075L136.525 85.6751C136.151 85.8873 135.851 85.7375 135.851 85.3319C135.872 85.1104 135.943 84.8966 136.06 84.7072C136.177 84.5178 136.336 84.3579 136.525 84.2399Z" fill="#2C557D"/>
<path opacity="0.6" d="M136.525 84.2399L178.264 60.1411C178.639 59.9289 178.938 60.0787 178.938 60.4843C178.922 60.7113 178.853 60.9313 178.736 61.1264C178.618 61.3216 178.457 61.4864 178.264 61.6075L136.525 85.6751C136.151 85.8873 135.851 85.7375 135.851 85.3319C135.872 85.1104 135.943 84.8966 136.06 84.7072C136.177 84.5178 136.336 84.3579 136.525 84.2399Z" fill="white"/>
<path d="M136.525 88.6079L178.264 64.5091C178.639 64.2907 178.938 64.4467 178.938 64.8523C178.922 65.0784 178.853 65.2976 178.735 65.4917C178.618 65.6859 178.457 65.8495 178.264 65.9692L136.525 90.0681C136.151 90.2865 135.851 90.1305 135.851 89.7249C135.867 89.4987 135.937 89.2796 136.054 89.0854C136.171 88.8913 136.332 88.7276 136.525 88.6079Z" fill="#2C557D"/>
<path opacity="0.6" d="M136.525 88.6079L178.264 64.5091C178.639 64.2907 178.938 64.4467 178.938 64.8523C178.922 65.0784 178.853 65.2976 178.735 65.4917C178.618 65.6859 178.457 65.8495 178.264 65.9692L136.525 90.0681C136.151 90.2865 135.851 90.1305 135.851 89.7249C135.867 89.4987 135.937 89.2796 136.054 89.0854C136.171 88.8913 136.332 88.7276 136.525 88.6079Z" fill="white"/>
<path opacity="0.6" d="M136.525 92.9763L178.264 68.8774C178.639 68.6652 178.938 68.815 178.938 69.2206C178.922 69.4476 178.853 69.6676 178.736 69.8628C178.618 70.0579 178.457 70.2227 178.264 70.3438L136.525 94.4427C136.151 94.6548 135.851 94.5051 135.851 94.0995C135.867 93.8725 135.937 93.6524 136.054 93.4573C136.171 93.2621 136.332 93.0973 136.525 92.9763Z" fill="white"/>
<path d="M138.097 105.269L141.024 103.584C141.648 103.234 142.103 103.515 142.103 104.208V107.565C142.083 107.94 141.974 108.304 141.787 108.63C141.599 108.955 141.338 109.231 141.024 109.437L138.116 111.116C137.492 111.459 137.037 111.178 137.037 110.492V107.141C137.054 106.767 137.159 106.403 137.343 106.078C137.527 105.753 137.786 105.475 138.097 105.269Z" fill="#2C557D"/>
<path opacity="0.2" d="M138.097 105.269L141.024 103.584C141.648 103.234 142.103 103.515 142.103 104.208V107.565C142.083 107.94 141.974 108.304 141.787 108.63C141.599 108.955 141.338 109.231 141.024 109.437L138.116 111.116C137.492 111.459 137.037 111.178 137.037 110.492V107.141C137.054 106.767 137.159 106.403 137.343 106.078C137.527 105.753 137.786 105.475 138.097 105.269Z" fill="white"/>
<path d="M145.972 102.186L163.544 92.0339C164.293 91.6033 164.898 91.9091 164.898 92.7203C164.864 93.1738 164.724 93.6129 164.489 94.0021C164.254 94.3913 163.93 94.7196 163.544 94.9605L145.972 105.113C145.224 105.543 144.618 105.238 144.618 104.427C144.652 103.973 144.792 103.534 145.028 103.145C145.263 102.756 145.587 102.427 145.972 102.186Z" fill="#2C557D"/>
<path opacity="0.8" d="M145.972 102.186L163.544 92.0339C164.293 91.6033 164.898 91.9091 164.898 92.7203C164.864 93.1738 164.724 93.6129 164.489 94.0021C164.254 94.3913 163.93 94.7196 163.544 94.9605L145.972 105.113C145.224 105.543 144.618 105.238 144.618 104.427C144.652 103.973 144.792 103.534 145.028 103.145C145.263 102.756 145.587 102.427 145.972 102.186Z" fill="white"/>
<path d="M137.692 115.752L181.996 90.1679C182.37 89.9495 182.67 90.1055 182.67 90.5049C182.654 90.732 182.585 90.9522 182.468 91.1475C182.351 91.3427 182.189 91.5074 181.996 91.6281L137.692 117.212C137.317 117.43 137.018 117.274 137.018 116.869C137.034 116.643 137.103 116.424 137.221 116.229C137.338 116.035 137.499 115.872 137.692 115.752Z" fill="#2C557D"/>
<path d="M137.692 120.139L181.996 94.5546C182.37 94.3425 182.67 94.4922 182.67 94.8978C182.654 95.1248 182.584 95.3449 182.467 95.54C182.35 95.7352 182.189 95.9 181.996 96.021L137.692 121.605C137.317 121.817 137.018 121.667 137.018 121.262C137.034 121.035 137.103 120.815 137.221 120.62C137.338 120.425 137.499 120.26 137.692 120.139Z" fill="#2C557D"/>
<path d="M137.692 124.532L181.996 98.9477C182.37 98.7293 182.67 98.8853 182.67 99.2847C182.654 99.5118 182.585 99.732 182.468 99.9272C182.351 100.122 182.189 100.287 181.996 100.408L137.692 125.992C137.317 126.21 137.018 126.054 137.018 125.655C137.034 125.428 137.103 125.208 137.22 125.012C137.337 124.817 137.499 124.652 137.692 124.532Z" fill="#2C557D"/>
<path d="M137.692 128.931L181.996 103.347C182.37 103.135 182.67 103.285 182.67 103.69C182.654 103.917 182.584 104.137 182.467 104.332C182.35 104.528 182.189 104.692 181.996 104.814L137.692 130.398C137.317 130.61 137.018 130.46 137.018 130.054C137.034 129.827 137.103 129.607 137.221 129.412C137.338 129.217 137.499 129.052 137.692 128.931Z" fill="#2C557D"/>
<path d="M137.692 115.752L181.996 90.1679C182.37 89.9495 182.67 90.1055 182.67 90.5049C182.654 90.732 182.585 90.9522 182.468 91.1475C182.351 91.3427 182.189 91.5074 181.996 91.6281L137.692 117.212C137.317 117.43 137.018 117.274 137.018 116.869C137.034 116.643 137.103 116.424 137.221 116.229C137.338 116.035 137.499 115.872 137.692 115.752Z" fill="#E0E0E0"/>
<path d="M137.692 120.139L181.996 94.5546C182.37 94.3425 182.67 94.4922 182.67 94.8978C182.654 95.1248 182.584 95.3449 182.467 95.54C182.35 95.7352 182.189 95.9 181.996 96.021L137.692 121.605C137.317 121.817 137.018 121.667 137.018 121.262C137.034 121.035 137.103 120.815 137.221 120.62C137.338 120.425 137.499 120.26 137.692 120.139Z" fill="#E0E0E0"/>
<path d="M137.692 124.532L181.996 98.9477C182.37 98.7293 182.67 98.8853 182.67 99.2847C182.654 99.5118 182.585 99.732 182.468 99.9272C182.351 100.122 182.189 100.287 181.996 100.408L137.692 125.992C137.317 126.21 137.018 126.054 137.018 125.655C137.034 125.428 137.103 125.208 137.22 125.012C137.337 124.817 137.499 124.652 137.692 124.532Z" fill="#E0E0E0"/>
<path d="M137.692 128.931L181.996 103.347C182.37 103.135 182.67 103.285 182.67 103.69C182.654 103.917 182.584 104.137 182.467 104.332C182.35 104.528 182.189 104.692 181.996 104.814L137.692 130.398C137.317 130.61 137.018 130.46 137.018 130.054C137.034 129.827 137.103 129.607 137.221 129.412C137.338 129.217 137.499 129.052 137.692 128.931Z" fill="#E0E0E0"/>
<path opacity="0.8" d="M137.692 115.752L181.996 90.1679C182.37 89.9495 182.67 90.1055 182.67 90.5049C182.654 90.732 182.585 90.9522 182.468 91.1475C182.351 91.3427 182.189 91.5074 181.996 91.6281L137.692 117.212C137.317 117.43 137.018 117.274 137.018 116.869C137.034 116.643 137.103 116.424 137.221 116.229C137.338 116.035 137.499 115.872 137.692 115.752Z" fill="#E0E0E0"/>
<path opacity="0.8" d="M137.692 120.139L181.996 94.5546C182.37 94.3425 182.67 94.4922 182.67 94.8978C182.654 95.1248 182.584 95.3449 182.467 95.54C182.35 95.7352 182.189 95.9 181.996 96.021L137.692 121.605C137.317 121.817 137.018 121.667 137.018 121.262C137.034 121.035 137.103 120.815 137.221 120.62C137.338 120.425 137.499 120.26 137.692 120.139Z" fill="#E0E0E0"/>
<path opacity="0.8" d="M137.692 124.532L181.996 98.9477C182.37 98.7293 182.67 98.8853 182.67 99.2847C182.654 99.5118 182.585 99.732 182.468 99.9272C182.351 100.122 182.189 100.287 181.996 100.408L137.692 125.992C137.317 126.21 137.018 126.054 137.018 125.655C137.034 125.428 137.103 125.208 137.22 125.012C137.337 124.817 137.499 124.652 137.692 124.532Z" fill="#E0E0E0"/>
<path opacity="0.8" d="M137.692 128.931L181.996 103.347C182.37 103.135 182.67 103.285 182.67 103.69C182.654 103.917 182.584 104.137 182.467 104.332C182.35 104.528 182.189 104.692 181.996 104.814L137.692 130.398C137.317 130.61 137.018 130.46 137.018 130.054C137.034 129.827 137.103 129.607 137.221 129.412C137.338 129.217 137.499 129.052 137.692 128.931Z" fill="#E0E0E0"/>
<path d="M137.692 147.576L181.996 121.992C182.37 121.774 182.67 121.93 182.67 122.329C182.654 122.556 182.585 122.776 182.468 122.972C182.351 123.167 182.189 123.332 181.996 123.452L137.692 149.036C137.317 149.255 137.018 149.099 137.018 148.693C137.034 148.467 137.103 148.248 137.221 148.054C137.338 147.859 137.499 147.696 137.692 147.576Z" fill="#E0E0E0"/>
<path d="M137.692 151.963L181.996 126.379C182.37 126.167 182.67 126.316 182.67 126.722C182.654 126.949 182.584 127.169 182.467 127.364C182.35 127.559 182.189 127.724 181.996 127.845L137.692 153.429C137.317 153.641 137.018 153.492 137.018 153.086C137.034 152.859 137.103 152.639 137.221 152.444C137.338 152.249 137.499 152.084 137.692 151.963Z" fill="#E0E0E0"/>
<path d="M137.692 156.356L181.996 130.772C182.37 130.554 182.67 130.71 182.67 131.109C182.654 131.336 182.585 131.556 182.468 131.751C182.351 131.947 182.189 132.111 181.996 132.232L137.692 157.816C137.317 158.034 137.018 157.878 137.018 157.479C137.034 157.252 137.103 157.032 137.22 156.837C137.337 156.641 137.499 156.477 137.692 156.356Z" fill="#E0E0E0"/>
<path d="M137.692 160.755L181.996 135.171C182.37 134.959 182.67 135.108 182.67 135.514C182.654 135.741 182.584 135.961 182.467 136.156C182.35 136.351 182.189 136.516 181.996 136.637L137.692 162.221C137.317 162.433 137.018 162.284 137.018 161.878C137.034 161.651 137.103 161.431 137.221 161.236C137.338 161.041 137.499 160.876 137.692 160.755Z" fill="#E0E0E0"/>
<path opacity="0.8" d="M137.692 147.576L181.996 121.992C182.37 121.774 182.67 121.93 182.67 122.329C182.654 122.556 182.585 122.776 182.468 122.972C182.351 123.167 182.189 123.332 181.996 123.452L137.692 149.036C137.317 149.255 137.018 149.099 137.018 148.693C137.034 148.467 137.103 148.248 137.221 148.054C137.338 147.859 137.499 147.696 137.692 147.576Z" fill="#E0E0E0"/>
<path opacity="0.8" d="M137.692 151.963L181.996 126.379C182.37 126.167 182.67 126.316 182.67 126.722C182.654 126.949 182.584 127.169 182.467 127.364C182.35 127.559 182.189 127.724 181.996 127.845L137.692 153.429C137.317 153.641 137.018 153.492 137.018 153.086C137.034 152.859 137.103 152.639 137.221 152.444C137.338 152.249 137.499 152.084 137.692 151.963Z" fill="#E0E0E0"/>
<path opacity="0.8" d="M137.692 156.356L181.996 130.772C182.37 130.554 182.67 130.71 182.67 131.109C182.654 131.336 182.585 131.556 182.468 131.751C182.351 131.947 182.189 132.111 181.996 132.232L137.692 157.816C137.317 158.034 137.018 157.878 137.018 157.479C137.034 157.252 137.103 157.032 137.22 156.837C137.337 156.641 137.499 156.477 137.692 156.356Z" fill="#E0E0E0"/>
<path opacity="0.8" d="M137.692 160.755L181.996 135.171C182.37 134.959 182.67 135.108 182.67 135.514C182.654 135.741 182.584 135.961 182.467 136.156C182.35 136.351 182.189 136.516 181.996 136.637L137.692 162.221C137.317 162.433 137.018 162.284 137.018 161.878C137.034 161.651 137.103 161.431 137.221 161.236C137.338 161.041 137.499 160.876 137.692 160.755Z" fill="#E0E0E0"/>
<path d="M137.692 180.024L181.996 154.44C182.37 154.222 182.67 154.377 182.67 154.777C182.654 155.004 182.585 155.224 182.468 155.419C182.351 155.615 182.189 155.779 181.996 155.9L137.692 181.484C137.317 181.702 137.018 181.546 137.018 181.141C137.034 180.915 137.103 180.696 137.221 180.501C137.338 180.307 137.499 180.144 137.692 180.024Z" fill="#E0E0E0"/>
<path d="M137.692 184.411L181.996 158.827C182.37 158.614 182.67 158.764 182.67 159.17C182.654 159.397 182.584 159.617 182.467 159.812C182.35 160.007 182.189 160.172 181.996 160.293L137.692 185.877C137.317 186.089 137.018 185.939 137.018 185.534C137.034 185.307 137.103 185.087 137.221 184.892C137.338 184.696 137.499 184.532 137.692 184.411Z" fill="#E0E0E0"/>
<path d="M137.692 188.804L181.996 163.22C182.37 163.001 182.67 163.157 182.67 163.557C182.654 163.784 182.585 164.004 182.468 164.199C182.351 164.394 182.189 164.559 181.996 164.68L137.692 190.264C137.317 190.482 137.018 190.326 137.018 189.927C137.034 189.7 137.103 189.48 137.22 189.284C137.337 189.089 137.499 188.924 137.692 188.804Z" fill="#E0E0E0"/>
<path d="M137.692 193.203L181.996 167.619C182.37 167.407 182.67 167.557 182.67 167.962C182.654 168.189 182.584 168.409 182.467 168.604C182.35 168.8 182.189 168.964 181.996 169.085L137.692 194.669C137.317 194.882 137.018 194.732 137.018 194.326C137.034 194.099 137.103 193.879 137.221 193.684C137.338 193.489 137.499 193.324 137.692 193.203Z" fill="#E0E0E0"/>
<path opacity="0.8" d="M137.692 180.024L181.996 154.44C182.37 154.222 182.67 154.377 182.67 154.777C182.654 155.004 182.585 155.224 182.468 155.419C182.351 155.615 182.189 155.779 181.996 155.9L137.692 181.484C137.317 181.702 137.018 181.546 137.018 181.141C137.034 180.915 137.103 180.696 137.221 180.501C137.338 180.307 137.499 180.144 137.692 180.024Z" fill="#E0E0E0"/>
<path opacity="0.8" d="M137.692 184.411L181.996 158.827C182.37 158.614 182.67 158.764 182.67 159.17C182.654 159.397 182.584 159.617 182.467 159.812C182.35 160.007 182.189 160.172 181.996 160.293L137.692 185.877C137.317 186.089 137.018 185.939 137.018 185.534C137.034 185.307 137.103 185.087 137.221 184.892C137.338 184.696 137.499 184.532 137.692 184.411Z" fill="#E0E0E0"/>
<path opacity="0.8" d="M137.692 188.804L181.996 163.22C182.37 163.001 182.67 163.157 182.67 163.557C182.654 163.784 182.585 164.004 182.468 164.199C182.351 164.394 182.189 164.559 181.996 164.68L137.692 190.264C137.317 190.482 137.018 190.326 137.018 189.927C137.034 189.7 137.103 189.48 137.22 189.284C137.337 189.089 137.499 188.924 137.692 188.804Z" fill="#E0E0E0"/>
<path opacity="0.8" d="M137.692 193.203L181.996 167.619C182.37 167.407 182.67 167.557 182.67 167.962C182.654 168.189 182.584 168.409 182.467 168.604C182.35 168.8 182.189 168.964 181.996 169.085L137.692 194.669C137.317 194.882 137.018 194.732 137.018 194.326C137.034 194.099 137.103 193.879 137.221 193.684C137.338 193.489 137.499 193.324 137.692 193.203Z" fill="#E0E0E0"/>
<path d="M138.097 137.461L141.024 135.782C141.648 135.439 142.103 135.72 142.103 136.406V139.776C142.084 140.151 141.976 140.516 141.789 140.842C141.601 141.167 141.339 141.443 141.024 141.648L138.116 143.326C137.492 143.67 137.037 143.395 137.037 142.702V139.345C137.052 138.97 137.157 138.603 137.341 138.276C137.525 137.948 137.785 137.669 138.097 137.461Z" fill="#2C557D"/>
<path opacity="0.2" d="M138.097 137.461L141.024 135.782C141.648 135.439 142.103 135.72 142.103 136.406V139.776C142.084 140.151 141.976 140.516 141.789 140.842C141.601 141.167 141.339 141.443 141.024 141.648L138.116 143.326C137.492 143.67 137.037 143.395 137.037 142.702V139.345C137.052 138.97 137.157 138.603 137.341 138.276C137.525 137.948 137.785 137.669 138.097 137.461Z" fill="white"/>
<path d="M145.972 134.379L163.544 124.232C164.293 123.802 164.898 124.108 164.898 124.912C164.865 125.367 164.725 125.807 164.49 126.198C164.255 126.588 163.931 126.917 163.544 127.159L145.972 137.28C145.224 137.711 144.618 137.405 144.618 136.6C144.655 136.15 144.797 135.714 145.032 135.329C145.267 134.943 145.589 134.618 145.972 134.379Z" fill="#2C557D"/>
<path opacity="0.8" d="M145.972 134.379L163.544 124.232C164.293 123.802 164.898 124.108 164.898 124.912C164.865 125.367 164.725 125.807 164.49 126.198C164.255 126.588 163.931 126.917 163.544 127.159L145.972 137.28C145.224 137.711 144.618 137.405 144.618 136.6C144.655 136.15 144.797 135.714 145.032 135.329C145.267 134.943 145.589 134.618 145.972 134.379Z" fill="white"/>
<path d="M138.097 169.659L141.024 167.981C141.648 167.631 142.103 167.912 142.103 168.605V171.962C142.084 172.337 141.976 172.702 141.788 173.027C141.6 173.353 141.339 173.629 141.024 173.834L138.116 175.513C137.492 175.856 137.037 175.575 137.037 174.889V171.531C137.054 171.158 137.159 170.794 137.343 170.469C137.527 170.143 137.786 169.866 138.097 169.659Z" fill="#2C557D"/>
<path opacity="0.2" d="M138.097 169.659L141.024 167.981C141.648 167.631 142.103 167.912 142.103 168.605V171.962C142.084 172.337 141.976 172.702 141.788 173.027C141.6 173.353 141.339 173.629 141.024 173.834L138.116 175.513C137.492 175.856 137.037 175.575 137.037 174.889V171.531C137.054 171.158 137.159 170.794 137.343 170.469C137.527 170.143 137.786 169.866 138.097 169.659Z" fill="white"/>
<path d="M145.972 166.608L163.544 156.456C164.293 156.025 164.898 156.331 164.898 157.142C164.865 157.597 164.725 158.037 164.49 158.427C164.254 158.817 163.93 159.147 163.544 159.389L145.972 169.535C145.224 169.965 144.618 169.66 144.618 168.848C144.652 168.395 144.792 167.956 145.028 167.567C145.263 167.177 145.587 166.849 145.972 166.608Z" fill="#2C557D"/>
<path opacity="0.8" d="M145.972 166.608L163.544 156.456C164.293 156.025 164.898 156.331 164.898 157.142C164.865 157.597 164.725 158.037 164.49 158.427C164.254 158.817 163.93 159.147 163.544 159.389L145.972 169.535C145.224 169.965 144.618 169.66 144.618 168.848C144.652 168.395 144.792 167.956 145.028 167.567C145.263 167.177 145.587 166.849 145.972 166.608Z" fill="white"/>
<path d="M142.235 198.001L145.142 196.323C145.766 195.98 146.228 196.26 146.228 196.947V200.304C146.208 200.679 146.099 201.045 145.91 201.37C145.721 201.696 145.458 201.972 145.142 202.176L142.235 203.854C141.642 204.204 141.155 203.923 141.155 203.23V199.873C141.177 199.499 141.286 199.134 141.473 198.809C141.66 198.484 141.921 198.208 142.235 198.001Z" fill="#2C557D"/>
<path d="M137.692 209.408L149.691 202.482C150.066 202.27 150.365 202.419 150.365 202.825C150.349 203.052 150.28 203.272 150.163 203.467C150.046 203.662 149.884 203.827 149.691 203.948L137.692 210.875C137.317 211.087 137.018 210.937 137.018 210.531C137.034 210.304 137.103 210.084 137.221 209.889C137.338 209.694 137.499 209.529 137.692 209.408Z" fill="#E0E0E0"/>
<path d="M158.377 188.679L161.285 187C161.878 186.657 162.365 186.938 162.365 187.624V190.982C162.345 191.356 162.236 191.721 162.049 192.047C161.861 192.372 161.6 192.648 161.285 192.854L158.377 194.532C157.753 194.875 157.292 194.601 157.292 193.908V190.551C157.313 190.176 157.422 189.81 157.611 189.485C157.799 189.16 158.062 188.884 158.377 188.679Z" fill="#2C557D"/>
<path d="M153.828 200.086L165.828 193.159C166.202 192.941 166.502 193.097 166.502 193.503C166.486 193.729 166.416 193.948 166.299 194.142C166.182 194.336 166.021 194.5 165.828 194.62L153.828 201.552C153.454 201.771 153.155 201.615 153.155 201.215C153.169 200.987 153.238 200.766 153.355 200.569C153.472 200.373 153.635 200.207 153.828 200.086Z" fill="#E0E0E0"/>
<path d="M174.514 179.356L177.422 177.678C178.015 177.328 178.501 177.609 178.501 178.302V181.659C178.48 182.033 178.371 182.398 178.184 182.723C177.997 183.048 177.736 183.325 177.422 183.531L174.514 185.209C173.89 185.553 173.435 185.272 173.435 184.585V181.228C173.454 180.853 173.562 180.488 173.749 180.163C173.937 179.837 174.199 179.561 174.514 179.356Z" fill="#2C557D"/>
<path opacity="0.2" d="M142.235 198.001L145.142 196.323C145.766 195.98 146.228 196.26 146.228 196.947V200.304C146.208 200.679 146.099 201.045 145.91 201.37C145.721 201.696 145.458 201.972 145.142 202.176L142.235 203.854C141.642 204.204 141.155 203.923 141.155 203.23V199.873C141.177 199.499 141.286 199.134 141.473 198.809C141.66 198.484 141.921 198.208 142.235 198.001Z" fill="white"/>
<path opacity="0.2" d="M158.377 188.679L161.285 187C161.878 186.657 162.365 186.938 162.365 187.624V190.982C162.345 191.356 162.236 191.721 162.049 192.047C161.861 192.372 161.6 192.648 161.285 192.854L158.377 194.532C157.753 194.875 157.292 194.601 157.292 193.908V190.551C157.313 190.176 157.422 189.81 157.611 189.485C157.799 189.16 158.062 188.884 158.377 188.679Z" fill="white"/>
<path opacity="0.2" d="M174.514 179.356L177.422 177.678C178.015 177.328 178.501 177.609 178.501 178.302V181.659C178.48 182.033 178.371 182.398 178.184 182.723C177.997 183.048 177.736 183.325 177.422 183.531L174.514 185.209C173.89 185.553 173.435 185.272 173.435 184.585V181.228C173.454 180.853 173.562 180.488 173.749 180.163C173.937 179.837 174.199 179.561 174.514 179.356Z" fill="white"/>
<path d="M169.965 190.763L181.965 183.837C182.339 183.618 182.639 183.774 182.639 184.174C182.623 184.401 182.554 184.621 182.437 184.816C182.319 185.012 182.158 185.176 181.965 185.297L169.965 192.223C169.597 192.442 169.291 192.286 169.291 191.88C169.309 191.654 169.379 191.436 169.496 191.242C169.613 191.048 169.774 190.884 169.965 190.763Z" fill="#E0E0E0"/>
<path d="M110.504 86.6485C103.503 90.5922 97.8307 100.42 97.8307 108.595C97.8307 116.769 103.503 120.126 110.504 116.083C117.505 112.039 123.178 102.217 123.178 94.1303C123.178 86.0432 117.499 82.6986 110.504 86.6485Z" fill="#FAFAFA"/>
<path d="M116.644 111.839L106.498 114.56C106.323 114.617 106.137 114.629 105.956 114.596C105.776 114.563 105.606 114.486 105.463 114.37C105.32 114.255 105.208 114.106 105.137 113.936C105.066 113.767 105.038 113.582 105.057 113.399V96.127C105.092 94.6974 105.57 93.3138 106.424 92.1664C107.277 91.019 108.465 90.1639 109.824 89.7186L113.293 88.7888C115.933 88.0837 118.073 89.8059 118.073 92.6326V109.911C118.062 110.34 117.919 110.756 117.663 111.101C117.407 111.446 117.052 111.704 116.644 111.839Z" fill="#37474F"/>
<path d="M117.131 116.307L116.064 111.596C116.064 111.596 116.064 105.237 115.159 104.651C114.254 104.064 113.992 103.952 113.992 103.952C115.153 103.553 117.599 103.253 118.36 105.487C119.09 107.596 120.182 112.794 120.7 115.352L117.131 116.307Z" fill="#F28F8F"/>
<path d="M117.044 116.332L113.424 104.008C115.028 103.384 117.087 102.867 118.086 104.52C118.984 106.005 120.42 113.786 120.7 115.353L117.044 116.332Z" fill="#2C557D"/>
<g opacity="0.4">
<path opacity="0.4" d="M117.044 116.332L113.424 104.008C115.028 103.384 117.087 102.867 118.086 104.52C118.984 106.005 120.42 113.786 120.7 115.353L117.044 116.332Z" fill="black"/>
</g>
<path d="M117.53 116.201L113.974 117.156C114.117 116.134 114.454 115.15 114.966 114.254C115.678 113.228 116.702 112.46 117.886 112.064C117.63 113.428 117.511 114.814 117.53 116.201Z" fill="#2C557D"/>
<path d="M117.53 116.201L113.974 117.156C114.117 116.134 114.454 115.15 114.966 114.254C115.678 113.228 116.702 112.46 117.886 112.064C117.63 113.428 117.511 114.814 117.53 116.201Z" fill="#2C557D"/>
<g opacity="0.7">
<path opacity="0.7" d="M117.53 116.201L113.974 117.156C114.117 116.134 114.454 115.15 114.966 114.254C115.678 113.228 116.702 112.46 117.886 112.064C117.63 113.428 117.511 114.814 117.53 116.201Z" fill="black"/>
</g>
<path d="M116.769 116.407L106.785 119.071L105.687 115.671C105.687 115.671 108.601 108.85 105 107.097C105.456 106.754 109.294 105.256 109.294 105.256L113.418 104.008C114.204 103.796 117.381 105.206 118.186 108.332C118.473 109.437 118.373 110.429 116.757 116.182C116.775 116.257 116.769 116.332 116.769 116.407Z" fill="#2C557D"/>
<path d="M115.945 90.9106C116.632 91.1602 117.48 92.7826 117.399 96.6951C117.331 100.015 116.332 101.063 115.833 101.462C115.085 101.837 114.261 102.031 113.424 102.03V104.008C113.424 104.008 114.722 105.256 114.641 106.205C114.56 107.153 112.769 107.827 111.559 107.266C110.674 106.767 109.91 106.081 109.319 105.256V100.701C109.227 100.806 109.116 100.892 108.992 100.954C108.867 101.015 108.731 101.052 108.592 101.06C108.454 101.069 108.315 101.05 108.183 101.004C108.052 100.959 107.931 100.888 107.827 100.795C107.632 100.661 107.466 100.49 107.339 100.292C107.211 100.093 107.125 99.8705 107.084 99.6378C107.044 99.4051 107.051 99.1667 107.105 98.9367C107.159 98.7067 107.258 98.4898 107.397 98.2988C108.021 97.4814 109.113 97.3628 109.537 98.1802C110.065 96.8982 111.011 95.8318 112.22 95.1538C114.192 93.9558 115.265 92.8887 115.945 90.9106Z" fill="#FFA8A7"/>
<path d="M113.967 96.7885C113.97 96.9068 113.936 97.0231 113.87 97.1214C113.804 97.2197 113.71 97.2952 113.599 97.3376C113.552 97.3539 113.502 97.3584 113.453 97.351C113.404 97.3435 113.357 97.3241 113.318 97.2947C113.278 97.2652 113.245 97.2264 113.224 97.1817C113.202 97.137 113.192 97.0877 113.194 97.0381C113.191 96.9198 113.225 96.8035 113.291 96.7052C113.357 96.6069 113.451 96.5314 113.562 96.489C113.609 96.4728 113.659 96.4682 113.708 96.4757C113.757 96.4832 113.803 96.5025 113.843 96.532C113.883 96.5615 113.916 96.6002 113.937 96.6449C113.959 96.6896 113.969 96.7389 113.967 96.7885Z" fill="#37474F"/>
<path d="M114.067 99.5591L114.966 99.6215C114.939 99.7585 114.868 99.8827 114.763 99.9743C114.658 100.066 114.525 100.12 114.385 100.127C114.136 100.108 113.992 99.8399 114.067 99.5591Z" fill="#F28F8F"/>
<path d="M117.137 94.6669L116.357 94.2988C116.404 94.1781 116.493 94.0789 116.608 94.0201C116.723 93.9614 116.856 93.9473 116.981 93.9805C117.037 94.0149 117.085 94.0601 117.124 94.1134C117.162 94.1667 117.189 94.2271 117.203 94.291C117.218 94.3549 117.22 94.4211 117.208 94.4856C117.197 94.5502 117.173 94.6118 117.137 94.6669Z" fill="#37474F"/>
<path d="M112.844 96.1269L113.624 95.3344C113.583 95.2924 113.533 95.2595 113.478 95.2381C113.423 95.2166 113.364 95.207 113.305 95.21C113.246 95.2129 113.189 95.2283 113.136 95.2552C113.083 95.282 113.037 95.3196 113 95.3656C112.892 95.4562 112.818 95.5808 112.789 95.719C112.761 95.8573 112.78 96.0011 112.844 96.1269Z" fill="#37474F"/>
<path d="M116.956 95.6904C116.96 95.8089 116.926 95.9255 116.86 96.024C116.794 96.1225 116.699 96.1978 116.588 96.2395C116.541 96.2559 116.49 96.2605 116.44 96.2527C116.391 96.2449 116.344 96.225 116.304 96.1948C116.264 96.1646 116.232 96.125 116.211 96.0794C116.189 96.0339 116.18 95.9838 116.183 95.9337C116.181 95.8156 116.215 95.6997 116.281 95.6016C116.347 95.5035 116.441 95.4278 116.551 95.3846C116.598 95.3681 116.649 95.3636 116.698 95.3714C116.748 95.3792 116.795 95.3991 116.835 95.4293C116.875 95.4595 116.907 95.4991 116.928 95.5447C116.95 95.5902 116.959 95.6402 116.956 95.6904Z" fill="#37474F"/>
<path d="M115.134 95.9399L115.19 98.4172L116.42 97.6809L115.134 95.9399Z" fill="#F28F8F"/>
<path d="M113.424 102.03C112.439 102.155 110.404 102.074 110.086 101.3C110.201 101.68 110.455 102.003 110.797 102.205C111.421 102.604 113.424 102.691 113.424 102.691V102.03Z" fill="#F28F8F"/>
<path d="M106.841 119.065L106.423 117.58L107.521 118.884L106.841 119.065Z" fill="#2C557D"/>
<path d="M106.024 119.284C105.576 117.149 104.969 115.051 104.208 113.006C103.16 110.13 104.333 107.646 105.038 107.097C105.743 106.548 109.331 105.256 109.331 105.256C110.629 108.95 110.985 113.899 111.016 117.949L106.024 119.284Z" fill="#2C557D"/>
<path opacity="0.4" d="M106.024 119.284C105.576 117.149 104.969 115.051 104.208 113.006C103.16 110.13 104.333 107.646 105.038 107.097C105.743 106.548 109.331 105.256 109.331 105.256C110.629 108.95 110.985 113.899 111.016 117.949L106.024 119.284Z" fill="black"/>
<path d="M104.252 119.758L100.689 120.713C100.589 120.646 100.495 120.571 100.408 120.488C100.408 120.488 102.093 113.986 102.629 111.827C103.166 109.668 103.578 108.183 105.025 107.097C107.628 108.788 106.423 113.487 106.423 113.487L104.252 119.758Z" fill="#2C557D"/>
<path opacity="0.4" d="M104.252 119.758L100.689 120.713C100.589 120.646 100.495 120.571 100.408 120.488C100.408 120.488 102.093 113.986 102.629 111.827C103.166 109.668 103.578 108.183 105.025 107.097C107.628 108.788 106.423 113.487 106.423 113.487L104.252 119.758Z" fill="black"/>
<path d="M52.3723 78.2055V65.844C52.3349 63.4479 53.8949 61.0455 57.0585 59.2234C63.2985 55.6104 73.4448 55.6104 79.6973 59.2234C82.8609 61.0455 84.4209 63.4479 84.3835 65.844V78.1618C84.3835 80.5455 82.8485 84.8074 79.6973 86.6232C73.4573 90.2362 63.311 90.2362 57.0585 86.6232C53.9385 84.8261 52.3785 80.5954 52.3723 78.2304V78.2055Z" fill="#EBEBEB"/>
<path d="M68.3779 50.5063L94.7918 65.7569L68.3779 81.0075L41.964 65.7569L68.3779 50.5063Z" fill="#F5F5F5"/>
<path d="M55.1616 73.376L68.172 65.9504C68.2257 65.9197 68.2849 65.8998 68.3462 65.892C68.4076 65.8841 68.4699 65.8885 68.5295 65.9047C68.5892 65.9209 68.6451 65.9487 68.694 65.9866C68.743 66.0244 68.784 66.0715 68.8147 66.1252C68.8454 66.1788 68.8653 66.238 68.8731 66.2994C68.881 66.3607 68.8767 66.423 68.8605 66.4827C68.8442 66.5424 68.8164 66.5983 68.7786 66.6472C68.7408 66.6961 68.6937 66.7371 68.64 66.7679L56.0913 73.9127L55.1616 73.376Z" fill="#E0E0E0"/>
<path d="M94.7918 65.7568V66.8488L68.3779 82.0932V81.0074L94.7918 65.7568Z" fill="#E6E6E6"/>
<path d="M41.964 65.7568V66.8488L68.3779 82.0932V81.0074L41.964 65.7568Z" fill="#F0F0F0"/>
<path d="M54.5064 74.0874L55.3113 74.5492C55.433 74.3505 55.6025 74.1853 55.8043 74.0687L56.0851 73.9065L55.1678 73.3823C54.8969 73.5643 54.6707 73.8054 54.5064 74.0874Z" fill="#E0E0E0"/>
<path d="M84.4147 72.8394L68.3779 83.7281L52.3848 72.8643L68.3779 82.0933L84.4147 72.8394Z" fill="#E0E0E0"/>
<path d="M53.4768 86.9292C53.7006 87.0447 53.9488 87.1049 54.2006 87.1049C54.4525 87.1049 54.7006 87.0447 54.9245 86.9292L56.1163 94.6231C56.1163 96.077 52.3411 96.077 52.3411 94.6231L53.4768 86.9292Z" fill="#F5F5F5"/>
<path d="M53.4081 91.3223L53.171 95.5405C53.0932 95.5169 53.0179 95.4856 52.9464 95.4469L53.4081 91.3223Z" fill="#EBEBEB"/>
<path d="M55.1928 95.5715L54.6936 88.7075L55.4362 95.4717C55.3571 95.5098 55.2758 95.5431 55.1928 95.5715Z" fill="#EBEBEB"/>
<path d="M54.3441 95.7088H54.107L54.2318 90.2612L54.3441 95.7088Z" fill="#EBEBEB"/>
<path d="M54.1944 87.5718C54.471 87.5649 54.7388 87.4735 54.9619 87.3098C55.0567 87.2397 55.1212 87.1361 55.1421 87.0201C55.163 86.9041 55.1387 86.7844 55.0742 86.6858C55.0061 86.5886 54.9028 86.5219 54.7863 86.4998C54.6698 86.4776 54.5492 86.5018 54.4502 86.5672C54.3908 86.6248 54.3114 86.657 54.2287 86.657C54.146 86.657 54.0665 86.6248 54.0072 86.5672C53.9586 86.524 53.9016 86.4914 53.8398 86.4714C53.778 86.4514 53.7127 86.4445 53.648 86.4512C53.5834 86.4578 53.5209 86.4779 53.4644 86.51C53.4079 86.5422 53.3588 86.5857 53.3201 86.6379C53.2814 86.6901 53.2539 86.7498 53.2396 86.8132C53.2252 86.8765 53.2242 86.9422 53.2366 87.006C53.249 87.0698 53.2745 87.1303 53.3115 87.1837C53.3486 87.237 53.3964 87.2821 53.4518 87.316C53.6666 87.4766 53.9262 87.5661 54.1944 87.5718Z" fill="#E0E0E0"/>
<path d="M54.2256 86.374C54.2868 86.3749 54.3475 86.3635 54.4042 86.3407C54.461 86.3179 54.5126 86.284 54.5562 86.241C54.5997 86.1981 54.6343 86.1469 54.6579 86.0904C54.6815 86.034 54.6936 85.9734 54.6936 85.9123V75.0048C54.6942 74.7595 54.7591 74.5187 54.8817 74.3063C55.0043 74.0939 55.1804 73.9174 55.3925 73.7942L68.64 66.2438C68.7452 66.1836 68.8225 66.0843 68.8552 65.9676C68.8879 65.8508 68.8733 65.7259 68.8147 65.6198C68.7855 65.5671 68.7461 65.5207 68.6988 65.4834C68.6515 65.446 68.5972 65.4184 68.5392 65.4021C68.4812 65.3859 68.4205 65.3813 68.3607 65.3887C68.3008 65.396 68.2431 65.4152 68.1907 65.4451L54.912 73.008C54.558 73.2123 54.264 73.5061 54.0592 73.8598C53.8544 74.2135 53.7461 74.6148 53.7451 75.0235V85.931C53.7475 85.9917 53.7619 86.0512 53.7873 86.1063C53.8128 86.1614 53.8489 86.211 53.8935 86.2521C53.9381 86.2933 53.9904 86.3252 54.0474 86.3462C54.1044 86.3671 54.1649 86.3765 54.2256 86.374Z" fill="#FAFAFA"/>
<path d="M55.2489 85.9119C55.2502 85.7093 55.1912 85.5108 55.0795 85.3417C54.9678 85.1726 54.8084 85.0404 54.6215 84.962C54.4347 84.8836 54.2287 84.8625 54.0298 84.9012C53.8309 84.94 53.6479 85.037 53.5042 85.1799C53.3604 85.3227 53.2624 85.5051 53.2224 85.7037C53.1824 85.9024 53.2023 86.1085 53.2795 86.2959C53.3568 86.4832 53.488 86.6434 53.6564 86.7561C53.8248 86.8689 54.0229 86.929 54.2256 86.929C54.3597 86.9299 54.4926 86.9042 54.6167 86.8534C54.7409 86.8027 54.8537 86.7279 54.9488 86.6334C55.0439 86.5388 55.1194 86.4264 55.1709 86.3026C55.2224 86.1788 55.2489 86.046 55.2489 85.9119Z" fill="#F5F5F5"/>
<path d="M53.2147 85.9684C53.2573 86.074 53.3222 86.1691 53.4049 86.2474C53.4876 86.3256 53.5862 86.3851 53.694 86.4218C53.8018 86.4585 53.9162 86.4716 54.0294 86.4601C54.1427 86.4486 54.2522 86.4129 54.3504 86.3553C54.4757 86.2798 54.5794 86.1732 54.6514 86.0458C54.7233 85.9184 54.7612 85.7746 54.7612 85.6283C54.7612 85.482 54.7233 85.3382 54.6514 85.2108C54.5794 85.0835 54.4757 84.9769 54.3504 84.9014C54.5413 84.9277 54.7208 85.0077 54.8679 85.1321C55.0151 85.2565 55.1239 85.4202 55.1817 85.604C55.2395 85.7878 55.2438 85.9843 55.1943 86.1705C55.1447 86.3568 55.0433 86.5251 54.9018 86.6559C54.7602 86.7867 54.5845 86.8746 54.395 86.9094C54.2054 86.9441 54.0099 86.9244 53.8312 86.8523C53.6524 86.7803 53.4978 86.659 53.3854 86.5025C53.2729 86.346 53.2073 86.1608 53.196 85.9684H53.2147Z" fill="#EBEBEB"/>
<path d="M235.005 79.8911L230.181 77.1143L232.833 76.5527L235.473 78.3935L235.005 79.8911Z" fill="#E0E0E0"/>
<path d="M226.562 55.037C226.562 47.549 221.976 44.0733 216.341 47.3243L208.017 52.1291C202.401 55.3802 197.802 64.1411 197.802 71.6541C197.802 71.9599 197.802 72.2781 197.802 72.5464C197.802 72.7149 197.802 72.8584 197.802 73.0207C197.802 73.1829 197.833 73.3139 197.845 73.4575C197.858 73.601 197.883 73.7882 197.908 73.9504C198.033 74.8372 198.255 75.7076 198.569 76.5463C198.7 76.8583 198.838 77.1703 198.987 77.4323C199.057 77.5771 199.136 77.7168 199.224 77.8504L199.306 77.9815C199.445 78.205 199.605 78.414 199.786 78.6055C199.886 78.7178 199.98 78.8363 200.086 78.9424L200.41 79.2544C200.522 79.3418 200.628 79.4479 200.747 79.5352C200.859 79.6255 200.978 79.7069 201.103 79.7786L201.471 79.9907C201.948 80.2481 202.465 80.4232 203 80.5087C203.041 80.4986 203.083 80.4986 203.124 80.5087C203.268 80.5087 203.399 80.5399 203.543 80.5399C203.694 80.5523 203.847 80.5523 203.998 80.5399C204.399 80.5442 204.799 80.5002 205.19 80.4088C205.424 80.3623 205.655 80.304 205.883 80.2341C206.612 80.0107 207.311 79.7007 207.967 79.3106L216.291 74.5058C216.861 74.1745 217.408 73.8033 217.926 73.3951C217.926 73.2952 217.926 73.2079 217.926 73.1143C217.926 73.0207 217.926 72.821 217.926 72.7087C217.926 72.4591 217.926 72.2032 217.926 71.9474C217.907 65.5639 221.751 58.0322 226.562 55.037Z" fill="#E0E0E0"/>
<path d="M227.966 49.6395L223.13 46.8564C223.161 46.8564 223.623 50.2198 223.623 50.2198L227.211 50.6441L227.966 49.6395Z" fill="#E0E0E0"/>
<path d="M205.62 82.3431L201.153 79.8097L203.842 78.6553L205.62 82.3431Z" fill="#E0E0E0"/>
<path d="M208.017 79.3853C207.985 81.2345 207.391 83.0302 206.313 84.5333C206.113 84.7954 206.419 85.0263 206.644 84.9077C207.664 84.3785 208.567 83.6508 209.302 82.7674C210.713 81.0994 211.7 79.1148 212.179 76.9829L208.017 79.3853Z" fill="#E0E0E0"/>
<path d="M206.363 84.8955L211.199 87.6786C211.199 87.6786 213.913 85.3885 213.913 80.7522L208.666 80.3965C208.666 80.3965 208.541 83.4166 206.363 84.8955Z" fill="#E0E0E0"/>
<path d="M219.242 71.2549C219.242 71.4878 219.242 71.7125 219.242 71.9288C219.242 72.0536 219.242 72.1597 219.242 72.2782C219.242 72.3968 219.242 72.4966 219.28 72.6089C219.317 72.7213 219.28 72.8585 219.324 72.9833C219.396 73.5361 219.525 74.0798 219.71 74.6057C219.737 74.7015 219.77 74.7954 219.81 74.8865C219.856 75.0119 219.908 75.1348 219.966 75.2547C220.015 75.3706 220.071 75.4832 220.135 75.5917C220.184 75.7004 220.243 75.8047 220.309 75.9037L220.372 76.0035C220.482 76.1754 220.603 76.34 220.734 76.4965C220.802 76.5874 220.877 76.673 220.958 76.7523L221.196 76.9832C221.276 77.0591 221.362 77.1299 221.451 77.1953C221.537 77.2614 221.626 77.3218 221.72 77.3763C221.813 77.4325 221.901 77.4886 222 77.5385L222.288 77.6758L222.587 77.7819C222.77 77.8372 222.955 77.883 223.142 77.9192H223.236C223.34 77.9287 223.444 77.9287 223.548 77.9192C223.66 77.9319 223.773 77.9319 223.885 77.9192C224.153 77.9191 224.421 77.8919 224.684 77.8381C224.894 77.8023 225.103 77.7544 225.308 77.6945C225.855 77.5267 226.381 77.2942 226.874 77.0019L233.114 73.3952C233.671 73.0739 234.195 72.6999 234.68 72.2782C234.855 72.1285 235.03 71.9662 235.204 71.804C235.519 71.511 235.817 71.2005 236.097 70.8742L236.496 70.5123C236.602 70.3875 236.702 70.2565 236.808 70.1254C236.834 70.0801 236.865 70.0381 236.902 70.0006C237.317 69.4512 237.7 68.8783 238.05 68.2846C238.143 68.1286 238.231 67.9664 238.324 67.8041C238.418 67.6419 238.505 67.4797 238.593 67.3112C238.68 67.1427 238.761 66.9742 238.848 66.812L239.086 66.3003C239.167 66.1318 239.242 65.9509 239.316 65.7886C239.448 65.4891 239.566 65.1646 239.672 64.8776C239.672 64.8214 239.716 64.7653 239.735 64.7091C239.803 64.5344 239.859 64.3597 239.916 64.1849C240.028 63.848 240.128 63.511 240.228 63.1616C240.447 62.3414 240.612 61.5076 240.72 60.6656C240.72 60.5221 240.752 60.3848 240.77 60.2413C240.789 60.0977 240.77 59.9979 240.802 59.8731C240.833 59.7483 240.802 59.6235 240.802 59.4987C240.802 59.2657 240.802 59.0349 240.802 58.8061C240.802 53.1901 237.363 50.563 233.133 53.0029L226.893 56.6158C222.681 59.0432 219.242 65.6139 219.242 71.2549Z" fill="#E0E0E0"/>
<path d="M243.054 55.3987L238.256 52.6406L236.446 53.9198L242.043 57.3081L243.054 55.3987Z" fill="#E0E0E0"/>
<path d="M226.581 80.1528L221.757 77.376L225.539 76.2466L226.581 80.1528Z" fill="#E0E0E0"/>
<path d="M232.209 74.0005C232.209 74.9989 233.457 76.3592 234.886 76.615C235.08 76.6525 235.03 77.0768 234.799 77.239C233.947 77.7016 232.965 77.8643 232.009 77.7008C231.389 77.6823 230.785 77.4992 230.258 77.1703C229.732 76.8413 229.303 76.3783 229.014 75.8288L232.209 74.0005Z" fill="#2C557D"/>
<path d="M221.171 50.1012L212.84 54.9122C207.224 58.1633 202.632 66.9242 202.632 74.431C202.632 74.743 202.632 75.055 202.632 75.3295C202.632 75.498 202.632 75.6415 202.632 75.8038C202.632 75.966 202.663 76.0908 202.681 76.2343C202.7 76.3778 202.719 76.5775 202.744 76.7335C202.857 77.6169 203.066 78.4853 203.368 79.3231C203.499 79.6414 203.636 79.9471 203.786 80.2154C203.855 80.3583 203.934 80.496 204.023 80.6273C204.049 80.6728 204.078 80.7166 204.11 80.7583C204.246 80.9941 204.405 81.2157 204.585 81.4198C204.684 81.5321 204.784 81.6569 204.89 81.7567L205.209 82.0687C205.321 82.1561 205.433 82.2622 205.546 82.3495C205.659 82.4384 205.777 82.5197 205.901 82.5929L206.276 82.805C206.751 83.0614 207.265 83.2365 207.798 83.323C207.839 83.3092 207.883 83.3092 207.923 83.323C208.067 83.323 208.204 83.323 208.341 83.323C208.493 83.3322 208.645 83.3322 208.797 83.323C209.198 83.3247 209.597 83.2807 209.988 83.1919C210.222 83.1455 210.453 83.0871 210.681 83.0172C211.409 82.7919 212.108 82.4842 212.765 82.0999C212.734 83.9483 212.138 85.7428 211.056 87.2417C210.856 87.51 211.162 87.7409 211.392 87.6223C212.414 87.0925 213.318 86.3625 214.051 85.4758C215.458 83.8077 216.445 81.8261 216.927 79.6975L216.303 80.0407L221.064 77.2951C221.525 77.0296 221.969 76.7358 222.394 76.4153C222.357 76.2569 222.33 76.0964 222.312 75.9348C222.312 75.8287 222.275 75.6727 222.263 75.5105C222.24 75.3721 222.225 75.2325 222.219 75.0924V75.0175C222.213 74.9136 222.213 74.8094 222.219 74.7055C222.219 74.4684 222.219 74.2188 222.219 73.9692C222.219 67.6543 225.963 60.5345 230.78 57.7452L231.311 57.4332C231.261 50.2135 226.724 46.8938 221.171 50.1012Z" fill="#F0F0F0"/>
<path d="M237.987 55.767L231.747 59.3737C227.523 61.8198 224.078 68.3905 224.078 74.0314C224.078 74.2623 224.078 74.487 224.078 74.7054C224.078 74.9238 224.078 74.9362 224.078 75.0548C224.078 75.1734 224.078 75.2732 224.11 75.3855C224.12 75.509 224.136 75.6319 224.16 75.7537C224.228 76.3092 224.358 76.8553 224.546 77.3823C224.57 77.479 224.604 77.5731 224.646 77.6631C224.689 77.7868 224.739 77.9077 224.796 78.025C224.846 78.1424 224.902 78.257 224.964 78.3682C225.016 78.4771 225.076 78.5815 225.145 78.6802C225.16 78.7157 225.179 78.7492 225.202 78.7801C225.32 78.9548 225.439 79.117 225.564 79.273C225.636 79.3626 225.713 79.448 225.794 79.5289L226.032 79.7598C226.112 79.8356 226.198 79.9065 226.287 79.9719C226.37 80.0393 226.457 80.0998 226.549 80.1529C226.643 80.209 226.73 80.2652 226.83 80.3151L227.117 80.4524L227.417 80.5585C227.599 80.6138 227.785 80.6596 227.972 80.6958H228.066C228.17 80.7053 228.274 80.7053 228.378 80.6958C228.492 80.7116 228.607 80.7116 228.721 80.6958C228.989 80.6973 229.257 80.6722 229.52 80.6209C229.73 80.5847 229.939 80.5367 230.144 80.4774C230.692 80.3119 231.218 80.0792 231.71 79.7847L233.819 78.5742C234.112 79.1179 234.543 79.5745 235.069 79.8978C235.595 80.2211 236.197 80.3995 236.814 80.415C237.77 80.576 238.753 80.4112 239.604 79.947C239.828 79.8034 239.884 79.3791 239.685 79.323C238.256 79.0671 237.014 77.7068 237.014 76.7084L237.962 76.1593C238.518 75.8365 239.042 75.4626 239.529 75.0423C239.703 74.8926 239.878 74.7303 240.047 74.5681C240.363 74.2751 240.663 73.9647 240.945 73.6383C241.057 73.5073 241.17 73.3825 241.282 73.2327C241.394 73.083 241.488 72.9831 241.594 72.8521L241.688 72.7273C242.103 72.1779 242.487 71.605 242.836 71.0113L243.117 70.5308C243.21 70.3686 243.298 70.2063 243.385 70.0378C243.472 69.8694 243.547 69.7009 243.635 69.5386L243.878 69.027C243.959 68.8522 244.028 68.6775 244.103 68.5153C244.234 68.2158 244.358 67.8913 244.464 67.6042L244.521 67.4358C244.589 67.261 244.652 67.0863 244.702 66.9116C244.82 66.5684 244.914 66.2377 245.02 65.8882C245.239 65.0681 245.404 64.2343 245.513 63.3922C245.513 63.2487 245.544 63.1114 245.556 62.9679C245.569 62.8244 245.556 62.7183 245.588 62.5998C245.619 62.4812 245.588 62.3502 245.588 62.2254C245.588 61.9945 245.588 61.7574 245.588 61.5265C245.656 55.9292 242.212 53.3271 237.987 55.767Z" fill="#F0F0F0"/>
<path d="M187.855 138.309C185.496 137.573 183.075 139.483 181.49 143.339C179.905 147.195 176.58 157.004 176.087 159.619C175.594 162.234 186.751 167.924 186.439 167.775C186.127 167.625 187.855 138.309 187.855 138.309Z" fill="#263238"/>
<path d="M182.67 229.077C182.333 229.201 182.252 229.838 182.202 231.098C182.164 232.053 181.958 233.719 183.075 234.05C184.192 234.381 185.833 234.212 186.551 233.314C187.443 232.19 188.049 231.205 189.322 229.832C190.432 228.646 191.624 227.535 192.073 225.869C192.479 224.359 192.142 223.71 191.112 223.273C189.702 222.649 187.481 224.634 186.376 224.946C185.422 225.214 183 228.952 182.67 229.077Z" fill="#263238"/>
<path d="M182.67 227.91V229.457C183.251 229.829 183.922 230.035 184.611 230.054C185.301 230.072 185.982 229.903 186.582 229.563C186.651 229.414 186.988 227.348 186.988 227.348L182.67 227.91Z" fill="#FFA8A7"/>
<path d="M195.206 238C195.206 238 194.763 239.347 194.526 240.496C194.332 241.432 194.064 242.992 194.388 243.703C194.713 244.414 195.998 244.864 197.976 244.845C199.262 244.845 201.265 245.712 202.632 246.473C203.998 247.235 207 247.578 208.491 247.403C210.251 247.197 212.079 246.155 212.366 245.444C212.653 244.732 212.272 243.952 208.116 242.18C208.079 242.18 202.338 240.308 200.323 238.081L195.206 238Z" fill="#263238"/>
<path d="M195.206 236.327C195.206 236.327 195.206 237.475 195.206 238.13C195.206 238.786 195.98 239.765 197.989 239.697C199.399 239.647 200.379 239.266 200.323 238.106V236.427L195.206 236.327Z" fill="#FFA8A7"/>
<path d="M181.659 207.361C182.004 204.619 182.616 201.916 183.487 199.293C183.487 199.293 182.938 192.335 182.67 185.74C182.383 178.614 182.67 169.653 182.551 167.881C182.551 167.881 205.546 163.226 205.957 171.463C206.369 179.699 205.046 200.666 204.778 204.285C204.51 207.904 203.88 211.105 203.131 216.971C202.382 222.836 200.323 236.427 200.323 236.427C199.527 236.833 198.644 237.035 197.752 237.018C196.859 237.001 195.985 236.763 195.206 236.327C195.206 236.327 193.59 219.854 193.758 215.679C193.89 212.578 194.422 209.508 195.343 206.544L194.526 193.845C194.139 187.936 193.733 185.109 193.64 182.532L193.147 182.283C193.147 182.283 192.641 192.479 192.373 196.098C192.105 199.717 191.524 203.187 190.501 209.907C189.59 215.735 186.888 228.072 186.888 228.072C184.261 229.495 182.695 227.891 182.695 227.891C182.695 227.891 180.96 212.416 181.659 207.361Z" fill="#455A64"/>
<path d="M193.64 182.551C193.64 182.551 188.061 179.799 185.272 177.322C185.272 177.322 187.861 180.972 191.268 182.595C191.268 182.595 192.479 195.256 192.473 195.006L193.172 182.526L193.64 182.551Z" fill="#37474F"/>
<path d="M198.607 135.701L197.246 143.189L190.482 142.696L191.899 134.204L198.607 135.701Z" fill="#FFA8A7"/>
<path d="M183.337 142.147C184.005 140.113 186.588 137.898 189.172 138.403C193.014 139.053 196.8 139.998 200.497 141.23C202.862 142.072 205.015 144.119 205.215 151.906L206.413 175.094L203.549 175.718L202.55 170.464L202.089 175.718C199.093 176.467 193.896 175.849 190.482 175.094C183.369 173.54 182.514 170.589 182.514 170.589C182.514 170.589 182.42 157.541 182.632 151.906C182.832 147.089 182.876 143.52 183.337 142.147Z" fill="#37474F"/>
<path d="M203.611 126.828C203.611 126.828 205.252 129.255 205.04 129.511C204.661 129.767 204.238 129.951 203.792 130.054L203.611 126.828Z" fill="#FFA8A7"/>
<path d="M198.607 119.14C200.185 119.939 202.912 121.412 203.661 127.184C204.435 133.112 203.418 135.021 202.619 135.807C202.076 136.338 199.131 136.369 197.658 135.926C195.786 135.37 191.655 133.792 189.758 130.747C187.524 127.165 187.025 122.366 189.546 120.457C193.084 117.774 197.271 118.466 198.607 119.14Z" fill="#FFA8A7"/>
<path d="M203.992 121.124C203.474 122.547 202.6 126.029 198.969 127.483C198.969 127.483 198.451 125.262 196.585 125.499C194.719 125.736 194.401 128.113 195.549 129.592C196.697 131.071 197.808 130.534 197.808 130.534C197.808 130.534 198.058 133.717 195.936 135.158C195.936 135.158 193.371 136.781 190.657 135.533C189.409 134.971 187.705 132.044 186.695 129.642C184.548 124.563 184.242 120.488 187.481 119.202C187.88 116.894 188.922 116.026 191.013 115.596C195.512 114.666 198.912 117.624 202.694 117.106C204.672 116.831 204.585 119.502 203.992 121.124Z" fill="#37474F"/>
<path d="M187.406 119.977L185.284 118.666C185.367 118.519 185.478 118.39 185.611 118.287C185.744 118.184 185.897 118.11 186.06 118.067C186.223 118.025 186.393 118.016 186.56 118.041C186.726 118.066 186.886 118.125 187.029 118.214C187.173 118.302 187.297 118.419 187.394 118.556C187.491 118.694 187.559 118.85 187.594 119.015C187.629 119.179 187.631 119.35 187.598 119.515C187.566 119.68 187.501 119.837 187.406 119.977Z" fill="#37474F"/>
<path d="M198.108 138.428L198.881 140.668C198.881 140.668 198.313 141.667 195.899 141.717C193.484 141.767 190.907 140.999 190.108 139.969C189.926 139.768 189.791 139.528 189.714 139.268C189.636 139.008 189.617 138.734 189.659 138.466C189.659 138.466 190.62 136.344 191.531 136.438L191.381 137.361C191.381 137.361 191.587 138.116 193.777 138.696C197.184 139.601 198.108 138.428 198.108 138.428Z" fill="#455A64"/>
<path d="M217.514 153.317C218.487 152.2 218.862 149.722 220.16 148.025C221.458 146.328 221.938 145.086 222.45 145.829C223.13 146.808 221.595 148.774 221.938 148.949C222.281 149.123 223.548 151.732 223.679 153.167C223.81 154.602 220.004 158.221 220.004 158.221L217.514 153.317Z" fill="#FFA8A7"/>
<path d="M198.108 138.428C198.265 138.425 198.419 138.464 198.556 138.542C198.692 138.62 198.804 138.734 198.881 138.871C199.263 139.56 199.605 140.27 199.905 140.999L198.881 140.668L198.108 138.428Z" fill="#455A64"/>
<path d="M221.832 148.749C221.832 148.749 226.431 148.349 227.099 148.749C227.766 149.148 227.567 151.139 227.099 152.362C226.631 153.585 224.284 154.377 222.107 155.85C222.107 155.625 221.832 148.749 221.832 148.749Z" fill="#FFA8A7"/>
<path d="M199.905 141.024C201.883 141.717 203.611 142.509 205.458 145.978C207.829 150.434 212.322 157.56 212.322 157.56L217.495 152.998C217.495 152.998 218.275 152.243 219.729 154.646C220.155 155.293 220.425 156.03 220.517 156.798C220.609 157.567 220.521 158.347 220.26 159.076C220.26 159.076 214.288 166.084 213.146 167.151C212.004 168.218 210.113 167.388 208.884 165.709C207.655 164.031 199.886 154.328 199.886 154.328C199.886 154.328 195.668 148.724 199.905 141.024Z" fill="#37474F"/>
<path d="M253.263 129.374H238.53C237.974 129.374 237.441 129.153 237.048 128.759C236.654 128.366 236.434 127.833 236.434 127.277V103.871C236.434 102.029 237.165 100.262 238.468 98.9597C239.77 97.6573 241.537 96.9255 243.379 96.9255H248.433C250.272 96.9305 252.034 97.6644 253.332 98.9663C254.63 100.268 255.36 102.032 255.36 103.871V127.277C255.36 127.833 255.139 128.366 254.745 128.759C254.352 129.153 253.819 129.374 253.263 129.374Z" fill="#37474F"/>
<path d="M236.047 121.387C234.618 125.599 232.222 137.717 232.222 137.717C232.222 137.717 227.23 143.819 225.601 145.298C224.709 146.122 222.699 147.601 222.699 147.601L226.35 150.284C229.646 147.749 232.741 144.964 235.61 141.954C236.248 141.275 236.696 140.44 236.908 139.533L239.404 128.825C239.404 128.825 239.404 120.214 240.72 119.084C242.037 117.955 242.418 117.718 242.418 117.718C240.727 117.593 237.17 118.073 236.047 121.387Z" fill="#F28F8F"/>
<path d="M243.198 117.593C240.87 117.324 237.888 117.374 236.434 119.977C234.98 122.579 232.559 136.032 232.559 136.032C232.559 136.032 234.849 137.81 237.32 137.779L243.198 117.593Z" fill="#2C557D"/>
<path d="M236.727 130.129C237.146 132.134 237.307 134.185 237.207 136.232C237.026 138.927 235.167 143.632 235.167 143.632C235.167 143.632 236.621 145.23 240.72 144.587C244.059 144.069 242.88 133.979 240.964 132.045C239.847 130.89 238.331 130.205 236.727 130.129Z" fill="#2C557D"/>
<path opacity="0.3" d="M236.727 130.129C237.146 132.134 237.307 134.185 237.207 136.232C237.026 138.927 235.167 143.632 235.167 143.632C235.167 143.632 236.621 145.23 240.72 144.587C244.059 144.069 242.88 133.979 240.964 132.045C239.847 130.89 238.331 130.205 236.727 130.129Z" fill="black"/>
<path d="M244.44 201.389C244.466 201.85 244.351 202.307 244.109 202.7C243.492 203.72 242.766 204.67 241.944 205.533C240.789 206.781 239.061 208.247 237.819 209.327C237.132 209.951 237.108 210.837 238.093 211.155C239.931 211.603 241.87 211.333 243.516 210.4C244.764 209.739 246.499 206.656 247.522 206.219C248.701 205.689 249.357 205.427 249.756 204.884C250.058 204.575 250.246 204.173 250.291 203.744C250.335 203.314 250.232 202.882 249.999 202.519C249.444 201.483 248.608 199.892 248.265 200.073L248.371 200.397C248.102 201.24 245.806 202.219 244.627 201.988L244.44 201.389Z" fill="#37474F"/>
<path d="M256.464 166.184C256.994 160.568 258.517 151.532 256.957 144.843L236.24 145.941C235.666 152.537 234.992 173.129 235.716 175.487C236.552 178.27 244.021 197.533 244.452 201.408C244.482 201.863 244.366 202.316 244.121 202.7C243.505 203.722 242.779 204.674 241.956 205.539C241.394 206.163 240.708 206.787 239.984 207.411C239.924 207.5 239.887 207.603 239.878 207.711C239.878 208.335 241.451 208.528 242.374 208.26C243.526 207.853 244.518 207.091 245.207 206.082C245.737 205.377 246.929 204.023 247.703 203.006C247.961 202.692 248.181 202.348 248.358 201.982C248.565 201.525 248.6 201.009 248.458 200.529L248.408 200.373C248.003 199.109 247.752 197.802 247.659 196.479C247.372 192.229 246.642 182.414 245.968 179.799C245.5 177.894 244.789 176.057 243.853 174.333L246.218 155.931C246.218 155.931 246.468 172.155 247.204 176.292C247.784 179.606 248.009 183.749 248.689 189.434C249.313 194.875 250.037 204.46 250.037 204.46C250.055 204.463 250.074 204.463 250.093 204.46V209.04H253.968V206.382C253.968 205.181 254.068 203.983 254.268 202.8C254.892 199.181 256.189 190.9 256.458 188.098C256.882 183.656 255.278 178.071 255.278 178.071C255.278 178.071 255.946 171.662 256.464 166.184Z" fill="#FFA8A7"/>
<path d="M249.163 117.786C249.163 117.786 254.736 118.41 255.403 118.728C250.174 122.404 254.411 130.584 254.411 130.584L252.408 136.868C254.636 139.72 256.558 141.417 257.749 144.543C259.072 148.037 260.245 153.235 259.933 163.887C254.941 167.631 239.753 167.225 233.838 163.887C233.838 163.887 234.836 154.483 236.016 147.176C236.796 142.353 238.636 137.099 238.324 135.32C235.978 128.107 235.828 126.809 236.253 125.199C237.42 120.669 242.037 117.605 243.173 117.605L249.163 117.786Z" fill="#2C557D"/>
<path opacity="0.6" d="M249.163 117.786C249.163 117.786 254.736 118.41 255.403 118.728C250.174 122.404 254.411 130.584 254.411 130.584L252.408 136.868C254.636 139.72 256.558 141.417 257.749 144.543C259.072 148.037 260.245 153.235 259.933 163.887C254.941 167.631 239.753 167.225 233.838 163.887C233.838 163.887 234.836 154.483 236.016 147.176C236.796 142.353 238.636 137.099 238.324 135.32C235.978 128.107 235.828 126.809 236.253 125.199C237.42 120.669 242.037 117.605 243.173 117.605L249.163 117.786Z" fill="white"/>
<path d="M250.056 207.099V206.544C249.569 208.41 248.595 210.113 247.235 211.48C245.987 212.609 244.302 213.92 243.865 215.186C243.429 216.453 245.868 217.021 247.478 216.859C249.038 216.668 250.476 215.916 251.522 214.743C252.545 213.57 252.527 212.772 253.001 212.123C253.475 211.474 254.58 210.762 254.835 210.014C254.915 209.315 254.838 208.607 254.611 207.942C254.43 207.249 254.23 206.482 253.987 206.544V206.975C253.425 207.416 252.729 207.652 252.015 207.642C251.472 207.655 250.049 207.536 250.056 207.099Z" fill="#37474F"/>
<path d="M253.968 206.962C253.407 207.404 252.711 207.639 251.996 207.63C251.422 207.63 250.024 207.536 250.031 207.099V206.544C249.544 208.41 248.57 210.113 247.21 211.48L246.268 212.322C245.606 213.059 245.794 213.701 247.347 213.832C248.901 213.963 250.268 213.027 251.441 211.586C252.441 210.136 253.288 208.587 253.968 206.962Z" fill="#FFA8A7"/>
<path d="M239.541 100.751C238.543 101.344 237.307 103.871 237.426 109.125C237.532 113.593 238.98 114.697 239.71 115.016C240.44 115.334 241.837 115.14 243.198 114.916V117.593C243.198 117.593 241.326 119.783 241.432 121.012C241.538 122.242 244.152 122.529 245.918 121.33C247.193 120.342 248.291 119.143 249.163 117.786L249.132 111.627C249.132 111.627 249.937 112.401 251.297 111.215C252.42 110.236 252.795 108.576 251.921 107.69C251.694 107.477 251.42 107.321 251.121 107.235C250.821 107.149 250.506 107.137 250.2 107.198C249.895 107.259 249.609 107.392 249.365 107.586C249.122 107.78 248.929 108.03 248.801 108.314C248.801 108.314 248.046 106.211 244.908 105.194C242.075 104.252 240.533 103.185 239.541 100.751Z" fill="#FFA8A7"/>
<path d="M242.418 108.008C242.418 108.118 242.45 108.226 242.511 108.317C242.572 108.409 242.658 108.481 242.759 108.524C242.86 108.567 242.972 108.58 243.08 108.56C243.188 108.54 243.288 108.489 243.368 108.413C243.447 108.337 243.503 108.239 243.527 108.132C243.551 108.025 243.544 107.913 243.505 107.81C243.466 107.707 243.398 107.618 243.309 107.553C243.22 107.488 243.114 107.451 243.004 107.446C242.929 107.445 242.854 107.458 242.784 107.485C242.713 107.513 242.649 107.554 242.595 107.606C242.54 107.658 242.497 107.72 242.466 107.789C242.436 107.858 242.419 107.933 242.418 108.008Z" fill="#37474F"/>
<path d="M242.268 111.79L240.964 112.208C240.987 112.295 241.027 112.376 241.082 112.447C241.138 112.518 241.207 112.578 241.285 112.621C241.364 112.665 241.451 112.692 241.54 112.702C241.63 112.711 241.72 112.702 241.806 112.676C241.982 112.616 242.129 112.49 242.215 112.325C242.301 112.16 242.32 111.968 242.268 111.79Z" fill="#F28F8F"/>
<path d="M237.813 106.28L238.948 105.493C238.9 105.417 238.837 105.35 238.763 105.299C238.688 105.247 238.604 105.211 238.516 105.193C238.427 105.175 238.335 105.175 238.247 105.194C238.158 105.212 238.074 105.248 238 105.3C237.848 105.407 237.743 105.569 237.708 105.752C237.673 105.935 237.711 106.124 237.813 106.28Z" fill="#37474F"/>
<path d="M244.053 106.704L242.911 105.918C242.959 105.841 243.022 105.775 243.096 105.723C243.17 105.671 243.254 105.635 243.343 105.617C243.431 105.598 243.522 105.597 243.611 105.615C243.7 105.632 243.784 105.667 243.859 105.718C244.01 105.827 244.114 105.99 244.15 106.173C244.186 106.356 244.151 106.546 244.053 106.704Z" fill="#37474F"/>
<path d="M238.075 107.596C238.074 107.706 238.105 107.814 238.165 107.907C238.225 108 238.311 108.072 238.412 108.116C238.513 108.161 238.625 108.174 238.733 108.155C238.842 108.136 238.942 108.085 239.022 108.01C239.102 107.934 239.158 107.836 239.183 107.729C239.208 107.621 239.201 107.509 239.163 107.406C239.124 107.302 239.056 107.213 238.967 107.148C238.878 107.083 238.771 107.046 238.661 107.041C238.51 107.037 238.364 107.094 238.254 107.198C238.144 107.302 238.08 107.445 238.075 107.596Z" fill="#37474F"/>
<path d="M240.72 107.278L240.633 110.66L238.855 110.111L240.72 107.278Z" fill="#F28F8F"/>
<path d="M243.198 114.916C244.633 114.722 247.566 113.873 248.052 112.707C247.867 113.298 247.506 113.818 247.017 114.198C246.131 114.953 243.198 115.808 243.198 115.808V114.916Z" fill="#F28F8F"/>
<path d="M253.375 133.442L249.438 138.771L252.408 136.868L253.375 133.442Z" fill="#2C557D"/>
<path d="M222.356 147.601C221.514 148.686 220.996 150.796 220.553 151.507C220.11 152.218 219.579 152.836 220.553 152.967C221.526 153.098 222.949 151.195 223.479 150.041C223.748 149.389 224.254 148.865 224.896 148.574C224.44 148.418 224.677 146.59 224.359 146.334C224.359 146.334 222.699 147.014 222.356 147.601Z" fill="#F28F8F"/>
<path d="M222.107 155.838C222.986 155.182 223.018 154.377 223.186 153.098C223.355 151.819 226.88 150.434 226.992 151.388C227.105 152.343 227.423 153.142 226.368 154.303C225.314 155.463 223.716 156.699 222.107 155.838Z" fill="#F28F8F"/>
<path d="M249.163 117.786C249.163 117.786 254.38 118.242 255.403 118.728C256.427 119.215 258.13 122.16 256.608 126.435C255.085 130.709 253.7 135.739 253.856 136.749C254.012 137.76 257.65 142.989 257.65 142.989C256.646 143.73 255.511 144.274 254.305 144.593L252.433 140.525L252.87 144.849C250.989 145.306 249.057 145.516 247.123 145.473C247.123 145.473 245.357 128.862 249.163 117.786Z" fill="#2C557D"/>
<path d="M262.018 138.159C262.436 135.701 262.018 134.896 261.156 132.487L256.788 135.314C257.147 136.223 257.357 137.184 257.412 138.159C257.375 138.871 256.408 145.922 255.503 148.381C255.34 148.818 255.02 149.178 254.604 149.391C253.705 149.941 252.889 150.618 252.183 151.401C251.516 152.025 250.979 152.137 251.048 152.349C251.151 152.579 251.335 152.763 251.565 152.866C251.796 152.968 252.056 152.982 252.296 152.905C252.839 152.728 253.361 152.489 253.849 152.193C253.416 153.111 252.839 153.954 252.14 154.689C250.536 156.399 250.392 157.51 253.388 157.741C255.26 157.884 256.826 156.836 258.517 152.811C259.041 151.335 259.472 149.829 259.809 148.299C260.72 144.811 261.606 140.637 262.018 138.159Z" fill="#FFA8A7"/>
<path d="M255.403 118.729C257.506 119.671 258.105 121.53 258.885 124.263C259.665 126.997 262.111 135.196 262.111 135.196C262.111 135.196 260.015 137.692 257.119 136.993L253.375 127.901C253.375 127.901 251.628 121.967 255.403 118.729Z" fill="#2C557D"/>
</svg>
