<svg width="287" height="290" viewBox="0 0 287 290" fill="none" xmlns="http://www.w3.org/2000/svg">
<path d="M236.775 145.267C184.92 115.02 101.133 115.02 49.6166 145.267C-1.89994 175.514 -1.62442 224.564 50.225 254.811C102.074 285.058 185.873 285.064 237.389 254.811C288.906 224.559 288.624 175.52 236.775 145.267Z" fill="#F5F5F5"/>
<path d="M129.982 254.243L52.4119 208.98L67.9157 199.897L145.503 245.189L129.982 254.243Z" fill="#E6E6E6"/>
<path d="M209.952 210.975V210.969L165.41 184.985H165.415L120.873 159.001L76.3305 133.017L32.0809 159.001L76.6175 184.985L121.16 210.969V210.975L165.702 236.959H165.697L210.239 262.943L254.494 236.959L209.952 210.975Z" fill="#E6E6E6"/>
<path d="M243.583 233.931L240.931 231.727C240.764 227.505 240.604 223.027 241.298 218.88C241.993 214.733 243.594 210.586 246.567 207.588C247.802 206.329 249.334 205.268 251.079 205.059C252.824 204.85 254.764 205.743 255.367 207.408C255.97 209.072 255.045 211.044 254.035 212.593C251.888 215.893 249.323 218.903 247.216 222.233C245 225.738 243.746 229.775 243.583 233.931Z" fill="#2C557D"/>
<path d="M243.583 234.506L246.235 236.71C248.198 232.528 250.901 228.648 254.638 225.968C255.971 225.129 257.217 224.158 258.357 223.068C259.425 221.908 260.171 220.307 259.861 218.759C259.465 216.763 257.37 215.447 255.355 215.435C253.341 215.424 251.458 216.456 249.902 217.755C245.098 221.693 242.377 228.387 243.583 234.506Z" fill="#2C557D"/>
<path opacity="0.3" d="M243.583 234.506L246.235 236.71C248.198 232.528 250.901 228.648 254.638 225.968C255.971 225.129 257.217 224.158 258.357 223.068C259.425 221.908 260.171 220.307 259.861 218.759C259.465 216.763 257.37 215.447 255.355 215.435C253.341 215.424 251.458 216.456 249.902 217.755C245.098 221.693 242.377 228.387 243.583 234.506Z" fill="black"/>
<path d="M242.084 232.922C242.023 232.921 241.965 232.895 241.922 232.851C241.879 232.806 241.855 232.747 241.855 232.684C241.964 226.42 243.359 214.844 251.464 207.744C251.487 207.724 251.513 207.709 251.542 207.699C251.571 207.689 251.602 207.685 251.632 207.688C251.662 207.69 251.692 207.698 251.719 207.712C251.747 207.725 251.771 207.744 251.791 207.768C251.811 207.791 251.826 207.818 251.836 207.847C251.845 207.876 251.849 207.907 251.847 207.938C251.845 207.968 251.837 207.998 251.823 208.026C251.81 208.054 251.791 208.078 251.768 208.098C248.324 211.097 242.584 218.289 242.314 232.713C242.308 232.771 242.282 232.824 242.239 232.863C242.197 232.901 242.142 232.923 242.084 232.922Z" fill="white"/>
<path d="M244.868 235.805C244.838 235.802 244.809 235.793 244.782 235.778C244.755 235.764 244.732 235.744 244.712 235.721C244.693 235.697 244.679 235.669 244.67 235.64C244.661 235.611 244.659 235.58 244.662 235.549C245.201 229.918 247.635 222.157 256.142 217.187C256.195 217.157 256.258 217.149 256.317 217.166C256.376 217.182 256.426 217.221 256.457 217.274C256.473 217.3 256.483 217.33 256.487 217.36C256.491 217.391 256.489 217.422 256.481 217.451C256.472 217.481 256.459 217.509 256.44 217.533C256.421 217.557 256.398 217.578 256.371 217.593C248.037 222.459 245.649 230.068 245.115 235.573C245.116 235.605 245.11 235.637 245.098 235.667C245.086 235.697 245.067 235.723 245.044 235.745C245.021 235.767 244.993 235.784 244.963 235.794C244.932 235.804 244.9 235.808 244.868 235.805Z" fill="white"/>
<path d="M35.6798 131.991C34.6409 130.987 33.4527 129.891 33.3838 128.441C33.3875 127.791 33.5873 127.159 33.9566 126.627C34.3259 126.095 34.847 125.69 35.4502 125.466C36.0591 125.257 36.7033 125.175 37.3444 125.224C37.9855 125.272 38.6102 125.451 39.1812 125.75C40.3184 126.356 41.3312 127.175 42.166 128.163C44.6815 130.986 46.5023 134.37 47.4807 138.038C48.4591 141.706 48.5675 145.556 47.797 149.275C47.7736 149.526 47.6963 149.77 47.5704 149.988C47.4445 150.206 47.2731 150.394 47.068 150.539C46.3735 150.91 45.5813 150.255 45.1107 149.623C44.0739 148.229 43.296 146.657 42.8147 144.983C42.3956 143.573 42.5851 142.025 42.0627 140.696C40.7827 137.46 38.1538 134.38 35.6798 131.991Z" fill="#2C557D"/>
<path d="M46.494 148.636C46.4576 148.637 46.4214 148.631 46.3876 148.617C46.3539 148.603 46.3232 148.583 46.2974 148.557C46.2717 148.531 46.2514 148.5 46.2379 148.466C46.2243 148.431 46.2177 148.395 46.2185 148.358C46.1844 144.285 45.2541 140.271 43.4949 136.607C41.7356 132.942 39.1916 129.719 36.0472 127.171C36.0183 127.148 35.9941 127.12 35.9761 127.088C35.9582 127.055 35.9467 127.02 35.9424 126.983C35.9381 126.947 35.9411 126.909 35.9512 126.874C35.9614 126.838 35.9784 126.805 36.0013 126.776C36.0232 126.747 36.0506 126.723 36.082 126.705C36.1133 126.687 36.148 126.675 36.1839 126.671C36.2197 126.667 36.2561 126.67 36.2908 126.68C36.3255 126.69 36.3578 126.707 36.3859 126.73C39.5978 129.329 42.1963 132.619 43.9925 136.36C45.7886 140.101 46.7373 144.2 46.7695 148.358C46.7703 148.395 46.7637 148.431 46.7501 148.466C46.7366 148.5 46.7163 148.531 46.6906 148.557C46.6648 148.583 46.6341 148.603 46.6004 148.617C46.5666 148.631 46.5304 148.637 46.494 148.636Z" fill="white"/>
<path d="M43.0787 159.772C41.3567 160.352 39.1296 159.97 38.1193 158.421C36.9254 156.6 37.6716 153.781 36.0759 152.319C35.1862 151.496 33.8717 151.415 32.6893 151.159C31.5069 150.904 30.1867 150.255 30.0145 149.042C29.7791 147.442 31.7365 146.113 31.4552 144.513C31.1739 142.912 29.0329 142.448 28.3958 140.986C27.8218 139.658 28.8435 138.046 30.1981 137.547C31.5528 137.048 33.0681 137.39 34.4113 137.901C35.7545 138.411 37.0747 139.061 38.5039 139.252C39.9332 139.443 41.7068 139.142 42.8032 140.174C44.2611 141.555 43.4288 144.188 44.5539 145.852C45.3116 146.972 46.7408 147.36 47.8314 148.172C48.5097 148.669 49.0603 149.322 49.4368 150.078C49.8134 150.834 50.0049 151.67 49.9954 152.517C49.961 154.355 49.0024 155.678 47.6363 156.733C46.1783 157.835 44.8753 159.187 43.0787 159.772Z" fill="#2C557D"/>
<path opacity="0.2" d="M43.0787 159.772C41.3567 160.352 39.1296 159.97 38.1193 158.421C36.9254 156.6 37.6716 153.781 36.0759 152.319C35.1862 151.496 33.8717 151.415 32.6893 151.159C31.5069 150.904 30.1867 150.255 30.0145 149.042C29.7791 147.442 31.7365 146.113 31.4552 144.513C31.1739 142.912 29.0329 142.448 28.3958 140.986C27.8218 139.658 28.8435 138.046 30.1981 137.547C31.5528 137.048 33.0681 137.39 34.4113 137.901C35.7545 138.411 37.0747 139.061 38.5039 139.252C39.9332 139.443 41.7068 139.142 42.8032 140.174C44.2611 141.555 43.4288 144.188 44.5539 145.852C45.3116 146.972 46.7408 147.36 47.8314 148.172C48.5097 148.669 49.0603 149.322 49.4368 150.078C49.8134 150.834 50.0049 151.67 49.9954 152.517C49.961 154.355 49.0024 155.678 47.6363 156.733C46.1783 157.835 44.8753 159.187 43.0787 159.772Z" fill="black"/>
<path d="M42.2866 147.239V147.21C42.0225 146.827 41.7528 146.45 41.4658 146.085C38.877 142.845 35.3668 140.487 31.4093 139.328C31.3742 139.316 31.3373 139.312 31.3006 139.316C31.264 139.319 31.2284 139.33 31.1961 139.348C31.1639 139.366 31.1356 139.391 31.113 139.42C31.0904 139.449 31.0741 139.483 31.0649 139.519C31.0452 139.591 31.054 139.667 31.0894 139.732C31.1248 139.797 31.184 139.846 31.2543 139.867C35.0967 140.995 38.5032 143.289 41.0123 146.439C41.0927 146.537 41.1615 146.642 41.2362 146.74C38.1021 145.58 34.9222 146.241 33.2002 147.628C33.1717 147.651 33.148 147.679 33.1305 147.712C33.1131 147.744 33.1022 147.78 33.0984 147.816C33.0947 147.853 33.0982 147.89 33.1088 147.925C33.1193 147.961 33.1367 147.993 33.16 148.022C33.1849 148.055 33.2171 148.081 33.254 148.099C33.2908 148.118 33.3314 148.127 33.3724 148.126C33.437 148.125 33.4996 148.103 33.5503 148.063C35.2379 146.688 38.7163 146.079 41.879 147.622C43.8536 150.544 45.0135 153.95 45.2369 157.482C45.2413 157.552 45.2723 157.619 45.3235 157.667C45.3747 157.716 45.4423 157.743 45.5125 157.743C45.5487 157.741 45.5841 157.731 45.6167 157.715C45.6493 157.699 45.6784 157.676 45.7024 157.649C45.7264 157.622 45.7448 157.59 45.7565 157.555C45.7683 157.52 45.7731 157.483 45.7708 157.447C45.5427 153.789 44.3387 150.261 42.2866 147.239Z" fill="white"/>
<path d="M76.9332 120.785L40.6851 142.071L40.6392 159.958L77.1226 181.238L113.365 159.958L113.417 142.071L76.9332 120.785Z" fill="#2C557D"/>
<path opacity="0.2" d="M113.417 142.071L76.9332 120.785L40.6851 142.071L77.1686 163.351L113.417 142.071Z" fill="white"/>
<path opacity="0.3" d="M77.1686 163.351L77.1227 181.238L113.365 159.958L113.417 142.071L77.1686 163.351Z" fill="black"/>
<path d="M120.242 123.198L83.9934 144.484L83.9475 185.223L120.431 206.509L156.679 185.223L156.725 144.484L120.242 123.198Z" fill="#2C557D"/>
<path opacity="0.2" d="M156.725 144.484L120.242 123.198L83.9934 144.484L120.477 165.77L156.725 144.484Z" fill="white"/>
<path opacity="0.3" d="M120.477 165.769L120.431 206.509L156.679 185.223L156.725 144.483L120.477 165.769Z" fill="black"/>
<path d="M164.595 125.79L128.346 147.07L128.3 210.98L164.784 232.266L201.026 210.98L201.078 147.07L164.595 125.79Z" fill="#2C557D"/>
<path opacity="0.2" d="M201.078 147.07L164.595 125.79L128.346 147.07L164.83 168.356L201.078 147.07Z" fill="white"/>
<path opacity="0.3" d="M164.83 168.356L164.784 232.267L201.026 210.981L201.078 147.07L164.83 168.356Z" fill="black"/>
<path d="M164.617 125.622L128.369 146.902L128.323 210.894L164.807 232.18L201.049 210.894L201.101 146.902L164.617 125.622Z" fill="#2C557D"/>
<path opacity="0.2" d="M201.101 146.902L164.617 125.622L128.369 146.902L164.853 168.188L201.101 146.902Z" fill="white"/>
<path opacity="0.3" d="M164.853 168.188L164.807 232.18L201.049 210.894L201.101 146.902L164.853 168.188Z" fill="black"/>
<path d="M209.975 119.37L173.733 140.656L173.681 237.469L210.164 258.755L246.412 237.469L246.458 140.656L209.975 119.37Z" fill="#2C557D"/>
<path opacity="0.2" d="M246.458 140.656L209.975 119.37L173.733 140.656L210.216 161.942L246.458 140.656Z" fill="white"/>
<path opacity="0.3" d="M210.216 161.942L210.164 258.755L246.412 237.469L246.458 140.656L210.216 161.942Z" fill="black"/>
<path d="M143.707 144.89L141.204 143.196L122.319 181.929L124.799 183.622L135.889 177.155C135.407 195.361 130.407 204.491 125.557 209.734L124.782 209.931L124.328 210.035L123.421 210.233L123.014 210.32L122.319 210.447L121.809 210.534L121.074 210.65L120.586 210.726C120.316 210.766 120.012 210.795 119.765 210.83L119.335 210.888L118.187 211.004H118.066C117.647 211.045 117.222 211.074 116.798 211.103C116.258 211.143 115.713 211.166 115.162 211.19H114.668H113.468H112.98C112.32 211.19 111.654 211.19 110.989 211.155H110.644C110.024 211.155 109.404 211.097 108.779 211.056H108.463C107.826 211.01 107.189 210.958 106.546 210.888L106.087 210.842C105.513 210.778 104.939 210.714 104.365 210.639L104.026 210.592C103.4 210.505 102.775 210.412 102.143 210.308L101.69 210.227C101.173 210.14 100.662 210.047 100.146 209.948L99.6636 209.856C99.0494 209.734 98.4295 209.6 97.8039 209.461L97.5226 209.397C96.9888 209.276 96.4492 209.142 95.9097 209.009L95.3357 208.87L93.8949 208.487L93.4529 208.365C92.8388 208.191 92.2188 208.011 91.5989 207.82L91.1684 207.686C90.6939 207.543 90.2175 207.393 89.7392 207.234L89.1652 207.037L87.7703 206.555L87.2824 206.387C86.6702 206.167 86.056 205.941 85.4399 205.709L85.107 205.575C84.5961 205.384 84.0853 205.181 83.5744 204.995L83.0004 204.752L81.6802 204.201L81.1062 203.951L79.3842 203.203L79.2235 203.133C78.6036 202.849 77.9779 202.553 77.358 202.263L76.784 202.002C76.3363 201.788 75.8828 201.567 75.4351 201.341L74.8152 201.034C74.3387 200.796 73.8681 200.552 73.3916 200.303L72.9152 200.059L71.0382 199.05C70.6938 198.87 70.3552 198.679 70.0165 198.47C69.8386 198.372 69.6606 198.279 69.4884 198.174L67.9673 197.31L67.9214 197.281L52.4119 206.434V208.98C70.0337 219.228 87.2939 224.106 102.35 223.097C109.508 222.621 115.615 220.852 120.586 217.836C120.465 217.912 120.345 217.993 120.219 218.063L135.774 208.928C137.155 208.119 138.468 207.198 139.7 206.173C139.867 206.039 140.039 205.894 140.205 205.749L140.354 205.622L140.751 205.268L140.888 205.146L141.411 204.665L141.497 204.578L141.939 204.154L142.099 203.998L142.536 203.551L142.639 203.441C142.817 203.255 142.995 203.07 143.173 202.861C143.213 202.809 143.259 202.762 143.305 202.71C143.443 202.559 143.58 202.403 143.718 202.24L143.873 202.055C144.045 201.857 144.212 201.654 144.378 201.446L144.413 201.405C144.591 201.185 144.769 200.958 144.941 200.726C144.992 200.657 145.044 200.593 145.09 200.523C145.228 200.344 145.36 200.158 145.498 199.972L145.641 199.769L146.158 199.004C146.184 198.969 146.209 198.932 146.232 198.894L146.559 198.389L146.657 198.227L146.904 197.815C147.007 197.647 147.11 197.478 147.208 197.304L147.455 196.869L147.748 196.336L147.994 195.872C148.086 195.686 148.184 195.501 148.276 195.292L148.517 194.81C148.557 194.718 148.597 194.636 148.643 194.549C148.689 194.462 148.787 194.236 148.855 194.074L148.959 193.853C149.108 193.517 149.257 193.169 149.406 192.815C149.435 192.74 149.47 192.653 149.504 192.577C149.619 192.282 149.739 191.997 149.854 191.684L149.963 191.388C149.963 191.319 150.015 191.255 150.044 191.191L150.164 190.837C150.279 190.518 150.388 190.199 150.497 189.875C150.56 189.689 150.623 189.498 150.681 189.295C150.784 188.97 150.887 188.645 150.985 188.309C151.019 188.187 151.06 188.077 151.094 187.955C151.128 187.833 151.14 187.775 151.169 187.688C151.243 187.421 151.318 187.143 151.393 186.864C151.467 186.586 151.513 186.4 151.576 186.163C151.639 185.925 151.714 185.583 151.783 185.293C151.829 185.119 151.869 184.95 151.909 184.771C151.909 184.701 151.944 184.62 151.955 184.55C152.012 184.295 152.064 184.04 152.121 183.785L152.294 182.938C152.345 182.671 152.391 182.404 152.437 182.137C152.483 181.871 152.518 181.737 152.552 181.557C152.552 181.459 152.581 181.36 152.598 181.262L152.718 180.508C152.77 180.189 152.816 179.864 152.862 179.533C152.908 179.203 152.937 179.011 152.971 178.744C152.971 178.565 153.023 178.391 153.046 178.205L153.097 177.724C153.126 177.463 153.16 177.207 153.183 176.941C153.224 176.587 153.258 176.221 153.292 175.862C153.321 175.595 153.344 175.328 153.367 175.056L153.402 174.684C153.402 174.423 153.442 174.151 153.459 173.884C153.476 173.617 153.499 173.374 153.511 173.113C153.511 172.678 153.562 172.231 153.585 171.784C153.585 171.552 153.585 171.326 153.62 171.094C153.62 171.048 153.62 171.001 153.62 170.955C153.62 170.375 153.66 169.754 153.677 169.145V169C153.677 168.333 153.677 167.649 153.677 166.959C153.677 166.889 153.677 166.825 153.677 166.756L162.718 161.484L143.707 144.89Z" fill="#455A64"/>
<path d="M143.707 144.89L124.822 183.622L122.343 181.929L141.204 143.196L143.707 144.89ZM121.476 217.262C121.814 217.042 122.142 216.816 122.469 216.578L122.859 216.299C123.29 215.98 123.714 215.656 124.128 215.313L124.627 214.884L124.776 214.757L125.109 214.467L125.172 214.409L125.31 214.287C125.482 214.13 125.66 213.968 125.832 213.8L125.924 213.713L126.062 213.585L126.366 213.289L126.521 213.133C126.556 213.098 126.59 213.057 126.63 213.022L126.957 212.692L127.061 212.582L127.422 212.193L127.595 212.007L127.727 211.862L128.14 211.387L128.301 211.201L128.461 211.01L128.806 210.592C128.808 210.579 128.808 210.565 128.806 210.552C128.857 210.494 128.903 210.43 128.949 210.372C129.081 210.209 129.208 210.041 129.34 209.873L129.489 209.676L129.793 209.252L129.891 209.119L130.034 208.916L130.327 208.487L130.556 208.156C130.578 208.116 130.603 208.077 130.631 208.04L130.821 207.733C130.901 207.617 130.975 207.495 131.05 207.373C131.125 207.251 131.217 207.101 131.303 206.961C131.389 206.822 131.504 206.625 131.601 206.451C131.699 206.277 131.768 206.161 131.854 206.016L132.043 205.668L132.146 205.482L132.388 205.019C132.451 204.903 132.508 204.781 132.571 204.659L132.675 204.456C132.755 204.299 132.83 204.137 132.91 203.974L132.95 203.887L133.254 203.244C133.289 203.168 133.317 203.093 133.352 203.023C133.449 202.809 133.541 202.582 133.639 202.362C133.691 202.234 133.748 202.113 133.8 201.985C133.851 201.857 133.868 201.817 133.897 201.736C134.018 201.446 134.132 201.156 134.247 200.854C134.287 200.75 134.322 200.651 134.362 200.552C134.402 200.454 134.448 200.315 134.494 200.193L134.563 200.001C134.672 199.682 134.787 199.364 134.89 199.039C134.942 198.9 134.988 198.749 135.034 198.604L135.08 198.47C135.183 198.145 135.28 197.821 135.384 197.484V197.444C135.441 197.252 135.499 197.061 135.55 196.864C135.602 196.667 135.7 196.318 135.774 196.04C135.774 196.04 135.774 195.994 135.774 195.965C135.826 195.756 135.883 195.553 135.935 195.338C136.009 195.054 136.078 194.758 136.147 194.468L136.319 193.726C136.377 193.476 136.428 193.215 136.48 192.96C136.515 192.804 136.543 192.647 136.578 192.49C136.612 192.334 136.629 192.241 136.652 192.113C136.704 191.847 136.756 191.58 136.802 191.313C136.848 191.064 136.893 190.814 136.934 190.559C136.934 190.513 136.934 190.466 136.934 190.414C136.98 190.165 137.02 189.915 137.054 189.66C137.106 189.341 137.157 189.016 137.203 188.691L137.307 187.897C137.353 187.56 137.399 187.218 137.439 186.876L137.525 186.099C137.565 185.739 137.599 185.38 137.634 185.014C137.634 184.747 137.686 184.481 137.709 184.214C137.737 183.825 137.772 183.431 137.795 183.054C137.795 182.799 137.835 182.543 137.852 182.282C137.881 181.847 137.904 181.401 137.927 180.954C137.927 180.722 137.927 180.502 137.961 180.264C137.99 179.626 138.007 178.971 138.024 178.309C138.024 178.263 138.024 178.217 138.024 178.17C138.024 177.428 138.024 176.662 138.024 175.885L135.803 177.178C135.321 195.385 130.321 204.514 125.471 209.757C124.486 210.816 123.436 211.809 122.325 212.732C121.065 213.774 119.721 214.707 118.307 215.522C118.055 215.667 117.796 215.806 117.538 215.946L117.039 216.212C116.763 216.357 116.465 216.491 116.195 216.624L115.724 216.85C115.374 217.013 115.013 217.164 114.651 217.314L114.513 217.372C114.002 217.581 113.491 217.778 112.969 217.952C112.694 218.051 112.395 218.138 112.131 218.231L111.643 218.393C111.293 218.504 110.931 218.608 110.57 218.706L110.03 218.851C109.732 218.933 109.422 219.014 109.112 219.084L108.48 219.229C108.14 219.31 107.795 219.385 107.447 219.455L107.177 219.501L106.064 219.704L105.582 219.779L104.629 219.913L104.101 219.982L103.119 220.093L102.631 220.145C102.149 220.191 101.661 220.232 101.168 220.261C100.674 220.29 100.048 220.325 99.4859 220.348H99.0324C98.6363 220.348 98.2403 220.348 97.8385 220.348H97.3448C96.6847 220.348 96.0246 220.348 95.3531 220.313H95.2555C94.5552 220.313 93.8549 220.249 93.1546 220.203H92.8447C92.1903 220.156 91.5302 220.098 90.8701 220.029H90.7668C90.1124 219.959 89.4523 219.884 88.7865 219.797L88.4478 219.75C87.7016 219.646 86.9554 219.53 86.2035 219.402H86.1117L84.5676 219.124L84.0912 219.031C83.4713 218.91 82.8513 218.776 82.2314 218.637L81.9502 218.573C81.4106 218.451 80.871 218.324 80.3315 218.184L79.7575 218.045C79.2811 217.924 78.7989 217.796 78.3225 217.662H78.2766C77.5304 217.454 76.7784 217.239 76.0265 217.013L75.5902 216.874C75.0162 216.7 74.4422 216.52 73.8682 216.334C73.2942 216.149 72.7202 215.957 72.1462 215.754L71.6583 215.586C71.0269 215.36 70.3898 215.122 69.7584 214.884L69.4771 214.774L67.9503 214.194L67.3763 213.951C66.8023 213.713 66.2283 213.463 65.6199 213.214L65.5567 213.185C64.9827 212.935 64.3743 212.674 63.7831 212.408L63.7142 212.28C63.0943 211.996 62.4743 211.7 61.8544 211.416L61.2804 211.149C60.8327 210.936 60.385 210.716 59.9373 210.488L59.3116 210.18C58.7893 209.919 58.2669 209.647 57.7446 209.374L57.4117 209.206C56.786 208.876 56.1603 208.545 55.5347 208.203L54.5015 207.623L53.9906 207.339C53.4683 207.043 52.9402 206.758 52.4179 206.439V208.986C70.0397 219.234 87.2998 224.112 102.356 223.103C109.514 222.627 115.621 220.858 120.592 217.842C120.747 217.755 120.896 217.662 121.045 217.564C121.195 217.465 121.327 217.361 121.476 217.262Z" fill="#37474F"/>
<path opacity="0.2" d="M54.4956 207.64L55.5288 208.22C56.1544 208.562 56.7801 208.893 57.4057 209.223L57.7387 209.391C58.261 209.664 58.7833 209.937 59.3057 210.198L59.9313 210.505C60.3791 210.729 60.8268 210.95 61.2745 211.166L61.8485 211.433C62.4684 211.729 63.0883 212.013 63.7083 212.297L63.8632 212.367C64.4372 212.634 65.0457 212.895 65.6369 213.144L65.7 213.173C66.274 213.422 66.848 213.672 67.4565 213.91L68.0305 214.153L69.5573 214.733L69.8386 214.843C70.47 215.081 71.1071 215.319 71.7385 215.545L72.2264 215.713C72.8004 215.916 73.3744 216.108 73.9484 216.293C74.5224 216.479 75.0964 216.659 75.6704 216.833L76.1067 216.972C76.8586 217.198 77.6105 217.413 78.3567 217.622H78.4027C78.8791 217.755 79.3612 217.883 79.8377 218.004L80.4117 218.144C80.9512 218.283 81.4908 218.41 82.0303 218.532L82.3116 218.596C82.9315 218.735 83.5514 218.869 84.1714 218.99L84.6478 219.083L86.1918 219.362H86.2837C87.0356 219.489 87.7818 219.605 88.528 219.71L88.8667 219.756C89.5325 219.843 90.1926 219.918 90.847 219.988H90.9503C91.6104 220.058 92.2705 220.116 92.9249 220.162H93.2348C93.9351 220.208 94.6354 220.249 95.3357 220.272H95.4332C96.1048 220.272 96.7649 220.307 97.425 220.307H97.9187C98.3205 220.307 98.7165 220.307 99.1126 220.307H99.566C100.14 220.307 100.714 220.261 101.248 220.22C101.782 220.179 102.229 220.15 102.712 220.104L103.199 220.052L104.181 219.942L104.709 219.872L105.662 219.739L106.144 219.663L107.258 219.46L107.527 219.414C107.876 219.344 108.22 219.269 108.561 219.188L109.192 219.043C109.502 218.973 109.812 218.892 110.11 218.811L110.65 218.666C111.012 218.567 111.373 218.463 111.723 218.352L112.211 218.19C112.493 218.097 112.785 218.01 113.049 217.912C113.572 217.726 114.083 217.529 114.593 217.332L114.731 217.274C115.093 217.123 115.454 216.972 115.805 216.81L116.275 216.583C116.556 216.45 116.849 216.317 117.119 216.172L117.618 215.905C117.877 215.766 118.135 215.626 118.388 215.481C119.801 214.666 121.145 213.733 122.406 212.692C123.516 211.769 124.566 210.775 125.551 209.716L124.776 209.913L124.323 210.018L123.416 210.215L123.008 210.302L122.314 210.43L121.803 210.517L121.068 210.633L120.58 210.708C120.31 210.749 120.006 210.778 119.759 210.812L119.329 210.87L118.181 210.986H118.06C117.641 211.027 117.217 211.056 116.792 211.085C116.252 211.126 115.707 211.149 115.156 211.172H114.662H113.463H112.975C112.315 211.172 111.649 211.172 110.983 211.137H110.639C110.019 211.137 109.399 211.079 108.773 211.039H108.457C107.82 210.992 107.183 210.94 106.54 210.87L106.081 210.824C105.507 210.76 104.933 210.696 104.359 210.621L104.02 210.575C103.395 210.488 102.769 210.395 102.138 210.29L101.684 210.209C101.167 210.122 100.657 210.029 100.14 209.931L99.6579 209.838C99.0437 209.716 98.4238 209.583 97.7981 209.444L97.5169 209.38C96.983 209.258 96.4435 209.125 95.9039 208.991L95.3299 208.852L93.8892 208.469L93.4472 208.347C92.833 208.173 92.2131 207.994 91.5932 207.802L91.1627 207.669C90.6882 207.526 90.2118 207.375 89.7334 207.216L89.1594 207.019L87.7646 206.538L87.2767 206.37C86.6644 206.149 86.0503 205.923 85.4342 205.691L85.1012 205.558C84.5904 205.366 84.0795 205.163 83.5687 204.978L82.9947 204.734L81.6745 204.183L81.1005 203.934L79.3785 203.185L79.2177 203.116C78.5978 202.832 77.9722 202.536 77.3522 202.246L76.7782 201.985C76.3305 201.77 75.8771 201.55 75.4293 201.324L74.8094 201.016C74.333 200.778 73.8623 200.535 73.3859 200.285L72.9095 200.042L71.0325 199.033C70.6881 198.853 70.3494 198.661 70.0108 198.453C69.8328 198.354 69.6549 198.261 69.4827 198.157L67.9616 197.293L67.9157 197.264L52.4119 206.433C52.9343 206.741 53.4624 207.013 53.9847 207.332L54.4956 207.64Z" fill="white"/>
<path d="M41.2419 46.046C43.7905 44.5612 45.943 45.292 46.6318 47.6004C47.2415 46.3326 48.1873 45.2604 49.364 44.5032C51.3615 43.3432 52.9859 44.277 52.9917 46.5912V47.6584L55.678 46.0924C57.0786 45.2804 58.2151 45.9358 58.2208 47.5598C58.1735 48.4445 57.9201 49.3054 57.4812 50.0724C57.0424 50.8394 56.4304 51.4908 55.6952 51.9736L33.005 65.2208C31.6044 66.0328 30.4679 65.3832 30.4622 63.7592C30.5077 62.8733 30.7603 62.0109 31.1993 61.2427C31.6383 60.4745 32.2512 59.8223 32.9878 59.3396L35.6684 57.7736V55.819C35.6511 52.2288 38.1538 47.8556 41.2419 46.046Z" fill="#E6E6E6"/>
<path d="M63.4901 54.7229C65.3212 53.6615 66.8653 54.1835 67.3589 55.8423C67.7993 54.9288 68.4831 54.1575 69.3335 53.6151C70.7627 52.7799 71.9337 53.4527 71.9337 55.1173V55.8829L73.8566 54.7577C74.8611 54.1777 75.6762 54.6417 75.6762 55.8075C75.6445 56.4431 75.464 57.062 75.1497 57.6135C74.8354 58.165 74.3962 58.6334 73.8681 58.9801L57.5722 68.4863C56.5677 69.0663 55.7526 68.6023 55.7469 67.4365C55.782 66.801 55.9644 66.1828 56.2795 65.6317C56.5946 65.0806 57.0334 64.6121 57.5607 64.2639L59.4836 63.1445V61.7351C59.5572 60.3299 59.9585 58.9622 60.6548 57.7436C61.351 56.5249 62.3226 55.4899 63.4901 54.7229Z" fill="#E6E6E6"/>
<path d="M248.8 51.9387C246.969 50.8715 245.425 51.3935 244.932 53.0523C244.491 52.1404 243.807 51.3711 242.957 50.8309C241.528 49.9957 240.357 50.6685 240.357 52.3331V53.0929L238.434 51.9735C237.429 51.3935 236.614 51.8575 236.614 53.0233C236.646 53.6589 236.826 54.2779 237.141 54.8294C237.455 55.3809 237.894 55.8492 238.422 56.1959L254.718 65.7021C255.723 66.2821 256.538 65.8181 256.544 64.6523C256.508 64.0169 256.326 63.3986 256.011 62.8475C255.696 62.2964 255.257 61.8279 254.73 61.4797L252.807 60.3545V58.9509C252.731 57.5462 252.329 56.1791 251.633 54.9608C250.937 53.7424 249.967 52.7071 248.8 51.9387Z" fill="#E6E6E6"/>
<path d="M147.845 35.3802C147.846 35.3011 147.825 35.2233 147.786 35.1549C147.747 35.0866 147.69 35.0302 147.621 34.9916L145.635 33.8722C145.57 33.8341 145.496 33.814 145.42 33.814C145.344 33.814 145.27 33.8341 145.205 33.8722L131.584 41.8182C131.333 41.9562 131.131 42.1716 131.01 42.433C130.934 42.6068 130.895 42.7944 130.895 42.984V48.0996L126.177 53.0296C125.758 53.4704 125.712 54.1374 126.039 54.2418L127.922 55.2858C127.953 55.3212 127.992 55.3479 128.037 55.3631C128.081 55.3784 128.128 55.3817 128.174 55.3728L130.912 55.0364V58.7948C130.912 58.8724 130.932 58.9486 130.97 59.0158C131.009 59.0831 131.064 59.1389 131.13 59.1776L133.111 60.2854H133.139C133.201 60.318 133.27 60.335 133.34 60.335C133.41 60.335 133.479 60.318 133.541 60.2854L147.162 52.3336C147.364 52.2164 147.532 52.0475 147.649 51.8439C147.766 51.6402 147.828 51.4091 147.828 51.1736L147.845 35.3802ZM133.248 43.187L133.202 43.2392L133.248 43.187ZM133.116 43.3552C133.119 43.3706 133.119 43.3863 133.116 43.4016C133.119 43.3863 133.119 43.3706 133.116 43.3552ZM132.927 43.8076C132.929 43.8269 132.929 43.8464 132.927 43.8656C132.929 43.8464 132.929 43.8269 132.927 43.8076ZM133.346 43.0884L133.392 43.0478L133.346 43.0884Z" fill="#2C557D"/>
<path opacity="0.1" d="M132.938 59.9084C132.939 59.9844 132.958 60.0591 132.996 60.1251C133.033 60.1912 133.086 60.2464 133.151 60.2854L131.17 59.1602C131.104 59.1214 131.049 59.0656 131.011 58.9984C130.972 58.9312 130.952 58.8549 130.952 58.7774V55.019L132.944 54.7754L132.938 59.9084Z" fill="black"/>
<path opacity="0.2" d="M131.567 41.8124L145.188 33.8664C145.253 33.8282 145.327 33.8081 145.403 33.8081C145.478 33.8081 145.553 33.8282 145.618 33.8664L147.604 34.9858C147.537 34.946 147.461 34.925 147.383 34.925C147.305 34.925 147.229 34.946 147.162 34.9858L133.558 42.9202C133.301 43.0664 133.099 43.2949 132.984 43.5698L131.004 42.4098C131.126 42.1565 131.322 41.9477 131.567 41.8124Z" fill="white"/>
<path opacity="0.1" d="M130.918 48.0938V42.9782C130.918 42.7886 130.957 42.601 131.033 42.4272L133.013 43.5872C132.946 43.7508 132.913 43.9265 132.915 44.1034V49.2248L130.924 48.0996L130.918 48.0938Z" fill="black"/>
<path opacity="0.05" d="M126.2 53.0237L130.918 48.0938L132.91 49.219L128.197 54.1431C127.83 54.5202 127.749 55.0711 127.945 55.3032L126.062 54.2592C125.735 54.1316 125.781 53.4646 126.2 53.0237Z" fill="white"/>
<path d="M141.026 42.2068C141.069 42.1725 141.123 42.1538 141.178 42.1538C141.233 42.1538 141.287 42.1725 141.33 42.2068L143.999 44.7878C144.189 44.9676 143.999 45.4896 143.701 45.6694L142.226 46.5278L142.26 52.6584L139.895 54.0388L139.861 47.9082L138.386 48.7666C138.076 48.9522 137.898 48.639 138.081 48.2446L140.722 42.5606C140.789 42.4164 140.894 42.2939 141.026 42.2068Z" fill="white"/>
<path opacity="0.1" d="M139.275 140.54C138.374 138.411 136.497 136.393 133.65 134.74C125.356 129.897 111.953 129.897 103.71 134.74C95.4677 139.583 95.5136 147.424 103.808 152.261C110.466 156.147 120.419 156.901 128.346 154.552V147.07L139.275 140.54Z" fill="black"/>
<path d="M89.412 86.832L99.0839 79.1992L100.025 80.916L90.2098 88.6938L89.412 86.832Z" fill="#263238"/>
<path d="M107.194 93.699L112.625 93.2002C111.936 96.6802 110.725 101.506 110.725 101.506L105.719 98.2578L107.194 93.699Z" fill="#455A64"/>
<path d="M77.4097 116.151C77.4038 114.895 77.8072 113.672 78.5577 112.671C79.1551 111.981 79.7874 111.323 80.4519 110.699C80.9272 110.237 81.2889 109.668 81.508 109.04C81.7184 108.317 82.0316 107.63 82.4379 106.998C82.8902 106.268 83.6002 105.74 84.4239 105.519C84.5851 105.481 84.7525 105.476 84.9155 105.506C85.0785 105.536 85.2336 105.6 85.371 105.693L85.2103 105.49C85.0673 105.308 84.8755 105.171 84.6577 105.096C84.4399 105.021 84.2053 105.011 83.982 105.067C83.1385 105.288 82.4124 105.831 81.9557 106.581C81.5354 107.22 81.2141 107.92 81.0029 108.657C80.7862 109.316 80.4161 109.913 79.9238 110.397C79.2463 111.033 78.6025 111.705 77.9951 112.41C77.2273 113.428 76.8118 114.673 76.8127 115.953C76.7922 116.217 76.8243 116.483 76.9071 116.734C76.99 116.985 77.1218 117.216 77.2949 117.415C77.498 117.597 77.7534 117.709 78.0238 117.734C77.9704 117.7 77.9204 117.662 77.8746 117.618C77.7016 117.419 77.571 117.186 77.491 116.933C77.4111 116.681 77.3834 116.414 77.4097 116.151Z" fill="black"/>
<path d="M85.6351 105.902C85.5615 105.81 85.4744 105.73 85.3768 105.664C85.2393 105.571 85.0842 105.507 84.9212 105.477C84.7582 105.447 84.5909 105.452 84.4297 105.49C83.6059 105.711 82.8959 106.239 82.4436 106.969C82.0328 107.609 81.7175 108.307 81.508 109.04C81.2946 109.683 80.9325 110.266 80.4518 110.739C79.7873 111.363 79.1551 112.021 78.5576 112.711C77.8072 113.712 77.4038 114.935 77.4096 116.191C77.3889 116.45 77.4199 116.71 77.5007 116.956C77.5816 117.202 77.7107 117.429 77.8803 117.624C77.9261 117.667 77.9761 117.706 78.0296 117.74C78.2204 117.855 78.4344 117.926 78.6559 117.947C78.8774 117.968 79.1007 117.939 79.3096 117.862C79.7869 117.674 80.2039 117.357 80.515 116.945C80.8422 116.557 81.089 116.122 81.4391 115.727C81.9983 115.099 82.6239 114.535 83.3046 114.045L85.1472 112.618L85.9852 106.412C85.9852 106.412 85.8302 106.14 85.6351 105.902Z" fill="#263238"/>
<path d="M98.7739 104.858L98.4926 112.52C95.0486 108.994 86.0828 105.705 86.0828 105.705C82.6847 108.234 83.4424 111.14 84.7166 112.52C91.7424 116.383 99.7669 121.58 101.604 121.151C103.441 120.721 105.874 117.903 107.659 112.59L104.215 106.616L98.7739 104.858Z" fill="#37474F"/>
<path d="M123.089 145.997C123.014 146.154 122.909 146.294 122.78 146.408C122.651 146.523 122.5 146.61 122.337 146.664C122.012 146.773 121.674 146.834 121.332 146.844C120.593 146.923 119.847 146.911 119.111 146.809C118.372 146.71 117.675 146.407 117.096 145.934C116.598 145.442 116.166 144.886 115.81 144.281C114.86 142.877 113.682 141.645 112.326 140.638C112.361 140.888 112.411 141.136 112.475 141.381C113.78 142.355 114.908 143.55 115.81 144.913C116.167 145.519 116.599 146.076 117.096 146.572C117.677 147.043 118.373 147.346 119.111 147.447C119.848 147.543 120.593 147.555 121.332 147.482C121.674 147.47 122.012 147.407 122.337 147.297C122.5 147.242 122.651 147.155 122.78 147.04C122.909 146.926 123.014 146.786 123.089 146.63C123.185 146.394 123.199 146.132 123.129 145.887C123.118 145.925 123.104 145.962 123.089 145.997Z" fill="#263238"/>
<path d="M122.784 144.6C122.444 144.241 122.058 143.928 121.636 143.672C119.766 142.383 118.371 140.505 117.67 138.33L112.401 138.632C112.167 139.276 112.141 139.978 112.326 140.638C113.682 141.645 114.86 142.877 115.81 144.281C116.166 144.886 116.598 145.442 117.096 145.934C117.675 146.407 118.372 146.71 119.111 146.81C119.847 146.911 120.593 146.923 121.332 146.844C121.674 146.834 122.012 146.774 122.337 146.665C122.5 146.61 122.651 146.523 122.78 146.408C122.909 146.294 123.014 146.154 123.089 145.998C123.104 145.962 123.118 145.925 123.129 145.887C123.178 145.661 123.173 145.425 123.113 145.201C123.053 144.977 122.94 144.77 122.784 144.6Z" fill="#37474F"/>
<path d="M95.1405 92.6548C93.9925 98.2808 94.4345 100.775 98.7739 104.835C103.113 108.895 110.254 114.695 110.254 114.695C108.532 120.419 111.103 127.954 111.201 130.859C111.299 133.765 112.005 138.678 112.005 138.678C115.965 140.824 118.089 138.678 118.089 138.678V113.442C118.091 111.228 117.297 109.089 115.856 107.422L107.194 97.4398V93.7162L95.1405 92.6548Z" fill="#455A64"/>
<path d="M125.672 77.813C126.422 78.0653 127.224 78.1231 128.002 77.9812C128.002 76.4616 128.002 74.7622 128.123 72.5524C128.404 67.7848 127.13 65.1574 126.079 64.2062C125.029 63.255 123.209 63.2376 122.538 63.8408C121.866 64.444 123.513 66.6364 123.749 68.5446C122.807 67.431 122.331 67.054 121.453 67.7326C121.971 68.3409 122.361 69.0493 122.601 69.8148C122.79 70.7718 123.8 71.4388 124.082 72.2276C124.3 72.8424 124.082 74.8086 123.72 76.4964C124.25 77.0952 124.921 77.5483 125.672 77.813Z" fill="#F28F8F"/>
<path opacity="0.2" d="M125.672 77.813C126.422 78.0653 127.224 78.1231 128.002 77.9812C128.002 76.4616 128.002 74.7622 128.123 72.5524C128.404 67.7848 127.13 65.1574 126.079 64.2062C125.029 63.255 123.209 63.2376 122.538 63.8408C121.866 64.444 123.513 66.6364 123.749 68.5446C122.807 67.431 122.331 67.054 121.453 67.7326C121.971 68.3409 122.361 69.0493 122.601 69.8148C122.79 70.7718 123.8 71.4388 124.082 72.2276C124.3 72.8424 124.082 74.8086 123.72 76.4964C124.25 77.0952 124.921 77.5483 125.672 77.813Z" fill="black"/>
<path d="M125.672 77.8129C124.915 77.5509 124.237 77.0977 123.703 76.4963C123.599 77.0009 123.485 77.4823 123.37 77.8883C123.37 77.8883 119.725 72.8365 118.904 71.8795C118.083 70.9225 117.331 68.6431 113.738 68.2197L114.169 77.1285C114.169 77.1285 121.407 85.4515 123.886 86.8551C126.366 88.2587 127.193 86.4375 127.698 83.0677C127.924 81.3823 128.02 79.6816 127.985 77.9811C127.212 78.1202 126.417 78.0623 125.672 77.8129Z" fill="#455A64"/>
<path opacity="0.3" d="M122.836 83.2822C122.262 81.2116 123.117 78.6422 123.41 77.8882L122.79 77.0298C122.336 78.0096 122.105 79.0795 122.113 80.1612C122.121 81.243 122.368 82.3093 122.836 83.2822Z" fill="black"/>
<path d="M103.067 68.028C100.99 67.7438 98.7739 68.0976 96.5066 68.4804C96.0891 73.4614 96.0891 78.4692 96.5066 83.4502L94.71 93.1768C101.741 97.4688 110.707 95.5606 112.504 94.3368C115.334 83.1834 116.04 72.6448 113.755 68.2368L108.165 67.2798L103.067 68.028Z" fill="#37474F"/>
<path d="M107.55 72.3664L105.909 71.0498C106.426 70.7961 106.963 70.5884 107.516 70.4292L108.165 70.754L107.55 72.3664Z" fill="#2C557D"/>
<path d="M109.313 72.2272L109.674 72.001L110.283 70.667L109.577 70.4292L109.158 70.754L109.313 72.2272Z" fill="#2C557D"/>
<path d="M107.992 73.2831C106.753 78.2595 100.978 81.5017 96.2196 81.1537C95.5445 81.0904 94.8686 81.2668 94.3082 81.6525C93.6086 82.1623 92.9877 82.7741 92.4657 83.4679C92.3975 83.5608 92.351 83.668 92.3297 83.7816C92.3083 83.8952 92.3128 84.0122 92.3426 84.1238C92.3724 84.2354 92.4269 84.3388 92.5019 84.4261C92.5769 84.5134 92.6705 84.5824 92.7756 84.6279C93.829 85.0548 94.9157 85.3923 96.0245 85.6371C97.1823 85.9084 98.3894 85.8765 99.5316 85.5443C108.182 83.0155 109.381 77.4243 109.146 73.2773L107.992 73.2831Z" fill="#2C557D"/>
<path opacity="0.3" d="M109.158 73.5036C109.158 73.4282 109.158 73.3528 109.158 73.2832H108.01C108.01 73.2832 108.01 73.3296 108.01 73.3528C108.173 73.4904 108.372 73.5771 108.584 73.6022C108.78 73.6197 108.978 73.5858 109.158 73.5036Z" fill="black"/>
<path d="M108.165 70.7598C108.494 70.7077 108.829 70.7077 109.158 70.7598C109.438 71.1206 109.617 71.5516 109.674 72.0068C109.589 72.4668 109.409 72.9035 109.146 73.2886C108.848 73.5148 107.998 73.2886 107.998 73.2886C107.779 72.9957 107.587 72.6831 107.424 72.3548C107.374 72.2529 107.349 72.1408 107.349 72.0271C107.349 71.9135 107.374 71.8014 107.424 71.6994C107.6 71.3355 107.853 71.0149 108.165 70.7598Z" fill="#2C557D"/>
<path opacity="0.3" d="M111.293 96.0713C110.41 97.1558 109.172 97.8843 107.803 98.1245L110.725 101.5C110.418 100.43 109.924 99.4246 109.267 98.5305C110.192 97.9585 110.904 97.0941 111.293 96.0713Z" fill="black"/>
<path d="M108.612 70.6033C109.944 70.2437 110.793 71.7633 110.793 71.7633C110.874 68.4631 109.181 67.1987 109.181 67.1987L108.612 70.6033Z" fill="#455A64"/>
<path d="M102.941 54.2994C102.367 53.8992 101.753 53.5048 101.156 53.1104C101.305 52.9276 101.493 52.7807 101.705 52.6804C101.918 52.5801 102.15 52.5288 102.384 52.5304C102.652 52.5515 102.901 52.6762 103.079 52.8784C103.253 53.0868 103.341 53.3545 103.326 53.6266C103.383 52.5478 104.302 51.5792 105.26 51.1094C106.248 50.6843 107.328 50.5264 108.394 50.6512C109.456 50.7208 110.512 50.9296 111.574 50.9644C112.806 51.0114 114.036 50.8366 115.208 50.4482C115.337 50.4043 115.476 50.3968 115.609 50.4265C115.742 50.4562 115.865 50.5219 115.964 50.6166C116.063 50.7114 116.135 50.8316 116.171 50.9644C116.208 51.0972 116.208 51.2375 116.172 51.3704C115.967 52.0553 115.623 52.6894 115.162 53.2322C115.408 53.3031 115.664 53.3305 115.919 53.3134C116.057 53.304 116.195 53.3333 116.318 53.3981C116.441 53.4629 116.544 53.5606 116.615 53.6806C116.686 53.8006 116.723 53.9381 116.722 54.078C116.721 54.2179 116.681 54.3547 116.608 54.4734C116.139 55.1673 115.478 55.706 114.708 56.022C111.878 60.5344 104.25 64.5654 104.25 64.5654C103.992 64.5309 103.746 64.4338 103.533 64.2823C103.32 64.1308 103.146 63.9294 103.027 63.6954C102.8 63.2211 102.654 62.7112 102.597 62.1874C102.268 60.2116 101.998 58.226 101.787 56.2308C101.712 55.8107 101.73 55.3789 101.839 54.9664C101.899 54.7685 102.018 54.5943 102.181 54.4685C102.344 54.3426 102.541 54.2714 102.746 54.2646" fill="#263238"/>
<path d="M103.682 61.283C103.475 63.1448 103.067 66.358 103.067 66.358C104.675 68.5504 107.786 69.0318 108.612 70.6036C109.146 68.8576 109.494 67.0591 109.651 65.2386L104.342 61.022L103.682 61.283Z" fill="#F28F8F"/>
<path opacity="0.2" d="M103.682 61.283C103.475 63.1448 103.067 66.358 103.067 66.358C104.675 68.5504 107.786 69.0318 108.612 70.6036C109.146 68.8576 109.494 67.0591 109.651 65.2386L104.342 61.022L103.682 61.283Z" fill="black"/>
<path opacity="0.3" d="M104.342 61.022L104.204 61.0742C104.137 62.5736 104.632 64.0435 105.589 65.1912C106.546 66.339 107.896 67.0806 109.37 67.2686C109.582 66.01 109.628 65.2386 109.628 65.2386L104.342 61.022Z" fill="black"/>
<path d="M114.708 56.0336C115.108 59.1341 114.768 62.2863 113.715 65.2266C113.58 65.5912 113.338 65.9051 113.02 66.126C112.703 66.3469 112.327 66.4642 111.941 66.462C107.923 66.462 104.732 65.07 104.175 61.4508C103.973 61.7114 103.692 61.8987 103.375 61.9844C103.059 62.0702 102.723 62.0498 102.419 61.9264C101.848 61.6605 101.39 61.1978 101.127 60.6214C100.957 60.3225 100.844 59.9939 100.794 59.6528C100.745 59.3077 100.83 58.9567 101.03 58.6726C101.216 58.4624 101.464 58.3167 101.737 58.2564C102.01 58.196 102.294 58.2239 102.551 58.3362C103.072 58.5729 103.483 59.0027 103.699 59.5368C103.785 59.734 103.9 59.9718 104.112 59.9776C104.324 59.9834 104.457 59.734 104.525 59.5252C104.78 58.6742 104.89 57.786 104.853 56.8978C105.489 57.0202 106.148 56.8938 106.695 56.544C107.226 56.1758 107.596 55.6149 107.728 54.978C107.899 55.3049 108.144 55.586 108.443 55.7978C108.743 56.0097 109.088 56.1462 109.45 56.196C109.803 56.2446 110.162 56.2073 110.497 56.0873C110.833 55.9672 111.135 55.7679 111.379 55.5058C111.793 55.933 112.333 56.2137 112.917 56.3062C113.528 56.3917 114.15 56.297 114.708 56.0336Z" fill="#F28F8F"/>
<path opacity="0.2" d="M114.708 56.0336C115.108 59.1341 114.768 62.2863 113.715 65.2266C113.58 65.5912 113.338 65.9051 113.02 66.126C112.703 66.3469 112.327 66.4642 111.941 66.462C107.923 66.462 104.732 65.07 104.175 61.4508C103.973 61.7114 103.692 61.8987 103.375 61.9844C103.059 62.0702 102.723 62.0498 102.419 61.9264C101.848 61.6605 101.39 61.1978 101.127 60.6214C100.957 60.3225 100.844 59.9939 100.794 59.6528C100.745 59.3077 100.83 58.9567 101.03 58.6726C101.216 58.4624 101.464 58.3167 101.737 58.2564C102.01 58.196 102.294 58.2239 102.551 58.3362C103.072 58.5729 103.483 59.0027 103.699 59.5368C103.785 59.734 103.9 59.9718 104.112 59.9776C104.324 59.9834 104.457 59.734 104.525 59.5252C104.78 58.6742 104.89 57.786 104.853 56.8978C105.489 57.0202 106.148 56.8938 106.695 56.544C107.226 56.1758 107.596 55.6149 107.728 54.978C107.899 55.3049 108.144 55.586 108.443 55.7978C108.743 56.0097 109.088 56.1462 109.45 56.196C109.803 56.2446 110.162 56.2073 110.497 56.0873C110.833 55.9672 111.135 55.7679 111.379 55.5058C111.793 55.933 112.333 56.2137 112.917 56.3062C113.528 56.3917 114.15 56.297 114.708 56.0336Z" fill="black"/>
<path d="M111.04 59.5488L112.883 61.8978L111.138 62.4836L111.04 59.5488Z" fill="#F28F8F"/>
<path opacity="0.3" d="M111.04 59.5488L112.883 61.8978L111.138 62.4836L111.04 59.5488Z" fill="black"/>
<path d="M109.531 63.5972L110.983 64.0786C110.887 64.251 110.739 64.3873 110.559 64.4668C110.38 64.5463 110.18 64.5648 109.99 64.5194C109.821 64.4416 109.683 64.3077 109.6 64.14C109.516 63.9723 109.492 63.7807 109.531 63.5972Z" fill="#F28F8F"/>
<path opacity="0.3" d="M109.531 63.5972L110.983 64.0786C110.887 64.251 110.739 64.3873 110.559 64.4668C110.38 64.5463 110.18 64.5648 109.99 64.5194C109.821 64.4416 109.683 64.3077 109.6 64.14C109.516 63.9723 109.492 63.7807 109.531 63.5972Z" fill="black"/>
<path d="M110.466 64.4962C110.311 64.5424 110.145 64.5424 109.99 64.4962C109.856 64.4407 109.741 64.3469 109.66 64.2263C109.578 64.1057 109.533 63.9636 109.531 63.8176C109.73 63.7888 109.932 63.8297 110.105 63.9336C110.199 63.9987 110.279 64.082 110.341 64.1785C110.403 64.275 110.446 64.383 110.466 64.4962Z" fill="#F28F8F"/>
<path d="M108.486 60.0069C108.487 60.0757 108.503 60.1435 108.53 60.2064C108.558 60.2692 108.598 60.3258 108.648 60.3728C108.697 60.4198 108.756 60.4563 108.82 60.4801C108.884 60.504 108.952 60.5146 109.02 60.5115C109.124 60.5091 109.224 60.4755 109.309 60.4151C109.394 60.3546 109.459 60.27 109.496 60.172C109.533 60.0741 109.54 59.9672 109.517 59.865C109.493 59.7629 109.44 59.67 109.365 59.5984C109.289 59.5268 109.194 59.4796 109.091 59.4628C108.989 59.4461 108.884 59.4605 108.79 59.5044C108.695 59.5482 108.616 59.6194 108.562 59.7089C108.508 59.7984 108.481 59.9022 108.486 60.0069Z" fill="#263238"/>
<path d="M112.808 59.6879C112.816 59.8264 112.876 59.9565 112.977 60.0507C113.078 60.1448 113.211 60.1957 113.348 60.1925C113.451 60.189 113.551 60.1544 113.635 60.0933C113.719 60.0322 113.783 59.9472 113.82 59.8492C113.856 59.7511 113.862 59.6445 113.838 59.5427C113.814 59.441 113.761 59.3487 113.685 59.2776C113.609 59.2066 113.514 59.16 113.411 59.1437C113.309 59.1274 113.204 59.1421 113.111 59.1861C113.017 59.23 112.938 59.3012 112.884 59.3906C112.83 59.4799 112.804 59.5834 112.808 59.6879Z" fill="#263238"/>
<path d="M113.244 57.5823L114.421 58.3479C114.467 58.2019 114.467 58.0451 114.422 57.8989C114.377 57.7526 114.288 57.6239 114.169 57.5301C114.025 57.4517 113.862 57.415 113.699 57.4242C113.536 57.4335 113.379 57.4882 113.244 57.5823Z" fill="#263238"/>
<path d="M108.802 57.6751L107.654 58.5161C107.599 58.3737 107.59 58.2179 107.626 58.0696C107.661 57.9214 107.741 57.7878 107.855 57.6867C107.994 57.5922 108.158 57.5407 108.326 57.5386C108.495 57.5366 108.66 57.584 108.802 57.6751Z" fill="#263238"/>
<path d="M103.067 66.3578L103.171 65.5342C103.102 65.5251 103.033 65.5251 102.964 65.5342C102.39 65.8416 101.34 67.5178 101.34 67.5178C101.713 68.411 103.509 71.1892 104.921 72.1578C106.557 71.3284 107.74 70.1684 108.612 70.5918C108.274 68.672 103.067 66.3578 103.067 66.3578Z" fill="#455A64"/>
<path d="M99.876 96.9062C103.808 91.3382 112.458 78.4448 111.93 67.9062L113.715 68.2078C114.456 78.584 106.316 92.1154 100.651 99.1334L99.876 96.9062Z" fill="#263238"/>
<path d="M98.6591 101.326L86.674 91.1064L84.5559 98.6464C84.5439 98.6946 84.5433 98.7449 84.5543 98.7933C84.5653 98.8417 84.5875 98.8868 84.6191 98.9248L84.6593 98.9596L96.4951 109.655C96.4553 109.615 96.4269 109.564 96.4128 109.509C96.3986 109.454 96.3993 109.396 96.4148 109.342L98.6591 101.326Z" fill="#2C557D"/>
<path opacity="0.15" d="M98.6591 101.326L86.674 91.1064L84.5559 98.6464C84.5439 98.6946 84.5433 98.7449 84.5543 98.7933C84.5653 98.8417 84.5875 98.8868 84.6191 98.9248L84.6593 98.9596L96.4951 109.655C96.4553 109.615 96.4269 109.564 96.4128 109.509C96.3986 109.454 96.3993 109.396 96.4148 109.342L98.6591 101.326Z" fill="black"/>
<path d="M98.1425 103.171L100.025 96.4541L98.1425 103.171Z" fill="#2C557D"/>
<path d="M101.317 95.7522L101.311 95.7466L101.317 95.7579V95.7522Z" fill="#2C557D"/>
<path d="M96.4893 109.695H96.4949L96.4837 109.689L96.4893 109.695Z" fill="#2C557D"/>
<path d="M101.437 96.1116C101.445 96.0473 101.439 95.9819 101.418 95.9205C101.397 95.8592 101.362 95.8035 101.317 95.7578C101.269 95.7125 101.211 95.679 101.149 95.6599C101.086 95.6408 101.02 95.6366 100.955 95.6476C100.741 95.6844 100.541 95.7819 100.38 95.9287C100.218 96.0755 100.101 96.2657 100.042 96.477L98.154 103.17L96.432 109.376C96.4165 109.431 96.4158 109.489 96.43 109.544C96.4441 109.599 96.4725 109.649 96.5124 109.689C96.5515 109.729 96.6005 109.756 96.6541 109.77C96.7077 109.783 96.7639 109.781 96.8166 109.765L99.1642 109.046C99.3404 108.993 99.4976 108.89 99.6168 108.749C99.7361 108.608 99.8121 108.435 99.8358 108.251L101.437 96.1116Z" fill="#2C557D"/>
<path opacity="0.3" d="M101.437 96.1116C101.445 96.0473 101.439 95.9819 101.418 95.9205C101.397 95.8592 101.362 95.8035 101.317 95.7578C101.269 95.7125 101.211 95.679 101.149 95.6599C101.086 95.6408 101.02 95.6366 100.955 95.6476C100.741 95.6844 100.541 95.7819 100.38 95.9287C100.218 96.0755 100.101 96.2657 100.042 96.477L98.154 103.17L96.432 109.376C96.4165 109.431 96.4158 109.489 96.43 109.544C96.4441 109.599 96.4725 109.649 96.5124 109.689C96.5515 109.729 96.6005 109.756 96.6541 109.77C96.7077 109.783 96.7639 109.781 96.8166 109.765L99.1642 109.046C99.3404 108.993 99.4976 108.89 99.6168 108.749C99.7361 108.608 99.8121 108.435 99.8358 108.251L101.437 96.1116Z" fill="black"/>
<path d="M94.446 96.9702L92.3222 104.661L92.6551 104.986L94.71 97.353L94.446 96.9702Z" fill="#2C557D"/>
<path d="M89.9401 92.8984L87.822 100.595L88.1549 100.92L90.2098 93.287L89.9401 92.8984Z" fill="#2C557D"/>
<path d="M89.4407 85.034C89.3937 84.9914 89.3378 84.9599 89.2773 84.9419C89.2167 84.9238 89.1529 84.9196 89.0905 84.9296C88.8763 84.9664 88.6768 85.0639 88.5153 85.2107C88.3537 85.3575 88.2367 85.5477 88.1779 85.759L86.5535 91.559C86.4595 91.902 86.4635 92.2649 86.5651 92.6056C86.6667 92.9464 86.8616 93.2511 87.1275 93.4846L88.3788 94.5808L96.8969 102.08C97.0298 102.198 97.1899 102.279 97.3623 102.317C97.5347 102.355 97.7138 102.348 97.8829 102.297C98.0519 102.246 98.2055 102.152 98.3292 102.025C98.4529 101.898 98.5427 101.741 98.5902 101.57L100.025 96.4658C100.084 96.2545 100.201 96.0643 100.363 95.9175C100.524 95.7707 100.724 95.6732 100.938 95.6364C101.003 95.6254 101.069 95.6295 101.132 95.6487C101.194 95.6678 101.252 95.7013 101.3 95.7466L89.4407 85.034Z" fill="#2C557D"/>
<path opacity="0.2" d="M89.4407 85.034C89.3937 84.9914 89.3378 84.9599 89.2773 84.9419C89.2167 84.9238 89.1529 84.9196 89.0905 84.9296C88.8763 84.9664 88.6768 85.0639 88.5153 85.2107C88.3537 85.3575 88.2367 85.5477 88.1779 85.759L86.5535 91.559C86.4595 91.902 86.4635 92.2649 86.5651 92.6056C86.6667 92.9464 86.8616 93.2511 87.1275 93.4846L88.3788 94.5808L96.8969 102.08C97.0298 102.198 97.1899 102.279 97.3623 102.317C97.5347 102.355 97.7138 102.348 97.8829 102.297C98.0519 102.246 98.2055 102.152 98.3292 102.025C98.4529 101.898 98.5427 101.741 98.5902 101.57L100.025 96.4658C100.084 96.2545 100.201 96.0643 100.363 95.9175C100.524 95.7707 100.724 95.6732 100.938 95.6364C101.003 95.6254 101.069 95.6295 101.132 95.6487C101.194 95.6678 101.252 95.7013 101.3 95.7466L89.4407 85.034Z" fill="white"/>
<path d="M82.082 85.5966L82.4666 91.4604C83.2874 97.3068 84.355 98.229 87.0012 99.0004C89.6473 99.7718 88.0975 96.431 87.7531 95.8104C87.4998 95.2568 87.3203 94.6717 87.2193 94.0704C88.5223 95.2652 88.8552 95.1376 89.3718 94.7722C89.5784 94.6098 88.6026 93.7514 88.6026 93.7514C88.0857 92.6284 87.4131 91.5855 86.6051 90.6542L86.9093 85.585L82.082 85.5966Z" fill="#F28F8F"/>
<path opacity="0.2" d="M82.082 85.5966L82.4666 91.4604C83.2874 97.3068 84.355 98.229 87.0012 99.0004C89.6473 99.7718 88.0975 96.431 87.7531 95.8104C87.4998 95.2568 87.3203 94.6717 87.2193 94.0704C88.5223 95.2652 88.8552 95.1376 89.3718 94.7722C89.5784 94.6098 88.6026 93.7514 88.6026 93.7514C88.0857 92.6284 87.4131 91.5855 86.6051 90.6542L86.9093 85.585L82.082 85.5966Z" fill="black"/>
<path d="M99.302 68.063C95.5767 67.4308 93.1258 69.3274 91.4267 70.4294C90.1984 71.2298 85.6867 74.6634 83.2874 76.502C82.8126 76.8662 82.4298 77.3388 82.1705 77.8812C81.9111 78.4235 81.7824 79.0202 81.795 79.6224L81.927 85.8226C82.7196 86.2445 83.6083 86.4473 84.5034 86.4107C85.3984 86.374 86.268 86.0991 87.0241 85.6138L87.4604 81.0666C87.4604 81.0666 92.6953 78.4914 96.2139 76.8732C99.7325 75.255 100.157 70.7136 99.302 68.063Z" fill="#455A64"/>
<path opacity="0.1" d="M84.0795 145.267C83.1177 144.94 82.1093 144.776 81.0947 144.779C77.8918 144.779 75.2973 146.282 75.2973 148.132C75.2973 149.982 77.8918 151.49 81.0947 151.49C82.1099 151.495 83.1187 151.328 84.0795 150.997V145.267Z" fill="black"/>
<path opacity="0.1" d="M224.555 131.26C232.849 136.103 232.889 143.944 224.652 148.787C216.415 153.63 203.007 153.625 194.712 148.787C186.418 143.95 186.372 136.103 194.615 131.26C202.857 126.417 216.26 126.44 224.555 131.26Z" fill="black"/>
<path d="M235.11 76.4382L234.192 75.98C236.258 77.4996 239.811 85.6834 241.137 89.0126C241.154 89.0557 241.187 89.0902 241.229 89.1087C241.271 89.1272 241.319 89.1281 241.361 89.1112C241.404 89.0943 241.438 89.0609 241.456 89.0185C241.475 88.9761 241.476 88.9281 241.459 88.885C241.017 87.7714 237.67 79.3962 235.11 76.4382Z" fill="#E0E0E0"/>
<path d="M220.829 134.096L221.65 132.675L220.582 131.99C220.395 131.897 220.185 131.858 219.977 131.876C219.768 131.894 219.569 131.97 219.4 132.095C218.922 132.406 218.525 132.828 218.24 133.325C217.956 133.822 217.793 134.38 217.764 134.954C217.741 135.163 217.776 135.375 217.867 135.565C217.957 135.755 218.099 135.915 218.275 136.027L219.32 136.7L220.186 135.203C220.459 134.872 220.676 134.498 220.829 134.096Z" fill="#37474F"/>
<path d="M220.468 132.773C221.369 132.246 222.109 132.669 222.109 133.725C222.08 134.298 221.916 134.856 221.632 135.353C221.347 135.85 220.95 136.272 220.473 136.584C219.572 137.112 218.832 136.688 218.832 135.639C218.861 135.064 219.025 134.506 219.309 134.008C219.594 133.51 219.991 133.087 220.468 132.773Z" fill="#455A64"/>
<path d="M202.915 133.69L202.094 132.269L203.162 131.584C203.349 131.491 203.559 131.452 203.767 131.47C203.976 131.489 204.175 131.564 204.344 131.689C204.821 132.001 205.218 132.423 205.502 132.92C205.787 133.417 205.95 133.975 205.98 134.548C206.003 134.758 205.968 134.969 205.877 135.159C205.787 135.349 205.645 135.509 205.469 135.621L204.424 136.3L203.558 134.803C203.285 134.47 203.068 134.094 202.915 133.69Z" fill="#37474F"/>
<path d="M203.282 132.373C202.375 131.845 201.635 132.263 201.635 133.319C201.664 133.892 201.828 134.45 202.112 134.947C202.397 135.444 202.794 135.866 203.271 136.178C204.172 136.706 204.912 136.282 204.912 135.233C204.883 134.66 204.721 134.102 204.437 133.605C204.154 133.108 203.758 132.686 203.282 132.373Z" fill="#455A64"/>
<path d="M208.793 130.169H211.835V135.464C211.823 135.601 211.775 135.731 211.696 135.842C211.617 135.953 211.511 136.041 211.387 136.097C211.054 136.268 210.685 136.358 210.311 136.358C209.937 136.358 209.568 136.268 209.234 136.097C209.112 136.041 209.006 135.953 208.928 135.842C208.85 135.73 208.803 135.6 208.793 135.464V130.169Z" fill="#EBEBEB"/>
<path d="M219.808 131.654V132.912L211.835 134.948V132.274L219.808 131.654Z" fill="#E0E0E0"/>
<path d="M219.808 131.654L219.251 131.462L211.835 131.857V132.274L219.808 131.654Z" fill="#F5F5F5"/>
<path d="M220.611 143.103L219.785 141.682L220.852 140.998C221.04 140.903 221.25 140.862 221.46 140.879C221.67 140.896 221.87 140.971 222.04 141.096C222.517 141.41 222.913 141.833 223.198 142.331C223.482 142.829 223.646 143.388 223.676 143.961C223.695 144.17 223.657 144.38 223.568 144.569C223.478 144.758 223.339 144.919 223.165 145.034L222.138 145.713L221.271 144.217C220.992 143.885 220.769 143.508 220.611 143.103Z" fill="#37474F"/>
<path d="M220.99 141.781C220.083 141.253 219.348 141.676 219.343 142.726C219.376 143.299 219.542 143.856 219.828 144.352C220.115 144.848 220.513 145.269 220.99 145.58C221.897 146.108 222.632 145.684 222.637 144.629C222.603 144.057 222.437 143.501 222.15 143.006C221.864 142.511 221.467 142.091 220.99 141.781Z" fill="#455A64"/>
<path d="M209.992 146.74L210.813 145.319L209.745 144.634C209.557 144.539 209.347 144.498 209.138 144.516C208.928 144.533 208.727 144.608 208.557 144.733C208.082 145.047 207.686 145.469 207.402 145.966C207.118 146.462 206.953 147.02 206.921 147.592C206.901 147.802 206.938 148.013 207.028 148.203C207.118 148.393 207.258 148.555 207.432 148.671L208.483 149.344L209.349 147.848C209.62 147.515 209.836 147.141 209.992 146.74Z" fill="#37474F"/>
<path d="M209.625 145.394C210.532 144.866 211.266 145.29 211.272 146.34C211.241 146.913 211.077 147.47 210.793 147.967C210.509 148.464 210.112 148.886 209.636 149.199C208.729 149.727 207.995 149.303 207.989 148.254C208.02 147.68 208.184 147.123 208.468 146.626C208.753 146.129 209.149 145.707 209.625 145.394Z" fill="#455A64"/>
<path d="M198.478 141.131L199.299 139.71L198.231 139.026C198.044 138.932 197.834 138.891 197.626 138.909C197.418 138.926 197.218 139.001 197.048 139.124C196.571 139.436 196.174 139.858 195.89 140.355C195.606 140.852 195.442 141.41 195.413 141.984C195.393 142.193 195.43 142.405 195.52 142.595C195.61 142.785 195.749 142.947 195.923 143.063L196.968 143.735L197.835 142.239C198.107 141.907 198.324 141.533 198.478 141.131Z" fill="#37474F"/>
<path d="M198.116 139.815C199.017 139.287 199.758 139.71 199.758 140.76C199.728 141.333 199.565 141.89 199.282 142.387C198.998 142.884 198.603 143.306 198.128 143.619C197.221 144.147 196.48 143.724 196.48 142.674C196.51 142.101 196.673 141.542 196.958 141.045C197.242 140.548 197.639 140.127 198.116 139.815Z" fill="#455A64"/>
<path d="M221.725 140.023V142.071L211.048 136.242V133.417L221.725 140.023Z" fill="#E0E0E0"/>
<path d="M222.345 139.676L211.662 133.261L211.048 133.417L221.725 140.024L222.345 139.676Z" fill="#F5F5F5"/>
<path d="M222.345 141.717L221.725 142.071V140.023L222.345 139.675V141.717Z" fill="#F0F0F0"/>
<path d="M210.331 133.417L209.028 143.845V145.713L210.331 136.358V133.417Z" fill="#E0E0E0"/>
<path d="M209.028 143.852H208.276V145.713H209.028V143.852Z" fill="#F0F0F0"/>
<path d="M208.276 143.845L209.458 133.417H210.331L209.028 143.845H208.276Z" fill="#F5F5F5"/>
<path d="M197.691 138.069V140.024L208.793 135.465V133.069L197.691 138.069Z" fill="#E0E0E0"/>
<path d="M197.261 139.733L197.691 140.023V138.069L197.261 137.785V139.733Z" fill="#F0F0F0"/>
<path d="M199.012 137.471L197.691 138.069L197.261 137.785L208.792 132.536V133.069L199.012 137.471Z" fill="#F5F5F5"/>
<path d="M203.173 130.587V131.869L206.41 133.62L208.792 132.536V132.008L203.173 130.587Z" fill="#E0E0E0"/>
<path d="M203.173 130.587L203.431 130.482L208.792 131.654V132.008L203.173 130.587Z" fill="#F5F5F5"/>
<path d="M207.822 120.721H212.805V129.421C212.781 129.643 212.7 129.854 212.57 130.034C212.44 130.214 212.266 130.357 212.064 130.448C211.519 130.728 210.916 130.874 210.305 130.874C209.694 130.874 209.091 130.728 208.546 130.448C208.346 130.356 208.173 130.211 208.046 130.03C207.919 129.849 207.842 129.637 207.822 129.415V120.721Z" fill="#E0E0E0"/>
<path d="M239.932 81.5303C239.628 81.5361 239.325 81.489 239.037 81.3911L238.692 81.2867L238.962 80.2833L238.285 79.4597C237.786 79.2935 237.273 79.1731 236.752 79.1001C235.174 78.8855 233.423 79.2509 232.344 80.4399C231.265 81.6289 231.064 83.2703 231.018 84.8363C230.937 87.5275 231.265 90.2071 231.425 92.8983C231.677 95.5876 231.471 98.3006 230.817 100.92C230.065 103.501 228.521 105.937 226.167 107.236C225.239 107.73 224.248 108.095 223.223 108.32L215.084 101.824L203.862 98.2575L189.162 105.879C188.778 106.106 188.454 106.422 188.215 106.801C187.067 108.541 187.268 111.684 189.288 112.85L209.579 123.737C210.25 124.097 210.997 124.289 211.757 124.297C212.517 124.305 213.268 124.129 213.947 123.783L228.159 116.51C229.059 116.049 229.852 115.403 230.489 114.612C231.126 113.822 231.592 112.906 231.856 111.922L239.995 81.5419L239.932 81.5303Z" fill="#37474F"/>
<path d="M189.162 105.861L203.862 98.2402L215.084 101.807L223.223 108.303C222.591 108.46 221.949 108.587 221.317 108.715C219.632 108.962 218.004 109.508 216.507 110.327C215.061 111.226 213.895 112.763 213.884 114.48L214.4 118.54L213.947 118.766C213.269 119.115 212.518 119.293 211.758 119.285C210.998 119.278 210.25 119.086 209.579 118.726L189.288 107.839C188.855 107.584 188.488 107.231 188.215 106.807C188.451 106.42 188.776 106.096 189.162 105.861Z" fill="#455A64"/>
<path opacity="0.1" d="M189.162 105.861L203.862 98.2402L215.084 101.807L223.223 108.303C222.591 108.46 221.949 108.587 221.317 108.715C219.632 108.962 218.004 109.508 216.507 110.327C215.061 111.226 213.895 112.763 213.884 114.48L214.4 118.54L213.947 118.766C213.269 119.115 212.518 119.293 211.758 119.285C210.998 119.278 210.25 119.086 209.579 118.726L189.288 107.839C188.855 107.584 188.488 107.231 188.215 106.807C188.451 106.42 188.776 106.096 189.162 105.861Z" fill="black"/>
<path d="M191.297 93.1188C191.297 93.1188 203.098 96.5988 206.221 93.5306C210.107 89.6794 208.477 79.9702 208.018 76.1712C207.558 72.3722 208.018 69.739 209.057 68.6312C210.095 67.5234 211.605 65.882 216.519 67.9294C211.576 70.4988 213.075 83.6532 214.619 88.56C210.744 92.5852 208.879 97.9038 208.815 100.804C208.815 100.804 198.73 103.292 193.467 106.209L191.297 93.1188Z" fill="#455A64"/>
<path opacity="0.1" d="M191.297 93.1188C191.297 93.1188 203.098 96.5988 206.221 93.5306C210.107 89.6794 208.477 79.9702 208.018 76.1712C207.558 72.3722 208.018 69.739 209.057 68.6312C210.095 67.5234 211.605 65.882 216.519 67.9294C211.576 70.4988 212.225 83.6532 213.786 88.56C209.912 92.5852 208.89 97.9038 208.815 100.804C208.815 100.804 198.73 103.292 193.467 106.209L191.297 93.1188Z" fill="white"/>
<path d="M193.438 106.209L191.021 104.893C191.021 98.1879 190.046 98.8491 188.215 96.1927C186.384 93.5363 189.19 91.9296 191.297 93.0954C193.404 94.2612 194.265 97.805 193.438 106.209Z" fill="#455A64"/>
<path opacity="0.2" d="M193.438 106.209L191.021 104.893C191.021 98.1879 190.046 98.8491 188.215 96.1927C186.384 93.5363 189.19 91.9296 191.297 93.0954C193.404 94.2612 194.265 97.805 193.438 106.209Z" fill="white"/>
<path d="M216.49 67.9292C216.49 67.9292 229.692 73.7292 236.144 76.9308L235.673 79.303L214.59 69.6286C215.087 68.9239 215.737 68.3427 216.49 67.9292Z" fill="#455A64"/>
<path opacity="0.1" d="M216.49 67.9292C216.49 67.9292 229.692 73.7292 236.144 76.9308L235.673 79.303L214.59 69.6286C215.087 68.9239 215.737 68.3427 216.49 67.9292Z" fill="white"/>
<path d="M212.472 87.6319C211.134 83.4385 211.41 73.9265 214.59 69.6519L235.673 79.3263L230.857 103.727L223.223 108.326L208.787 100.804C208.861 97.9037 208.597 91.6397 212.472 87.6319Z" fill="#455A64"/>
<path d="M225.519 92.5213C225.163 92.3125 224.87 92.4807 224.87 92.8983C224.882 93.1239 224.946 93.3435 225.058 93.5391C225.169 93.7347 225.325 93.9007 225.513 94.0235C225.869 94.2323 226.162 94.0699 226.162 93.6523C226.151 93.4257 226.087 93.2049 225.976 93.0082C225.864 92.8115 225.707 92.6446 225.519 92.5213Z" fill="#455A64"/>
<path d="M222.259 90.5843C221.897 90.3755 221.61 90.5437 221.604 90.9613C221.618 91.1871 221.683 91.4065 221.796 91.6019C221.909 91.7974 222.065 91.9634 222.253 92.0865C222.609 92.2953 222.901 92.1329 222.901 91.7153C222.89 91.489 222.825 91.2688 222.714 91.0723C222.602 90.8758 222.446 90.7086 222.259 90.5843Z" fill="#455A64"/>
<path d="M218.992 88.6468C218.637 88.438 218.344 88.6062 218.344 89.0238C218.356 89.2492 218.421 89.4684 218.532 89.6639C218.644 89.8594 218.8 90.0255 218.987 90.149C219.348 90.3578 219.635 90.1954 219.641 89.7778C219.628 89.5511 219.563 89.3307 219.45 89.1342C219.337 88.9378 219.181 88.7708 218.992 88.6468Z" fill="#455A64"/>
<path d="M215.732 86.7098C215.371 86.501 215.084 86.6692 215.084 87.0868C215.095 87.3123 215.159 87.532 215.271 87.7276C215.383 87.9232 215.539 88.0892 215.726 88.212C216.082 88.4208 216.375 88.2584 216.375 87.8408C216.363 87.6145 216.299 87.3942 216.187 87.1978C216.075 87.0013 215.92 86.8341 215.732 86.7098Z" fill="#455A64"/>
<g opacity="0.2">
<path opacity="0.2" d="M225.519 92.5213C225.163 92.3125 224.87 92.4807 224.87 92.8983C224.882 93.1239 224.946 93.3435 225.058 93.5391C225.169 93.7347 225.325 93.9007 225.513 94.0235C225.869 94.2323 226.162 94.0699 226.162 93.6523C226.151 93.4257 226.087 93.2049 225.976 93.0082C225.864 92.8115 225.707 92.6446 225.519 92.5213Z" fill="white"/>
<path opacity="0.2" d="M222.259 90.5843C221.897 90.3755 221.61 90.5437 221.604 90.9613C221.618 91.1871 221.683 91.4065 221.796 91.6019C221.909 91.7974 222.065 91.9634 222.253 92.0865C222.609 92.2953 222.901 92.1329 222.901 91.7153C222.89 91.489 222.825 91.2688 222.714 91.0723C222.602 90.8758 222.446 90.7086 222.259 90.5843Z" fill="white"/>
<path opacity="0.2" d="M218.992 88.6468C218.637 88.438 218.344 88.6062 218.344 89.0238C218.356 89.2492 218.421 89.4684 218.532 89.6639C218.644 89.8594 218.8 90.0255 218.987 90.149C219.348 90.3578 219.635 90.1954 219.641 89.7778C219.628 89.5511 219.563 89.3307 219.45 89.1342C219.337 88.9378 219.181 88.7708 218.992 88.6468Z" fill="white"/>
<path opacity="0.2" d="M215.732 86.7098C215.371 86.501 215.084 86.6692 215.084 87.0868C215.095 87.3123 215.159 87.532 215.271 87.7276C215.383 87.9232 215.539 88.0892 215.726 88.212C216.082 88.4208 216.375 88.2584 216.375 87.8408C216.363 87.6145 216.299 87.3942 216.187 87.1978C216.075 87.0013 215.92 86.8341 215.732 86.7098Z" fill="white"/>
</g>
<path d="M216.507 110.328C218.004 109.508 219.632 108.962 221.317 108.715C221.949 108.588 222.591 108.46 223.223 108.303C224.248 108.078 225.239 107.713 226.167 107.219C228.498 105.92 230.065 103.484 230.817 100.903C231.47 98.2872 231.676 95.5782 231.425 92.8927C231.265 90.2015 230.937 87.5219 231.018 84.8307C231.064 83.2647 231.299 81.5885 232.344 80.4343C233.388 79.2801 235.174 78.8799 236.752 79.0945C237.273 79.1676 237.786 79.2879 238.285 79.4541L238.985 80.2835L238.715 81.2869L231.856 106.882C231.381 108.66 230.254 110.188 228.705 111.157C228.527 111.267 228.349 111.377 228.159 111.47L214.383 118.517L213.867 114.457C213.895 112.764 215.061 111.227 216.507 110.328Z" fill="#37474F"/>
<path d="M216.49 107.572C221.524 106.122 226.466 105.937 228.291 102.283C230.117 98.6285 230.243 93.5825 229.33 84.8187C229.217 83.6888 229.244 82.549 229.411 81.4257C229.95 78.1487 231.902 76.7451 234.146 76.7103C236.368 76.6712 238.521 77.4883 240.167 78.9955C240.487 79.2651 240.742 79.6041 240.914 79.9873C240.993 80.1762 241.022 80.3831 240.997 80.5869C240.972 80.7907 240.893 80.9841 240.77 81.1473C240.566 81.3611 240.289 81.4878 239.995 81.5011H239.932C239.628 81.507 239.325 81.4599 239.037 81.3619L238.692 81.2575C238.078 81.0603 237.47 80.8283 236.844 80.6775C236.094 80.4542 235.297 80.4542 234.548 80.6775C234.196 80.8175 233.881 81.0389 233.629 81.3239C233.377 81.609 233.194 81.9497 233.096 82.3189C230.972 89.3253 233.67 96.8537 231.276 102.619C229.324 107.88 222.574 110.066 217.816 111.626C218.279 111.442 218.688 111.14 219.004 110.751C219.241 110.38 219.351 109.94 219.317 109.5C219.283 109.06 219.106 108.643 218.815 108.315C218.516 108.009 218.148 107.782 217.743 107.653C217.338 107.524 216.908 107.496 216.49 107.572Z" fill="#455A64"/>
<path opacity="0.1" d="M216.49 107.572C221.524 106.122 226.466 105.937 228.291 102.283C230.117 98.6285 230.243 93.5825 229.33 84.8187C229.217 83.6888 229.244 82.549 229.411 81.4257C229.95 78.1487 231.902 76.7451 234.146 76.7103C236.368 76.6712 238.521 77.4883 240.167 78.9955C240.487 79.2651 240.742 79.6041 240.914 79.9873C240.993 80.1762 241.022 80.3831 240.997 80.5869C240.972 80.7907 240.893 80.9841 240.77 81.1473C240.566 81.3611 240.289 81.4878 239.995 81.5011H239.932C239.628 81.507 239.325 81.4599 239.037 81.3619L238.692 81.2575C238.078 81.0603 237.47 80.8283 236.844 80.6775C236.094 80.4542 235.297 80.4542 234.548 80.6775C234.196 80.8175 233.881 81.0389 233.629 81.3239C233.377 81.609 233.194 81.9497 233.096 82.3189C230.972 89.3253 233.67 96.8537 231.276 102.619C229.324 107.88 222.574 110.066 217.816 111.626C218.279 111.442 218.688 111.14 219.004 110.751C219.241 110.38 219.351 109.94 219.317 109.5C219.283 109.06 219.106 108.643 218.815 108.315C218.516 108.009 218.148 107.782 217.743 107.653C217.338 107.524 216.908 107.496 216.49 107.572Z" fill="white"/>
<path d="M213 111.174C213.294 110.345 213.73 109.573 214.286 108.895C214.849 108.213 215.627 107.746 216.49 107.572C216.919 107.492 217.361 107.522 217.776 107.659C218.192 107.795 218.566 108.035 218.866 108.355C219.158 108.684 219.334 109.101 219.369 109.541C219.403 109.981 219.293 110.42 219.056 110.791C218.74 111.181 218.331 111.483 217.867 111.667C217.488 111.828 217.118 112.012 216.76 112.218C215.82 112.859 215.144 113.824 214.86 114.932C214.577 116.031 214.429 117.161 214.418 118.296V118.517L212.059 117.194C211.95 115.143 212.271 113.092 213 111.174Z" fill="#455A64"/>
<path opacity="0.2" d="M213 111.174C213.294 110.345 213.73 109.573 214.286 108.895C214.849 108.213 215.627 107.746 216.49 107.572C216.919 107.492 217.361 107.522 217.776 107.659C218.192 107.795 218.566 108.035 218.866 108.355C219.158 108.684 219.334 109.101 219.369 109.541C219.403 109.981 219.293 110.42 219.056 110.791C218.74 111.181 218.331 111.483 217.867 111.667C217.488 111.828 217.118 112.012 216.76 112.218C215.82 112.859 215.144 113.824 214.86 114.932C214.577 116.031 214.429 117.161 214.418 118.296V118.517L212.059 117.194C211.95 115.143 212.271 113.092 213 111.174Z" fill="white"/>
<path d="M244.897 87.8351L244.518 87.4175L221.954 96.6279L224.055 104.313L224.434 104.725L246.992 95.5201L244.897 87.8351Z" fill="#2C557D"/>
<path opacity="0.2" d="M221.954 96.6279L224.055 104.313L224.434 104.725L222.333 97.0455L221.954 96.6279Z" fill="black"/>
<path opacity="0.2" d="M244.897 87.8351L244.518 87.4175L221.954 96.6279L222.333 97.0455L244.897 87.8351Z" fill="white"/>
<path d="M234.094 98.327L233.205 95.0616C233.193 95.0175 233.171 94.9768 233.141 94.9426C233.112 94.9084 233.074 94.8816 233.033 94.8644H232.975H232.912C232.87 94.859 232.828 94.859 232.786 94.8644C232.736 94.8808 232.691 94.9086 232.654 94.9456C232.616 94.9776 232.584 95.0171 232.562 95.0616C232.548 95.0915 232.536 95.1225 232.527 95.1544C232.525 95.1698 232.525 95.1854 232.527 95.2008C232.516 95.2484 232.516 95.2982 232.527 95.3458L232.883 96.6508L230.874 97.4396L230.518 96.1346C230.504 96.0794 230.475 96.0297 230.433 95.9915C230.391 95.9533 230.339 95.9285 230.283 95.92H230.174C230.132 95.9117 230.089 95.9117 230.048 95.92C229.998 95.9423 229.952 95.9715 229.91 96.007C229.873 96.04 229.842 96.0792 229.818 96.123C229.804 96.1529 229.793 96.1839 229.784 96.2158C229.784 96.2158 229.784 96.2506 229.784 96.2622C229.775 96.3101 229.775 96.3593 229.784 96.4072L230.679 99.6726C230.691 99.7175 230.712 99.7591 230.742 99.7944C230.761 99.8113 230.782 99.825 230.805 99.835C230.817 99.8377 230.829 99.8377 230.84 99.835C230.868 99.8406 230.898 99.8406 230.926 99.835H230.978C231.029 99.834 231.08 99.8221 231.127 99.8002C231.221 99.766 231.301 99.6985 231.35 99.6102C231.4 99.5218 231.416 99.4184 231.397 99.3188L231.035 97.9906L232.992 97.1902L233.354 98.5184C233.378 98.5941 233.429 98.6581 233.497 98.6982C233.497 98.6982 233.497 98.6982 233.526 98.6982C233.555 98.7043 233.584 98.7043 233.612 98.6982H233.658C233.685 98.7015 233.712 98.7015 233.739 98.6982H233.807C233.886 98.6713 233.955 98.6219 234.006 98.5559C234.057 98.49 234.088 98.4104 234.094 98.327Z" fill="white"/>
<path d="M229.766 99.661C229.754 99.6213 229.733 99.5847 229.705 99.5537C229.677 99.5227 229.644 99.498 229.606 99.4812H229.491C229.457 99.4758 229.422 99.4758 229.388 99.4812C229.346 99.4988 229.308 99.5222 229.273 99.5508C229.243 99.5788 229.216 99.6099 229.192 99.6436L229.129 99.7306C229.1 99.7774 229.067 99.8219 229.032 99.864L229.003 99.9046L228.888 100.021C228.868 100.048 228.845 100.074 228.819 100.096C228.791 100.125 228.75 100.148 228.716 100.177L228.607 100.258L228.481 100.322L228.32 100.403L228.136 100.461H228.09H228.039C227.729 100.531 227.405 100.474 227.136 100.304C226.868 100.133 226.676 99.8628 226.604 99.5508C226.555 99.3617 226.541 99.165 226.564 98.9708C226.574 98.8764 226.593 98.7831 226.621 98.6924C226.619 98.6693 226.619 98.6459 226.621 98.6228C226.644 98.5527 226.673 98.4848 226.707 98.4198C226.744 98.3451 226.786 98.2733 226.833 98.2052L226.862 98.1704C226.913 98.1012 226.971 98.0371 227.034 97.979L227.097 97.9326C227.232 97.8145 227.385 97.7204 227.551 97.6542C227.891 97.508 228.272 97.4895 228.624 97.602C228.701 97.6261 228.783 97.6261 228.86 97.602C228.955 97.5688 229.035 97.5016 229.085 97.4129C229.134 97.3242 229.15 97.2203 229.129 97.1206C229.112 97.0677 229.083 97.0199 229.043 96.9814C229.01 96.9524 228.971 96.9307 228.928 96.9176C228.875 96.9032 228.822 96.8916 228.768 96.8828H228.653H228.567C228.46 96.8711 228.352 96.8711 228.245 96.8828C228.1 96.8903 227.955 96.9136 227.815 96.9524C227.674 96.9874 227.535 97.0339 227.402 97.0916C227.249 97.1498 227.103 97.2236 226.965 97.312C226.841 97.3929 226.722 97.4821 226.609 97.5788C226.611 97.5884 226.611 97.5982 226.609 97.6078C226.512 97.7007 226.42 97.7995 226.334 97.9036L226.294 97.9558C226.213 98.062 226.14 98.1745 226.076 98.2922C226.035 98.3618 226.013 98.443 225.978 98.5126C225.944 98.5822 225.926 98.6344 225.903 98.6924C225.883 98.7626 225.867 98.8344 225.858 98.907C225.837 98.9733 225.821 99.0412 225.812 99.11C225.806 99.2046 225.806 99.2996 225.812 99.3942C225.809 99.4405 225.809 99.487 225.812 99.5334C225.818 99.6749 225.841 99.8152 225.88 99.951C225.921 100.091 225.975 100.227 226.041 100.357C226.065 100.396 226.092 100.433 226.122 100.467C226.167 100.547 226.218 100.623 226.277 100.693C226.324 100.743 226.373 100.789 226.426 100.833L226.518 100.92L226.581 100.966H226.627C226.689 101.008 226.754 101.045 226.822 101.076L226.868 101.105C227.131 101.212 227.413 101.265 227.697 101.26C227.981 101.255 228.261 101.192 228.521 101.076C229.089 100.858 229.565 100.448 229.87 99.9162C229.87 99.8689 229.861 99.822 229.843 99.7782C229.826 99.7344 229.799 99.6946 229.766 99.661Z" fill="white"/>
<path d="M235.914 97.5849L235.024 94.3195C235.01 94.269 234.983 94.2232 234.946 94.1866C234.908 94.15 234.862 94.1238 234.812 94.1107C234.785 94.108 234.758 94.108 234.732 94.1107H234.697C234.657 94.1024 234.616 94.1024 234.577 94.1107C234.527 94.133 234.48 94.1623 234.439 94.1977C234.403 94.2322 234.373 94.2712 234.347 94.3137C234.332 94.3432 234.321 94.3744 234.313 94.4065C234.31 94.4219 234.31 94.4376 234.313 94.4529C234.301 94.5006 234.301 94.5503 234.313 94.5979L235.202 97.8575C235.219 97.9199 235.256 97.975 235.307 98.0147C235.357 98.0544 235.419 98.0766 235.484 98.0779H235.512C235.563 98.074 235.614 98.0623 235.661 98.0431C235.749 98.0074 235.822 97.9424 235.868 97.8591C235.914 97.7757 235.93 97.6789 235.914 97.5849Z" fill="white"/>
<path d="M237.464 97.3003L238.244 96.9871L239.886 96.3143C239.97 96.2807 240.04 96.218 240.083 96.1374C240.126 96.0567 240.14 95.9633 240.121 95.8735C240.104 95.8144 240.067 95.763 240.017 95.7273C239.967 95.6916 239.907 95.6737 239.846 95.6763C239.806 95.6681 239.765 95.6681 239.725 95.6763L237.659 96.5231L237.378 95.4791L239.146 94.7599C239.229 94.7266 239.299 94.6651 239.343 94.5858C239.387 94.5066 239.402 94.4144 239.387 94.3249C239.376 94.2842 239.357 94.2463 239.33 94.2142C239.303 94.182 239.27 94.1564 239.232 94.1393H239.174H239.111C239.071 94.134 239.031 94.134 238.991 94.1393L237.223 94.8585L236.947 93.8493L238.979 93.0199C239.023 93.0018 239.064 92.9763 239.1 92.9445C239.15 92.9014 239.189 92.8453 239.211 92.7821C239.233 92.7189 239.238 92.6508 239.226 92.5849C239.215 92.5574 239.199 92.5319 239.18 92.5095C239.155 92.4801 239.123 92.4564 239.088 92.4399H238.979C238.936 92.4419 238.893 92.4517 238.853 92.4689L236.465 93.4433C236.415 93.4656 236.369 93.4949 236.327 93.5303C236.29 93.5633 236.259 93.6026 236.235 93.6463C236.22 93.6751 236.21 93.7066 236.207 93.7391V93.7855C236.195 93.8332 236.195 93.8829 236.207 93.9305L237.079 97.1321C237.093 97.1792 237.116 97.2227 237.148 97.2597H237.177L237.234 97.3003H237.274H237.355H237.435H237.464Z" fill="white"/>
<path d="M243.072 92.5851C243.03 92.5892 242.99 92.5989 242.951 92.6141L241.178 93.3391L240.885 92.2719L242.923 91.4425C243.009 91.4109 243.081 91.3491 243.127 91.2683C243.172 91.1874 243.187 91.0928 243.169 91.0017C243.159 90.9609 243.14 90.923 243.113 90.8909C243.086 90.8587 243.052 90.8332 243.014 90.8161C242.978 90.81 242.941 90.81 242.905 90.8161C242.864 90.8202 242.823 90.8299 242.785 90.8451L240.385 91.8253C240.336 91.8417 240.291 91.8695 240.253 91.9065C240.217 91.9377 240.186 91.975 240.162 92.0167C240.147 92.0437 240.137 92.0732 240.133 92.1037C240.13 92.121 240.13 92.1386 240.133 92.1559C240.127 92.1963 240.127 92.2373 240.133 92.2777L241.017 95.5141C241.028 95.5603 241.052 95.6024 241.086 95.6359H241.12C241.136 95.6508 241.154 95.6644 241.172 95.6765C241.206 95.6831 241.241 95.6831 241.275 95.6765H241.344H241.396H241.447L241.499 95.6417H241.533H241.562C241.619 95.594 241.661 95.5313 241.685 95.4606C241.708 95.3899 241.711 95.314 241.694 95.2415L241.35 93.9713L243.118 93.2463C243.207 93.2158 243.282 93.1538 243.329 93.0717C243.377 92.9897 243.393 92.8931 243.376 92.7997C243.36 92.7327 243.32 92.674 243.264 92.6345C243.208 92.595 243.14 92.5774 243.072 92.5851Z" fill="white"/>
<path d="M233.618 75.3999H233.584C233.431 75.4093 233.279 75.4326 233.13 75.4695C230.151 76.2351 227.327 83.1951 224.974 95.5549C224.969 95.5774 224.97 95.6004 224.974 95.6228C224.979 95.6452 224.988 95.6664 225.001 95.6852C225.014 95.7041 225.03 95.7202 225.049 95.7327C225.068 95.7451 225.089 95.7537 225.111 95.7579H225.146C225.187 95.7574 225.226 95.7426 225.257 95.7162C225.289 95.6898 225.31 95.6534 225.318 95.6129C226.707 88.3049 229.652 75.9277 233.601 75.7421H233.721C233.897 75.7826 234.062 75.8618 234.203 75.9741L235.116 76.4149C234.554 75.7885 234.037 75.3999 233.618 75.3999Z" fill="#E6E6E6"/>
</svg>
